{
.appVersion = "3151";
.formatVersion = 3;
DisplayStrings = (
"ൻ ൻ്റ",
"്",
"റ",
"ന്ത്ര്യ",
"ஆ",
"ஆ"
);
axes = (
{
name = Weight;
tag = wght;
}
);
customParameters = (
{
name = fsType;
value = (
);
},
{
name = "Use Typo Metrics";
value = 1;
}
);
date = "2022-04-22 13:08:16 +0000";
familyName = Arima;
featurePrefixes = (
{
automatic = 1;
code = "languagesystem DFLT dflt;

languagesystem latn dflt;
languagesystem latn AZE;
languagesystem latn CRT;
languagesystem latn KAZ;
languagesystem latn TAT;
languagesystem latn TRK;
languagesystem latn ROM;
languagesystem latn MOL;
languagesystem latn CAT;

languagesystem mlm2 dflt;

languagesystem taml dflt;
";
name = Languagesystems;
}
);
features = (
{
automatic = 1;
code = "feature locl;
feature subs;
feature sinf;
feature sups;
feature numr;
feature dnom;
feature frac;
feature ordn;
feature case;
feature akhn;
feature rkrf;
feature pref;
feature abvs;
feature psts;
feature ss01;
feature ss02;
feature haln;
";
tag = aalt;
},
{
automatic = 1;
code = "lookup ccmp_latn_1 {
	sub fi by f i;
	sub fl by f l;
} ccmp_latn_1;

script latn;
lookup ccmp_latn_1;
";
tag = ccmp;
},
{
automatic = 1;
code = "lookup locl_latn_0 {
	script latn;
	language AZE;
	sub i by idotaccent;
	language CRT;
	sub i by idotaccent;
	language KAZ;
	sub i by idotaccent;
	language TAT;
	sub i by idotaccent;
	language TRK;
	sub i by idotaccent;
} locl_latn_0;

lookup locl_latn_1 {
	script latn;
	language ROM;
	sub Scedilla by Scommaaccent;
	sub scedilla by scommaaccent;
	sub Tcedilla by Tcommaaccent;
	sub tcedilla by tcommaaccent;
	language MOL;
	sub Scedilla by Scommaaccent;
	sub scedilla by scommaaccent;
	sub Tcedilla by Tcommaaccent;
	sub tcedilla by tcommaaccent;
} locl_latn_1;

lookup locl_latn_2 {
	script latn;
	language CAT;
	sub  l' periodcentered' l by ldot;
	sub  L' periodcentered' L by Ldot;
} locl_latn_2;
";
tag = locl;
},
{
automatic = 1;
code = "sub zero by zeroinferior;
sub one by oneinferior;
sub two by twoinferior;
sub three by threeinferior;

glyphs = (
{
glyphname = A;
kernLeft = A;
kernRight = A;
lastChange = "2022-05-18 16:36:30 +0000";
layers = (
{
anchors = (
{
name = bottom;
pos = (287,0);
},
{
name = ogonek;
pos = (521,-4);
},
{
name = top;
pos = (280,688);
}
);
layerId = "60CFBDE8-BC08-4808-BF41-F011F3E03A54";
shapes = (
{
closed = 1;
nodes = (
(275,700,o),
(268,698,o),
(260,692,c),
(33,34,ls),
(31,27,o),
(27,17,o),
(27,10,cs),
(26,-1,o),
(34,-8,o),
(45,-8,cs),
(51,-8,o),
(55,-8,o),
(61,-6,c),
(59,-2,o),
(59,4,o),
(59,8,cs),
(59,14,o),
(62,24,o),
(64,29,cs),
(287,686,l),
(275,686,l),
(508,6,ls),
(511,-3,o),
(520,-8,o),
(530,-8,cs),
(536,-8,o),
(541,-6,o),
(547,1,c),
(542,7,o),
(536,18,o),
(531,31,cs),
(307,683,ls),
(303,694,o),
(294,700,o),
(282,700,cs)
);
},
{
closed = 1;
nodes = (
(130,234,l),
(435,234,l),
(435,260,l),
(130,260,l)
);
}
);
width = 562;
},
{
anchors = (
{
name = bottom;
pos = (335,0);
},
{
name = ogonek;
pos = (571,-13);
},
{
name = top;
pos = (340,698);
}
);
layerId = "EBFFFCD3-BAE4-48A5-9442-B72A90AD34A8";
shapes = (
{
closed = 1;
nodes = (
(324,713,o),
(285,707,o),
(245,694,c),
(51,115,ls),
(42,87,o),
(37,61,o),
(37,44,cs),
(37,3,o),
(61,-14,o),
(115,-14,cs),
(150,-14,o),
(171,-7,o),
(191,1,c),
(184,8,o),
(180,18,o),
(180,34,cs),
(180,49,o),
(183,64,o),
(187,80,cs),
(331,657,l),
(317,660,l),
(479,40,ls),
(487,4,o),
(520,-14,o),
(563,-14,cs),
(609,-14,o),
(633,3,o),
(645,17,c),
(628,35,o),
(617,65,o),
(612,82,cs),
(438,668,ls),
(428,704,o),
(396,713,o),
(363,713,cs)
);
},
{
closed = 1;
nodes = (
(181,203,l),
(513,203,l),
(513,277,l),
(181,277,l)
);
}
);
width = 628;
}
);
unicode = 65;
},
{
glyphname = AE;
kernLeft = AE;
kernRight = E;
lastChange = "2022-05-18 16:36:30 +0000";
layers = (
{
anchors = (
{
name = bottom;
pos = (194,0);
},
{
name = ogonek;
pos = (403,-4);
},
{
name = top;
pos = (194,688);
},
{
name = topleft;
pos = (464,688);
}
);
layerId = "60CFBDE8-BC08-4808-BF41-F011F3E03A54";
shapes = (
{
closed = 1;
nodes = (
(50,-8,o),
(54,-8,o),
(59,-6,c),
(57,-2,o),
(57,4,o),
(57,8,cs),
(57,14,o),
(59,24,o),
(62,29,c),
(386,634,l),
(387,624,o),
(387,613,o),
(387,600,cs),
(389,22,ls),
(389,8,o),
(395,0,o),
(406,0,cs),
(723,0,ls),
(735,0,o),
(733,22,o),
(723,26,c),
(621,26,o),
(520,25,o),
(418,25,c),
(416,662,l),
(514,662,o),
(612,662,o),
(710,662,c),
(721,665,o),
(727,688,o),
(713,688,cs),
(435,688,l),
(419,688,o),
(403,688,o),
(387,688,c),
(33,34,ls),
(29,27,o),
(27,17,o),
(27,10,c),
(26,-1,o),
(34,-8,o),
(45,-8,cs)
);
},
{
closed = 1;
nodes = (
(399,234,l),
(399,260,l),
(166,260,l),
(166,234,l)
);
},
{
closed = 1;
nodes = (
(691,354,l),
(694,363,o),
(694,371,o),
(691,380,c),
(411,380,l),
(411,354,l)
);
}
);
width = 803;
},
{
anchors = (
{
name = bottom;
pos = (300,0);
},
{
name = ogonek;
pos = (509,-4);
},
{
name = top;
pos = (300,688);
}
);
associatedMasterId = "60CFBDE8-BC08-4808-BF41-F011F3E03A54";
layerId = "BFFA3DC0-208A-495A-88DD-E554074831AB";
name = "Light Sep 23 15, 16:04";
shapes = (
{
closed = 1;
nodes = (
(320,-8,o),
(324,-8,o),
(329,-6,c),
(327,-2,o),
(327,4,o),
(327,8,cs),
(327,14,o),
(329,24,o),
(332,29,cs),
(679,676,l),
(657,687,l),
(303,34,ls),
(299,27,o),
(297,17,o),
(297,10,cs),
(296,-1,o),
(304,-8,o),
(315,-8,cs)
);
},
{
closed = 1;
nodes = (
(669,234,l),
(669,260,l),
(436,260,l),
(436,234,l)
);
},
{
pos = (550,0);
ref = E;
}
);
width = 1073;
},
{
anchors = (
{
name = bottom;
pos = (9,0);
},
{
name = ogonek;
pos = (267,-15);
},
{
name = top;
pos = (9,700);
}
);
associatedMasterId = "60CFBDE8-BC08-4808-BF41-F011F3E03A54";
layerId = "3346EF75-EA29-4C89-AF45-D7777B10A2DC";
name = "Bold Sep 23 15, 16:06";
shapes = (
{
closed = 1;
nodes = (
(417,694,o),
(355,687,o),
(309,672,c),
(31,132,ls),
(16,103,o),
(15,71,o),
(15,51,cs),
(15,4,o),
(42,-15,o),
(106,-15,cs),
(147,-15,o),
(171,-7,o),
(194,2,c),
(187,10,o),
(182,21,o),
(182,40,cs),
(182,57,o),
(182,73,o),
(189,91,cs),
(410,629,l),
(463,694,l)
);
},
{
closed = 1;
nodes = (
(213,196,l),
(551,196,l),
(551,281,l),
(213,281,l)
);
},
{
pos = (324,0);
ref = E;
}
);
width = 885;
},
{
anchors = (
{
name = bottom;
pos = (67,0);
},
{
name = ogonek;
pos = (316,-13);
},
{
name = top;
pos = (67,698);
},
{
name = topleft;
pos = (390,698);
}
);
layerId = "EBFFFCD3-BAE4-48A5-9442-B72A90AD34A8";
shapes = (
{
closed = 1;
nodes = (
(155,-14,o),
(175,-7,o),
(195,1,c),
(189,8,o),
(185,18,o),
(185,34,cs),
(185,49,o),
(185,64,o),
(192,80,c),
(419,603,l),
(424,577,o),
(424,554,o),
(424,533,cs),
(425,71,ls),
(425,26,o),
(459,0,o),
(504,0,cs),
(822,0,ls),
(867,0,o),
(865,103,o),
(830,125,c),
(777,98,o),
(653,69,o),
(564,66,c),
(564,632,l),
(649,629,o),
(737,608,o),
(805,576,c),
(842,593,o),
(858,698,o),
(820,698,cs),
(538,698,l),
(486,698,o),
(392,688,o),
(348,675,c),
(56,115,ls),
(43,90,o),
(37,71,o),
(37,53,c),
(37,12,o),
(66,-14,o),
(120,-14,cs)
);
},
{
closed = 1;
nodes = (
(459,203,l),
(459,277,l),
(230,277,l),
(230,203,l)
);
},
{
closed = 1;
nodes = (
(775,324,l),
(780,345,o),
(782,373,o),
(775,398,c),
(538,398,l),
(538,324,l)
);
}
);
width = 875;
}
);
metricLeft = A;
metricRight = E;
unicode = 198;
},
{
glyphname = B;
kernLeft = H;
kernRight = B;
lastChange = "2022-05-18 16:36:30 +0000";
layers = (
{
anchors = (
{
name = bottom;
pos = (275,0);
},
{
name = top;
pos = (275,688);
}
);
layerId = "60CFBDE8-BC08-4808-BF41-F011F3E03A54";
shapes = (
{
closed = 1;
nodes = (
(209,0,ls),
(385,0,o),
(484,31,o),
(484,178,cs),
(484,281,o),
(435,340,o),
(329,358,c),
(410,385,o),
(449,447,o),
(449,530,cs),
(449,651,o),
(369,700,o),
(205,700,cs),
(124,700,o),
(104,689,o),
(101,687,c),
(106,670,o),
(108,609,o),
(108,600,cs),
(108,22,l),
(109,8,o),
(115,0,o),
(127,0,cs)
);
},
{
closed = 1;
nodes = (
(138,672,l),
(148,675,o),
(168,676,o),
(195,676,cs),
(350,676,o),
(417,639,o),
(417,531,cs),
(417,415,o),
(335,370,o),
(254,370,cs),
(123,370,l),
(130,344,l),
(219,344,ls),
(363,344,o),
(452,308,o),
(452,180,cs),
(452,48,o),
(359,28,o),
(220,28,cs),
(138,28,l)
);
}
);
width = 559;
},
{
anchors = (
{
name = bottom;
pos = (301,0);
},
{
name = top;
pos = (301,698);
}
);
layerId = "EBFFFCD3-BAE4-48A5-9442-B72A90AD34A8";
shapes = (
{
closed = 1;
nodes = (
(276,0,ls),
(457,0,o),
(562,66,o),
(562,199,cs),
(562,303,o),
(495,364,o),
(400,377,c),
(480,398,o),
(528,462,o),
(528,544,cs),
(528,665,o),
(424,712,o),
(251,712,cs),
(165,712,o),
(105,701,o),
(63,681,c),
(80,636,o),
(83,583,o),
(83,551,cs),
(83,71,l),
(83,26,o),
(117,0,o),
(163,0,cs)
);
},
{
closed = 1;
nodes = (
(223,664,l),
(232,664,o),
(242,664,o),
(253,664,cs),
(349,664,o),
(380,610,o),
(380,532,cs),
(380,451,o),
(349,393,o),
(269,395,cs),
(200,395,l),
(207,347,l),
(272,347,ls),
(351,347,o),
(410,317,o),
(410,196,cs),
(410,113,o),
(373,48,o),
(270,48,cs),
(223,48,l)
);
}
);
width = 603;
}
);
metricLeft = H;
unicode = 66;
},
{
glyphname = C;
kernLeft = O;
kernRight = C;
lastChange = "2022-05-18 16:36:30 +0000";
layers = (
{
anchors = (
{
name = bottom;
pos = (316,0);
},
{
name = top;
pos = (319,688);
}
);
guides = (
{
pos = (291,345);
},
{
angle = 50;
pos = (261,345);
},
{
angle = -50;
pos = (261,345);
}
);
layerId = "60CFBDE8-BC08-4808-BF41-F011F3E03A54";
shapes = (
{
closed = 1;
nodes = (
(516,55,o),
(516,99,cs),
(516,112,o),
(505,114,o),
(492,114,c),
(474,53,o),
(392,16,o),
(319,16,cs),
(183,16,o),
(102,128,o),
(102,344,cs),
(102,560,o),
(183,672,o),
(319,672,cs),
(402,672,o),
(458,643,o),
(470,603,c),
(482,598,o),
(495,606,o),
(495,617,cs),
(495,654,o),
(425,700,o),
(319,700,cs),
(162,700,o),
(70,578,o),
(70,344,cs),
(70,110,o),
(162,-12,o),
(319,-12,cs),
(429,-12,o)
);
}
);
width = 576;
},
{
anchors = (
{
name = bottom;
pos = (314,0);
},
{
name = top;
pos = (337,698);
}
);
layerId = "EBFFFCD3-BAE4-48A5-9442-B72A90AD34A8";
shapes = (
{
closed = 1;
nodes = (
(584,33,o),
(584,129,cs),
(584,184,o),
(522,207,o),
(467,199,c),
(453,86,o),
(408,33,o),
(338,33,cs),
(243,33,o),
(201,138,o),
(201,349,cs),
(201,560,o),
(244,665,o),
(342,665,cs),
(407,665,o),
(445,617,o),
(455,511,c),
(529,510,o),
(567,551,o),
(567,591,cs),
(567,670,o),
(448,712,o),
(340,712,cs),
(156,712,o),
(47,580,o),
(47,349,cs),
(47,118,o),
(152,-14,o),
(330,-14,cs),
(453,-14,o)
);
}
);
width = 619;
}
);
metricLeft = O;
unicode = 67;
},
{
glyphname = D;
kernLeft = H;
kernRight = O;
lastChange = "2022-05-18 16:36:30 +0000";
layers = (
{
anchors = (
{
name = bottom;
pos = (285,0);
},
{
name = center;
pos = (310,344);
},
{
name = top;
pos = (303,688);
}
);
layerId = "60CFBDE8-BC08-4808-BF41-F011F3E03A54";
shapes = (
{
closed = 1;
nodes = (
(295,0,l),
(463,0,o),
(559,100,o),
(559,344,cs),
(559,588,o),
(463,700,o),
(295,700,cs),
(247,700,o),
(153,698,o),
(101,695,c),
(105,679,o),
(107,640,o),
(107,600,cs),
(109,22,ls),
(109,8,o),
(115,0,o),
(126,0,c)
);
},
{
closed = 1;
nodes = (
(136,672,l),
(295,672,ls),
(440,672,o),
(527,570,o),
(527,344,cs),
(527,118,o),
(440,28,o),
(295,28,cs),
(138,28,l)
);
}
);
width = 629;
},
{
associatedMasterId = "60CFBDE8-BC08-4808-BF41-F011F3E03A54";
background = {
shapes = (
{
closed = 1;
nodes = (
(233,634,ls),
(233,685,o),
(193,715,o),
(140,715,cs),
(95,715,o),
(61,692,o),
(47,680,c),
(67,629,o),
(70,578,o),
(70,540,cs),
(70,65,ls),
(70,14,o),
(110,-16,o),
(163,-16,cs),
(208,-16,o),
(243,7,o),
(256,19,c),
(236,70,o),
(233,121,o),
(233,159,cs)
);
}
);
};
layerId = "FC75D164-7CB1-4239-BF62-E7CB9325E57B";
name = "Bold Aug 11 15, 17:20";
shapes = (
{
closed = 1;
nodes = (
(294,0,ls),
(502,0,o),
(625,110,o),
(625,350,cs),
(625,590,o),
(502,710,o),
(294,710,cs),
(211,710,o),
(91,715,o),
(47,680,c),
(67,629,o),
(70,578,o),
(70,540,cs),
(70,80,ls),
(70,31,o),
(107,0,o),
(165,0,cs)
);
},
{
closed = 1;
nodes = (
(233,663,l),
(284,663,ls),
(393,663,o),
(436,570,o),
(436,350,cs),
(436,130,o),
(393,52,o),
(284,52,cs),
(233,52,l)
);
}
);
width = 653;
},
{
associatedMasterId = "60CFBDE8-BC08-4808-BF41-F011F3E03A54";
background = {
shapes = (
{
closed = 1;
nodes = (
(233,634,ls),
(233,685,o),
(193,715,o),
(140,715,cs),
(95,715,o),
(61,692,o),
(47,680,c),
(67,629,o),
(70,578,o),
(70,540,cs),
(70,65,ls),
(70,14,o),
(110,-16,o),
(163,-16,cs),
(208,-16,o),
(243,7,o),
(256,19,c),
(236,70,o),
(233,121,o),
(233,159,cs)
);
}
);
};
layerId = "81B3D987-C109-47C6-91D6-D189F1FB11A7";
name = "Bold Aug 24 15, 16:17";
shapes = (
{
closed = 1;
nodes = (
(294,0,ls),
(496,0,o),
(616,110,o),
(616,362,cs),
(616,590,o),
(496,710,o),
(294,710,cs),
(211,710,o),
(91,715,o),
(47,680,c),
(67,629,o),
(70,578,o),
(70,540,cs),
(70,80,ls),
(70,31,o),
(107,0,o),
(165,0,cs)
);
},
{
closed = 1;
nodes = (
(233,663,l),
(284,663,ls),
(393,663,o),
(436,570,o),
(436,350,cs),
(436,130,o),
(393,52,o),
(284,52,cs),
(233,52,l)
);
}
);
width = 660;
},
{
associatedMasterId = "60CFBDE8-BC08-4808-BF41-F011F3E03A54";
background = {
shapes = (
{
closed = 1;
nodes = (
(241,634,ls),
(241,685,o),
(201,715,o),
(148,715,cs),
(103,715,o),
(69,692,o),
(55,680,c),
(75,629,o),
(78,578,o),
(78,540,cs),
(78,65,ls),
(78,14,o),
(118,-16,o),
(171,-16,cs),
(216,-16,o),
(251,7,o),
(264,19,c),
(244,70,o),
(241,121,o),
(241,159,cs)
);
}
);
};
layerId = "A3D8210A-0071-458B-940B-6E6D612FAE4B";
name = "Bold Sep 16 15, 11:44";
shapes = (
{
closed = 1;
nodes = (
(302,0,ls),
(504,0,o),
(624,110,o),
(624,362,cs),
(624,590,o),
(504,710,o),
(302,710,cs),
(219,710,o),
(99,715,o),
(55,680,c),
(75,629,o),
(78,578,o),
(78,540,cs),
(78,80,ls),
(78,31,o),
(115,0,o),
(173,0,cs)
);
},
{
closed = 1;
nodes = (
(241,658,l),
(292,658,ls),
(401,658,o),
(444,565,o),
(444,350,cs),
(444,130,o),
(401,52,o),
(292,52,cs),
(241,52,l)
);
}
);
width = 666;
},
{
associatedMasterId = "60CFBDE8-BC08-4808-BF41-F011F3E03A54";
background = {
shapes = (
{
closed = 1;
nodes = (
(241,634,ls),
(241,685,o),
(201,715,o),
(148,715,cs),
(103,715,o),
(69,692,o),
(55,680,c),
(75,629,o),
(78,578,o),
(78,540,cs),
(78,65,ls),
(78,14,o),
(118,-16,o),
(171,-16,cs),
(216,-16,o),
(251,7,o),
(264,19,c),
(244,70,o),
(241,121,o),
(241,159,cs)
);
}
);
};
layerId = "E8FCF7F6-6C47-4C01-AEFB-830D027D0CA6";
name = "Bold Sep 16 15, 11:45";
shapes = (
{
closed = 1;
nodes = (
(302,0,ls),
(504,0,o),
(624,110,o),
(624,362,cs),
(624,590,o),
(504,710,o),
(292,710,cs),
(219,710,o),
(109,700,o),
(55,680,c),
(75,629,o),
(78,578,o),
(78,540,cs),
(78,80,ls),
(78,31,o),
(115,0,o),
(173,0,cs)
);
},
{
closed = 1;
nodes = (
(241,658,l),
(292,658,ls),
(401,658,o),
(444,565,o),
(444,350,cs),
(444,130,o),
(401,52,o),
(292,52,cs),
(241,52,l)
);
}
);
width = 666;
},
{
anchors = (
{
name = bottom;
pos = (293,0);
},
{
name = center;
pos = (323,349);
},
{
name = top;
pos = (316,698);
}
);
layerId = "EBFFFCD3-BAE4-48A5-9442-B72A90AD34A8";
shapes = (
{
closed = 1;
nodes = (
(295,0,l),
(491,0,o),
(607,108,o),
(607,359,cs),
(607,590,o),
(491,708,o),
(287,708,cs),
(218,708,o),
(118,707,o),
(63,699,c),
(80,654,o),
(77,589,o),
(77,551,cs),
(78,70,ls),
(78,27,o),
(109,0,o),
(159,0,c)
);
},
{
closed = 1;
nodes = (
(217,660,l),
(287,660,ls),
(402,660,o),
(453,566,o),
(453,349,cs),
(453,128,o),
(402,48,o),
(287,48,cs),
(217,48,l)
);
}
);
width = 654;
}
);
metricLeft = H;
metricRight = O;
unicode = 68;
},
{
glyphname = Eth;
kernLeft = Eth;
kernRight = O;
lastChange = "2022-05-18 16:36:30 +0000";
layers = (
{
anchors = (
{
name = bottom;
pos = (285,0);
},
{
name = top;
pos = (303,688);
}
);
layerId = "60CFBDE8-BC08-4808-BF41-F011F3E03A54";
shapes = (
{
closed = 1;
nodes = (
(23,353,o),
(23,344,o),
(27,336,c),
(310,336,l),
(314,344,o),
(314,353,o),
(310,361,c),
(27,361,l)
);
},
{
closed = 1;
nodes = (
(295,0,l),
(463,0,o),
(559,100,o),
(559,344,cs),
(559,588,o),
(463,700,o),
(295,700,cs),
(247,700,o),
(153,698,o),
(101,695,c),
(105,679,o),
(107,640,o),
(107,600,cs),
(109,22,ls),
(109,8,o),
(115,0,o),
(126,0,c)
);
},
{
closed = 1;
nodes = (
(136,672,l),
(295,672,ls),
(440,672,o),
(527,570,o),
(527,344,cs),
(527,118,o),
(440,28,o),
(295,28,cs),
(138,28,l)
);
}
);
width = 619;
},
{
anchors = (
{
name = bottom;
pos = (293,0);
},
{
name = top;
pos = (316,698);
}
);
layerId = "EBFFFCD3-BAE4-48A5-9442-B72A90AD34A8";
shapes = (
{
closed = 1;
nodes = (
(15,358,o),
(15,342,o),
(21,324,c),
(341,324,l),
(346,342,o),
(346,358,o),
(341,375,c),
(21,375,l)
);
},
{
closed = 1;
nodes = (
(295,0,l),
(491,0,o),
(607,108,o),
(607,359,cs),
(607,590,o),
(491,708,o),
(287,708,cs),
(218,708,o),
(118,707,o),
(63,699,c),
(80,654,o),
(77,589,o),
(77,551,cs),
(78,70,ls),
(78,27,o),
(109,0,o),
(159,0,c)
);
},
{
closed = 1;
nodes = (
(217,660,l),
(287,660,ls),
(402,660,o),
(453,566,o),
(453,349,cs),
(453,128,o),
(402,48,o),
(287,48,cs),
(217,48,l)
);
}
);
width = 658;
}
);
unicode = 208;
},
{
glyphname = E;
kernLeft = H;
kernRight = E;
lastChange = "2022-05-18 16:36:30 +0000";
layers = (
{
anchors = (
{
name = bottom;
pos = (262,0);
},
{
name = ogonek;
pos = (378,2);
},
{
name = top;
pos = (276,688);
},
{
name = topleft;
pos = (20,688);
}
);
layerId = "60CFBDE8-BC08-4808-BF41-F011F3E03A54";
shapes = (
{
closed = 1;
nodes = (
(443,0,l),
(455,0,o),
(453,22,o),
(443,26,c),
(341,26,o),
(240,25,o),
(138,25,c),
(136,662,l),
(238,662,o),
(328,662,o),
(430,662,c),
(441,665,o),
(447,688,o),
(433,688,c),
(119,688,ls),
(110,688,o),
(105,685,o),
(101,680,c),
(105,664,o),
(107,640,o),
(107,600,cs),
(109,22,ls),
(109,8,o),
(115,0,o),
(126,0,cs)
);
},
{
closed = 1;
nodes = (
(411,354,l),
(414,363,o),
(414,371,o),
(411,380,c),
(131,380,l),
(131,354,l)
);
}
);
width = 523;
},
{
associatedMasterId = "60CFBDE8-BC08-4808-BF41-F011F3E03A54";
layerId = "DABC5CA4-B7A8-4A1F-94B2-EB6056A49D21";
name = "Bold Aug 11 15, 17:13";
shapes = (
{
closed = 1;
nodes = (
(316,591,o),
(419,592,o),
(481,574,c),
(524,616,o),
(524,700,o),
(481,700,cs),
(198,700,ls),
(123,700,o),
(89,695,o),
(47,659,c),
(67,608,o),
(70,557,o),
(70,519,cs),
(70,81,ls),
(70,30,o),
(110,0,o),
(163,0,cs),
(481,0,ls),
(533,0,o),
(551,109,o),
(491,146,c),
(448,113,o),
(319,109,o),
(233,106,c),
(233,594,l)
);
},
{
closed = 1;
nodes = (
(203,317,l),
(431,317,l),
(458,337,o),
(476,390,o),
(445,423,c),
(203,423,l)
);
}
);
width = 600;
},
{
associatedMasterId = "60CFBDE8-BC08-4808-BF41-F011F3E03A54";
layerId = "D7C35F38-5724-4C79-A23F-4927B29C2A1B";
name = "Bold Aug 24 15, 17:15";
shapes = (
{
closed = 1;
nodes = (
(481,0,ls),
(533,0,o),
(531,121,o),
(491,146,c),
(448,113,o),
(319,58,o),
(233,55,c),
(233,645,l),
(316,642,o),
(401,596,o),
(463,557,c),
(506,577,o),
(524,700,o),
(481,700,cs),
(198,700,ls),
(123,700,o),
(89,695,o),
(47,659,c),
(67,608,o),
(70,557,o),
(70,519,cs),
(70,81,ls),
(70,30,o),
(110,0,o),
(163,0,cs)
);
},
{
closed = 1;
nodes = (
(431,317,l),
(436,341,o),
(439,373,o),
(431,402,c),
(203,402,l),
(203,317,l)
);
}
);
width = 541;
},
{
anchors = (
{
name = bottom;
pos = (278,0);
},
{
name = ogonek;
pos = (423,-10);
},
{
name = top;
pos = (280,698);
},
{
name = topleft;
pos = (20,698);
}
);
layerId = "EBFFFCD3-BAE4-48A5-9442-B72A90AD34A8";
shapes = (
{
closed = 1;
nodes = (
(481,0,l),
(526,0,o),
(524,103,o),
(489,125,c),
(436,98,o),
(311,69,o),
(223,66,c),
(222,632,l),
(309,629,o),
(395,608,o),
(464,576,c),
(501,593,o),
(517,698,o),
(479,698,c),
(190,698,ls),
(127,698,o),
(98,693,o),
(63,663,c),
(80,618,o),
(83,572,o),
(83,533,cs),
(83,71,ls),
(83,26,o),
(117,0,o),
(163,0,cs)
);
},
{
closed = 1;
nodes = (
(434,324,l),
(439,345,o),
(441,373,o),
(434,398,c),
(197,398,l),
(197,324,l)
);
}
);
width = 554;
}
);
metricLeft = H;
unicode = 69;
},
{
glyphname = Schwa;
kernRight = O;
lastChange = "2022-05-18 16:36:30 +0000";
layers = (
{
layerId = "60CFBDE8-BC08-4808-BF41-F011F3E03A54";
shapes = (
{
closed = 1;
nodes = (
(184,700,o),
(104,667,o),
(74,596,cs),
(62,568,o),
(70,558,o),
(82,553,c),
(104,637,o),
(189,671,o),
(273,671,cs),
(391,671,o),
(504,594,o),
(504,343,cs),
(504,120,o),
(407,15,o),
(270,15,cs),
(185,15,o),
(93,50,o),
(93,170,cs),
(93,284,o),
(161,341,o),
(286,341,cs),
(356,341,o),
(461,336,o),
(522,328,c),
(522,353,l),
(460,359,o),
(393,366,o),
(298,366,cs),
(145,366,o),
(61,301,o),
(61,170,cs),
(61,53,o),
(141,-12,o),
(268,-12,cs),
(443,-12,o),
(536,127,o),
(536,347,cs),
(536,582,o),
(438,700,o),
(276,700,cs)
);
}
);
width = 596;
},
{
layerId = "EBFFFCD3-BAE4-48A5-9442-B72A90AD34A8";
shapes = (
{
closed = 1;
nodes = (
(179,712,o),
(91,674,o),
(61,607,cs),
(45,570,o),
(58,553,o),
(70,548,c),
(98,595,o),
(161,627,o),
(241,627,cs),
(359,627,o),
(424,556,o),
(424,335,cs),
(424,146,o),
(375,31,o),
(285,31,cs),
(240,31,o),
(191,58,o),
(191,158,cs),
(191,309,o),
(313,338,o),
(389,338,cs),
(427,338,o),
(472,328,o),
(503,313,c),
(508,354,l),
(441,388,o),
(350,389,o),
(283,389,cs),
(143,389,o),
(44,315,o),
(44,184,cs),
(44,51,o),
(148,-14,o),
(281,-14,cs),
(470,-14,o),
(571,123,o),
(571,346,cs),
(571,580,o),
(461,712,o),
(278,712,cs)
);
}
);
width = 616;
}
);
unicode = 399;
},
{
glyphname = F;
kernLeft = H;
kernRight = F;
lastChange = "2022-05-18 16:36:30 +0000";
layers = (
{
anchors = (
{
name = bottom;
pos = (253,0);
},
{
name = top;
pos = (253,688);
}
);
layerId = "60CFBDE8-BC08-4808-BF41-F011F3E03A54";
shapes = (
{
closed = 1;
nodes = (
(135,-8,o),
(140,-4,o),
(144,0,c),
(140,16,o),
(138,47,o),
(138,87,cs),
(136,662,l),
(238,662,o),
(328,662,o),
(430,662,c),
(441,665,o),
(447,688,o),
(433,688,c),
(119,688,ls),
(110,688,o),
(105,685,o),
(101,680,c),
(105,664,o),
(107,640,o),
(107,600,cs),
(109,14,ls),
(109,0,o),
(115,-8,o),
(126,-8,cs)
);
},
{
closed = 1;
nodes = (
(409,346,l),
(412,355,o),
(412,363,o),
(409,372,c),
(131,372,l),
(131,346,l)
);
}
);
width = 505;
},
{
associatedMasterId = "60CFBDE8-BC08-4808-BF41-F011F3E03A54";
layerId = "19184986-F610-420D-B269-5F2EA25FA4BA";
name = "Bold Aug 24 15, 16:50";
shapes = (
{
closed = 1;
nodes = (
(208,-16,o),
(243,7,o),
(256,19,c),
(236,70,o),
(233,121,o),
(233,159,cs),
(233,649,l),
(316,646,o),
(401,596,o),
(463,557,c),
(506,577,o),
(524,700,o),
(481,700,cs),
(198,700,ls),
(123,700,o),
(89,695,o),
(47,659,c),
(67,608,o),
(70,557,o),
(70,519,cs),
(70,65,ls),
(70,14,o),
(110,-16,o),
(163,-16,cs)
);
},
{
closed = 1;
nodes = (
(431,317,l),
(436,341,o),
(439,373,o),
(431,402,c),
(203,402,l),
(203,317,l)
);
}
);
width = 526;
},
{
anchors = (
{
name = bottom;
pos = (267,0);
},
{
name = top;
pos = (267,698);
}
);
layerId = "EBFFFCD3-BAE4-48A5-9442-B72A90AD34A8";
shapes = (
{
closed = 1;
nodes = (
(202,-15,o),
(231,5,o),
(243,16,c),
(225,60,o),
(223,108,o),
(223,146,cs),
(222,632,l),
(309,629,o),
(395,608,o),
(464,576,c),
(501,593,o),
(517,698,o),
(479,698,c),
(190,698,ls),
(127,698,o),
(98,693,o),
(63,663,c),
(80,618,o),
(83,572,o),
(83,533,cs),
(83,56,ls),
(83,12,o),
(117,-15,o),
(163,-15,cs)
);
},
{
closed = 1;
nodes = (
(434,322,l),
(438,343,o),
(441,371,o),
(434,397,c),
(197,397,l),
(197,322,l)
);
}
);
width = 534;
}
);
metricLeft = H;
unicode = 70;
},
{
glyphname = G;
kernLeft = O;
kernRight = G;
lastChange = "2022-05-18 16:36:30 +0000";
layers = (
{
anchors = (
{
name = bottom;
pos = (322,0);
},
{
name = top;
pos = (322,688);
}
);
layerId = "60CFBDE8-BC08-4808-BF41-F011F3E03A54";
shapes = (
{
closed = 1;
nodes = (
(517,-12,o),
(534,144,o),
(534,218,cs),
(534,345,o),
(484,380,o),
(443,380,cs),
(425,380,o),
(415,373,o),
(416,359,c),
(467,359,o),
(503,321,o),
(503,220,cs),
(503,146,o),
(484,16,o),
(326,16,cs),
(180,16,o),
(102,128,o),
(102,344,cs),
(102,560,o),
(180,672,o),
(324,672,cs),
(398,672,o),
(459,643,o),
(470,603,c),
(484,598,o),
(495,606,o),
(495,619,cs),
(495,653,o),
(423,700,o),
(322,700,cs),
(160,700,o),
(70,578,o),
(70,343,cs),
(70,110,o),
(159,-12,o),
(327,-12,cs)
);
}
);
width = 599;
},
{
associatedMasterId = "60CFBDE8-BC08-4808-BF41-F011F3E03A54";
layerId = "94348DB7-D152-4170-9078-3768E8045D1E";
name = "Light Aug 11 15, 17:25";
shapes = (
{
closed = 1;
nodes = (
(507,-12,o),
(524,139,o),
(524,259,cs),
(524,339,o),
(474,380,o),
(433,380,cs),
(415,380,o),
(405,373,o),
(406,359,c),
(457,359,o),
(493,322,o),
(493,258,cs),
(493,139,o),
(474,16,o),
(309,16,cs),
(173,16,o),
(92,128,o),
(92,346,cs),
(92,559,o),
(170,672,o),
(314,672,cs),
(388,672,o),
(449,643,o),
(460,603,c),
(474,598,o),
(485,606,o),
(485,619,cs),
(485,653,o),
(413,700,o),
(312,700,cs),
(150,700,o),
(60,577,o),
(60,345,cs),
(60,110,o),
(152,-12,o),
(309,-12,cs)
);
}
);
width = 600;
},
{
anchors = (
{
name = bottom;
pos = (345,0);
},
{
name = top;
pos = (344,698);
}
);
layerId = "EBFFFCD3-BAE4-48A5-9442-B72A90AD34A8";
shapes = (
{
closed = 1;
nodes = (
(483,-14,o),
(610,70,o),
(610,257,cs),
(610,352,o),
(561,398,o),
(492,398,cs),
(457,398,o),
(422,385,o),
(409,357,c),
(460,332,o),
(468,273,o),
(468,222,cs),
(468,144,o),
(449,33,o),
(354,33,cs),
(247,33,o),
(201,138,o),
(201,349,cs),
(201,560,o),
(248,665,o),
(358,665,cs),
(419,665,o),
(455,617,o),
(465,511,c),
(539,510,o),
(577,551,o),
(577,592,cs),
(577,669,o),
(460,712,o),
(356,712,cs),
(162,712,o),
(47,580,o),
(47,349,cs),
(47,118,o),
(157,-14,o),
(346,-14,cs)
);
}
);
width = 656;
}
);
metricLeft = O;
unicode = 71;
},
{
glyphname = H;
kernLeft = H;
kernRight = H;
lastChange = "2022-05-18 16:36:30 +0000";
layers = (
{
anchors = (
{
name = bottom;
pos = (342,0);
},
{
name = center;
pos = (331,344);
},
{
name = top;
pos = (331,688);
},
{
name = topleft;
pos = (20,688);
}
);
layerId = "60CFBDE8-BC08-4808-BF41-F011F3E03A54";
shapes = (
{
closed = 1;
nodes = (
(138,673,ls),
(138,687,o),
(130,695,o),
(119,695,cs),
(110,695,o),
(105,691,o),
(101,687,c),
(105,671,o),
(107,640,o),
(107,600,cs),
(109,14,ls),
(109,0,o),
(115,-8,o),
(126,-8,cs),
(135,-8,o),
(140,-4,o),
(144,0,c),
(140,16,o),
(138,47,o),
(138,87,cs)
);
},
{
closed = 1;
nodes = (
(555,673,ls),
(555,687,o),
(547,695,o),
(536,695,cs),
(527,695,o),
(522,691,o),
(518,687,c),
(522,671,o),
(524,640,o),
(524,600,cs),
(526,14,ls),
(526,0,o),
(532,-8,o),
(543,-8,cs),
(552,-8,o),
(557,-4,o),
(561,0,c),
(557,16,o),
(555,47,o),
(555,87,cs)
);
},
{
closed = 1;
nodes = (
(130,354,l),
(541,354,l),
(541,380,l),
(130,380,l)
);
}
);
width = 662;
},
{
associatedMasterId = "60CFBDE8-BC08-4808-BF41-F011F3E03A54";
layerId = "8147B843-1D1E-4E40-A23A-CDDF041F227C";
name = "Bold Aug 11 15, 17:13";
shapes = (
{
closed = 1;
nodes = (
(233,634,ls),
(233,685,o),
(193,715,o),
(140,715,cs),
(95,715,o),
(61,692,o),
(47,680,c),
(67,629,o),
(70,578,o),
(70,540,cs),
(70,65,ls),
(70,14,o),
(110,-16,o),
(163,-16,cs),
(208,-16,o),
(243,7,o),
(256,19,c),
(236,70,o),
(233,121,o),
(233,159,cs)
);
},
{
closed = 1;
nodes = (
(613,634,ls),
(613,685,o),
(573,715,o),
(520,715,cs),
(475,715,o),
(441,692,o),
(427,680,c),
(447,629,o),
(450,578,o),
(450,540,cs),
(450,65,ls),
(450,14,o),
(490,-16,o),
(543,-16,cs),
(588,-16,o),
(623,7,o),
(636,19,c),
(616,70,o),
(613,121,o),
(613,159,cs)
);
},
{
closed = 1;
nodes = (
(169,338,l),
(497,338,l),
(497,423,l),
(169,423,l)
);
}
);
width = 691;
},
{
associatedMasterId = "60CFBDE8-BC08-4808-BF41-F011F3E03A54";
layerId = "5116D27B-B252-4277-ADD8-AC29A88BC019";
name = "Bold Aug 25 15, 13:54";
shapes = (
{
closed = 1;
nodes = (
(233,634,ls),
(233,685,o),
(193,715,o),
(140,715,cs),
(95,715,o),
(61,692,o),
(47,680,c),
(67,629,o),
(70,578,o),
(70,540,cs),
(70,65,ls),
(70,14,o),
(110,-16,o),
(163,-16,cs),
(208,-16,o),
(243,7,o),
(256,19,c),
(236,70,o),
(233,121,o),
(233,159,cs)
);
},
{
closed = 1;
nodes = (
(613,634,ls),
(613,685,o),
(573,715,o),
(520,715,cs),
(475,715,o),
(441,692,o),
(427,680,c),
(447,629,o),
(450,578,o),
(450,540,cs),
(450,65,ls),
(450,14,o),
(490,-16,o),
(543,-16,cs),
(588,-16,o),
(623,7,o),
(636,19,c),
(616,70,o),
(613,121,o),
(613,159,cs)
);
},
{
closed = 1;
nodes = (
(169,321,l),
(497,321,l),
(497,406,l),
(169,406,l)
);
}
);
width = 691;
},
{
associatedMasterId = "60CFBDE8-BC08-4808-BF41-F011F3E03A54";
layerId = "3617BBFE-9914-4BDC-A393-8825D1DED523";
name = "Light Aug 25 15, 14:26";
shapes = (
{
closed = 1;
nodes = (
(127,673,ls),
(127,687,o),
(121,695,o),
(110,695,cs),
(101,695,o),
(96,691,o),
(92,687,c),
(96,671,o),
(98,640,o),
(98,600,cs),
(100,14,ls),
(100,0,o),
(106,-8,o),
(117,-8,cs),
(126,-8,o),
(131,-4,o),
(135,0,c),
(131,16,o),
(129,47,o),
(129,87,cs)
);
},
{
closed = 1;
nodes = (
(544,673,ls),
(544,687,o),
(538,695,o),
(527,695,cs),
(518,695,o),
(513,691,o),
(509,687,c),
(513,671,o),
(515,640,o),
(515,600,cs),
(517,14,ls),
(517,0,o),
(523,-8,o),
(534,-8,cs),
(543,-8,o),
(548,-4,o),
(552,0,c),
(548,16,o),
(546,47,o),
(546,87,cs)
);
},
{
closed = 1;
nodes = (
(121,354,l),
(532,354,l),
(532,380,l),
(121,380,l)
);
}
);
width = 644;
},
{
associatedMasterId = "60CFBDE8-BC08-4808-BF41-F011F3E03A54";
layerId = "C3948034-F613-405E-AE60-FC0C71D6F68C";
name = "Light Aug 25 15, 14:27";
shapes = (
{
closed = 1;
nodes = (
(122,673,ls),
(122,687,o),
(116,695,o),
(105,695,cs),
(96,695,o),
(91,691,o),
(87,687,c),
(91,671,o),
(93,640,o),
(93,600,cs),
(95,14,ls),
(95,0,o),
(101,-8,o),
(112,-8,cs),
(121,-8,o),
(126,-4,o),
(130,0,c),
(126,16,o),
(124,47,o),
(124,87,cs)
);
},
{
closed = 1;
nodes = (
(539,673,ls),
(539,687,o),
(533,695,o),
(522,695,cs),
(513,695,o),
(508,691,o),
(504,687,c),
(508,671,o),
(510,640,o),
(510,600,cs),
(512,14,ls),
(512,0,o),
(518,-8,o),
(529,-8,cs),
(538,-8,o),
(543,-4,o),
(547,0,c),
(543,16,o),
(541,47,o),
(541,87,cs)
);
},
{
closed = 1;
nodes = (
(116,354,l),
(527,354,l),
(527,380,l),
(116,380,l)
);
}
);
width = 644;
},
{
associatedMasterId = "60CFBDE8-BC08-4808-BF41-F011F3E03A54";
layerId = "676EC7C0-28BE-4D1A-B7D5-C414F8EFD7B7";
name = "Light Aug 26 15, 10:42";
shapes = (
{
closed = 1;
nodes = (
(150,673,ls),
(150,687,o),
(144,695,o),
(133,695,cs),
(124,695,o),
(119,691,o),
(115,687,c),
(119,671,o),
(121,640,o),
(121,600,cs),
(123,14,ls),
(123,0,o),
(129,-8,o),
(140,-8,cs),
(149,-8,o),
(154,-4,o),
(158,0,c),
(154,16,o),
(152,47,o),
(152,87,cs)
);
},
{
closed = 1;
nodes = (
(567,673,ls),
(567,687,o),
(561,695,o),
(550,695,cs),
(541,695,o),
(536,691,o),
(532,687,c),
(536,671,o),
(538,640,o),
(538,600,cs),
(540,14,ls),
(540,0,o),
(546,-8,o),
(557,-8,cs),
(566,-8,o),
(571,-4,o),
(575,0,c),
(571,16,o),
(569,47,o),
(569,87,cs)
);
},
{
closed = 1;
nodes = (
(144,354,l),
(555,354,l),
(555,380,l),
(144,380,l)
);
}
);
width = 690;
},
{
anchors = (
{
name = bottom;
pos = (351,0);
},
{
name = center;
pos = (351,349);
},
{
name = top;
pos = (351,698);
},
{
name = topleft;
pos = (20,698);
}
);
layerId = "EBFFFCD3-BAE4-48A5-9442-B72A90AD34A8";
shapes = (
{
closed = 1;
nodes = (
(223,641,ls),
(223,685,o),
(188,711,o),
(143,711,cs),
(104,711,o),
(75,692,o),
(63,681,c),
(80,636,o),
(83,589,o),
(83,551,cs),
(83,56,ls),
(83,12,o),
(117,-15,o),
(163,-15,cs),
(202,-15,o),
(231,5,o),
(243,16,c),
(225,60,o),
(223,108,o),
(223,146,cs)
);
},
{
closed = 1;
nodes = (
(618,641,ls),
(618,685,o),
(583,711,o),
(538,711,cs),
(499,711,o),
(470,692,o),
(458,681,c),
(475,636,o),
(478,589,o),
(478,551,cs),
(478,56,ls),
(478,12,o),
(512,-15,o),
(558,-15,cs),
(597,-15,o),
(626,5,o),
(638,16,c),
(620,60,o),
(618,108,o),
(618,146,cs)
);
},
{
closed = 1;
nodes = (
(169,327,l),
(520,327,l),
(520,401,l),
(169,401,l)
);
}
);
width = 701;
}
);
unicode = 72;
},
{
glyphname = Hbar;
kernLeft = H;
kernRight = H;
lastChange = "2022-05-18 16:36:30 +0000";
layers = (
{
layerId = "60CFBDE8-BC08-4808-BF41-F011F3E03A54";
shapes = (
{
closed = 1;
nodes = (
(52,570,o),
(52,561,o),
(56,553,c),
(605,553,l),
(609,561,o),
(609,570,o),
(605,578,c),
(56,578,l)
);
},
{
ref = H;
}
);
width = 662;
},
{
layerId = "EBFFFCD3-BAE4-48A5-9442-B72A90AD34A8";
shapes = (
{
closed = 1;
nodes = (
(26,549,o),
(26,532,o),
(32,515,c),
(661,515,l),
(667,532,o),
(667,549,o),
(661,566,c),
(32,566,l)
);
},
{
ref = H;
}
);
width = 701;
}
);
unicode = 294;
},
{
glyphname = I;
kernLeft = H;
kernRight = H;
lastChange = "2022-05-18 16:36:30 +0000";
layers = (
{
anchors = (
{
name = bottom;
pos = (123,0);
},
{
name = ogonek;
pos = (124,-1);
},
{
name = top;
pos = (119,688);
},
{
name = topleft;
pos = (20,688);
}
);
layerId = "60CFBDE8-BC08-4808-BF41-F011F3E03A54";
shapes = (
{
closed = 1;
nodes = (
(135,-8,o),
(140,-4,o),
(144,0,c),
(140,16,o),
(138,47,o),
(138,87,cs),
(138,673,ls),
(138,687,o),
(130,695,o),
(119,695,cs),
(110,695,o),
(105,691,o),
(101,687,c),
(105,671,o),
(107,640,o),
(107,600,cs),
(109,14,ls),
(109,0,o),
(115,-8,o),
(126,-8,cs)
);
}
);
width = 245;
},
{
anchors = (
{
name = bottom;
pos = (167,0);
},
{
name = ogonek;
pos = (173,-8);
},
{
name = top;
pos = (139,698);
},
{
name = topleft;
pos = (20,698);
}
);
layerId = "EBFFFCD3-BAE4-48A5-9442-B72A90AD34A8";
shapes = (
{
closed = 1;
nodes = (
(202,-15,o),
(231,5,o),
(243,16,c),
(225,60,o),
(223,108,o),
(223,146,cs),
(223,641,ls),
(223,685,o),
(188,711,o),
(143,711,cs),
(104,711,o),
(75,692,o),
(63,681,c),
(80,636,o),
(83,589,o),
(83,551,cs),
(83,56,ls),
(83,12,o),
(117,-15,o),
(163,-15,cs)
);
}
);
width = 306;
}
);
metricLeft = H;
metricRight = H;
unicode = 73;
},
{
glyphname = J;
kernLeft = J;
kernRight = J;
lastChange = "2022-05-18 16:36:30 +0000";
layers = (
{
anchors = (
{
name = bottom;
pos = (212,0);
},
{
name = top;
pos = (212,688);
}
);
layerId = "60CFBDE8-BC08-4808-BF41-F011F3E03A54";
shapes = (
{
closed = 1;
nodes = (
(303,-12,o),
(317,91,o),
(317,161,cs),
(317,631,ls),
(317,653,o),
(317,676,o),
(320,698,c),
(305,696,o),
(287,693,o),
(258,694,cs),
(223,695,o),
(162,700,o),
(145,700,cs),
(104,700,o),
(84,672,o),
(84,646,cs),
(84,615,o),
(102,594,o),
(121,594,cs),
(125,594,o),
(133,594,o),
(139,599,c),
(122,607,o),
(112,618,o),
(112,640,cs),
(112,676,o),
(142,679,o),
(163,677,cs),
(213,674,o),
(246,671,o),
(287,672,c),
(287,659,o),
(287,646,o),
(287,633,c),
(287,164,ls),
(287,72,o),
(265,16,o),
(172,16,cs),
(135,16,o),
(80,35,o),
(80,100,cs),
(80,107,o),
(80,114,o),
(82,122,c),
(81,122,o),
(80,122,o),
(79,122,cs),
(60,122,o),
(53,104,o),
(53,90,cs),
(53,37,o),
(95,-12,o),
(174,-12,cs)
);
}
);
width = 419;
},
{
associatedMasterId = "60CFBDE8-BC08-4808-BF41-F011F3E03A54";
layerId = "58FBF628-3C4D-4C23-BCE2-FE5AC3B82DAD";
name = "Bold Aug 24 15, 16:17";
shapes = (
{
closed = 1;
nodes = (
(404,-15,o),
(463,73,o),
(463,207,cs),
(463,634,ls),
(463,682,o),
(467,702,o),
(470,715,c),
(440,712,o),
(397,709,o),
(356,709,cs),
(288,709,o),
(250,715,o),
(206,715,cs),
(121,715,o),
(76,680,o),
(76,621,cs),
(76,560,o),
(123,531,o),
(168,531,cs),
(193,531,o),
(216,537,o),
(232,549,c),
(216,560,o),
(199,580,o),
(199,613,cs),
(199,655,o),
(224,665,o),
(248,665,cs),
(259,665,o),
(294,664,o),
(311,663,c),
(300,648,o),
(300,617,o),
(300,582,cs),
(300,186,ls),
(300,110,o),
(295,30,o),
(245,30,cs),
(212,30,o),
(198,64,o),
(198,99,cs),
(198,124,o),
(204,147,o),
(217,171,c),
(202,196,o),
(180,207,o),
(145,207,cs),
(83,207,o),
(55,158,o),
(55,106,cs),
(55,47,o),
(101,-15,o),
(244,-15,cs)
);
}
);
width = 540;
},
{
associatedMasterId = "60CFBDE8-BC08-4808-BF41-F011F3E03A54";
layerId = "C419A7FD-F881-4D21-A74D-E19334A6A7B4";
name = "Bold Aug 24 15, 16:50";
shapes = (
{
closed = 1;
nodes = (
(404,-15,o),
(463,73,o),
(463,207,cs),
(463,634,ls),
(463,682,o),
(467,702,o),
(470,715,c),
(440,712,o),
(397,709,o),
(356,709,cs),
(288,709,o),
(250,715,o),
(206,715,cs),
(121,715,o),
(76,680,o),
(76,621,cs),
(76,560,o),
(123,531,o),
(168,531,cs),
(193,531,o),
(216,537,o),
(232,549,c),
(216,560,o),
(199,580,o),
(199,613,cs),
(199,650,o),
(224,660,o),
(248,660,cs),
(259,660,o),
(294,659,o),
(311,658,c),
(300,643,o),
(300,617,o),
(300,582,cs),
(300,186,ls),
(300,110,o),
(295,37,o),
(245,37,cs),
(212,37,o),
(198,71,o),
(198,99,cs),
(198,124,o),
(204,147,o),
(217,171,c),
(202,196,o),
(180,207,o),
(145,207,cs),
(83,207,o),
(55,158,o),
(55,106,cs),
(55,47,o),
(101,-15,o),
(244,-15,cs)
);
}
);
width = 540;
},
{
associatedMasterId = "60CFBDE8-BC08-4808-BF41-F011F3E03A54";
layerId = "AAEAA38A-8CFF-4733-B1FC-BACF8BDBCA4B";
name = "Bold Aug 25 15, 14:45";
shapes = (
{
closed = 1;
nodes = (
(404,-15,o),
(463,73,o),
(463,207,cs),
(463,634,ls),
(463,682,o),
(467,702,o),
(470,715,c),
(440,712,o),
(397,709,o),
(356,709,cs),
(288,709,o),
(243,715,o),
(199,715,cs),
(114,715,o),
(69,680,o),
(69,621,cs),
(69,560,o),
(116,531,o),
(161,531,cs),
(186,531,o),
(209,537,o),
(225,549,c),
(209,560,o),
(192,580,o),
(192,613,cs),
(192,650,o),
(217,660,o),
(241,660,cs),
(252,660,o),
(294,659,o),
(311,658,c),
(300,643,o),
(300,617,o),
(300,582,cs),
(300,186,ls),
(300,110,o),
(295,37,o),
(245,37,cs),
(212,37,o),
(198,71,o),
(198,99,cs),
(198,124,o),
(204,147,o),
(217,171,c),
(202,196,o),
(180,207,o),
(145,207,cs),
(83,207,o),
(55,158,o),
(55,106,cs),
(55,47,o),
(101,-15,o),
(244,-15,cs)
);
}
);
width = 540;
},
{
anchors = (
{
name = bottom;
pos = (252,0);
},
{
name = top;
pos = (252,698);
}
);
layerId = "EBFFFCD3-BAE4-48A5-9442-B72A90AD34A8";
shapes = (
{
closed = 1;
nodes = (
(368,-14,o),
(420,76,o),
(420,199,cs),
(420,633,ls),
(420,677,o),
(423,697,o),
(426,712,c),
(398,709,o),
(360,706,o),
(321,706,cs),
(259,707,o),
(211,712,o),
(172,712,cs),
(95,712,o),
(54,679,o),
(54,625,cs),
(54,570,o),
(96,542,o),
(136,542,cs),
(158,542,o),
(178,547,o),
(192,558,c),
(176,568,o),
(160,587,o),
(160,618,cs),
(160,650,o),
(186,659,o),
(210,659,cs),
(227,658,o),
(268,657,o),
(289,656,c),
(280,642,o),
(280,618,o),
(280,591,c),
(280,182,ls),
(280,103,o),
(272,33,o),
(214,33,cs),
(181,33,o),
(159,65,o),
(159,99,cs),
(159,121,o),
(164,141,o),
(175,162,c),
(163,183,o),
(145,192,o),
(116,192,cs),
(61,192,o),
(37,148,o),
(37,103,cs),
(37,45,o),
(82,-14,o),
(214,-14,cs)
);
}
);
width = 499;
}
);
unicode = 74;
},
{
glyphname = K;
kernLeft = H;
kernRight = K;
lastChange = "2022-05-18 16:36:30 +0000";
layers = (
{
anchors = (
{
name = bottom;
pos = (281,0);
},
{
name = top;
pos = (281,688);
}
);
layerId = "60CFBDE8-BC08-4808-BF41-F011F3E03A54";
shapes = (
{
closed = 1;
nodes = (
(509,-8,o),
(536,1,o),
(536,22,cs),
(536,27,o),
(535,32,o),
(531,37,c),
(522,22,o),
(505,20,o),
(498,20,cs),
(483,20,o),
(470,29,o),
(460,61,cs),
(410,223,ls),
(388,292,o),
(347,345,o),
(247,355,c),
(241,344,l),
(394,387,o),
(452,516,o),
(452,621,cs),
(452,677,o),
(437,699,o),
(422,699,cs),
(415,699,o),
(408,694,o),
(402,687,c),
(409,676,o),
(420,655,o),
(420,614,cs),
(420,503,o),
(332,361,o),
(171,361,cs),
(159,361,o),
(142,361,o),
(130,361,c),
(131,335,l),
(171,335,ls),
(331,335,o),
(355,283,o),
(379,221,cs),
(434,45,ls),
(444,12,o),
(471,-8,o),
(494,-8,cs)
);
},
{
closed = 1;
nodes = (
(135,-8,o),
(140,-4,o),
(144,0,c),
(140,16,o),
(138,47,o),
(138,87,c),
(136,673,l),
(136,687,o),
(130,695,o),
(119,695,cs),
(110,695,o),
(105,691,o),
(101,687,c),
(105,671,o),
(107,640,o),
(107,600,cs),
(109,14,ls),
(109,0,o),
(115,-8,o),
(126,-8,cs)
);
}
);
width = 554;
},
{
associatedMasterId = "60CFBDE8-BC08-4808-BF41-F011F3E03A54";
layerId = "DEAEA600-0143-4D22-A67D-623B785DCEFB";
name = "Bold Aug 24 15, 15:38";
shapes = (
{
closed = 1;
nodes = (
(208,-16,o),
(243,7,o),
(256,19,c),
(236,70,o),
(233,121,o),
(233,159,cs),
(233,634,ls),
(233,685,o),
(193,715,o),
(140,715,cs),
(95,715,o),
(61,692,o),
(47,680,c),
(67,629,o),
(70,578,o),
(70,540,cs),
(70,65,ls),
(70,14,o),
(110,-16,o),
(163,-16,cs)
);
},
{
closed = 1;
nodes = (
(568,-22,o),
(624,4,o),
(624,64,cs),
(624,76,o),
(621,90,o),
(615,106,c),
(607,102,o),
(600,100,o),
(593,101,cs),
(572,102,o),
(554,125,o),
(532,177,c),
(494,259,ls),
(461,314,o),
(412,353,o),
(301,350,c),
(247,304,l),
(306,302,o),
(326,260,o),
(345,210,cs),
(366,151,ls),
(409,43,o),
(432,-22,o),
(533,-22,cs)
);
},
{
closed = 1;
nodes = (
(500,417,o),
(568,501,o),
(568,607,cs),
(568,700,o),
(506,708,o),
(460,708,cs),
(439,708,o),
(418,702,o),
(401,695,c),
(408,684,o),
(421,673,o),
(421,634,cs),
(421,543,o),
(366,416,o),
(259,354,c),
(286,320,l)
);
}
);
width = 600;
},
{
associatedMasterId = "60CFBDE8-BC08-4808-BF41-F011F3E03A54";
layerId = "FF607C59-724C-4CCC-8163-C3D66920AAF8";
name = "Light Aug 24 15, 17:20";
shapes = (
{
closed = 1;
nodes = (
(126,-8,o),
(131,-4,o),
(135,0,c),
(131,16,o),
(129,47,o),
(129,87,cs),
(127,673,ls),
(127,687,o),
(121,695,o),
(110,695,cs),
(101,695,o),
(96,691,o),
(92,687,c),
(96,671,o),
(98,640,o),
(98,600,cs),
(100,14,ls),
(100,0,o),
(106,-8,o),
(117,-8,cs)
);
},
{
closed = 1;
nodes = (
(165,364,o),
(134,364,o),
(106,365,c),
(113,338,l),
(246,338,ls),
(321,338,o),
(333,282,o),
(366,200,cs),
(428,45,ls),
(441,12,o),
(465,-8,o),
(488,-8,cs),
(503,-8,o),
(530,1,o),
(530,22,cs),
(530,27,o),
(529,32,o),
(525,37,c),
(516,22,o),
(499,20,o),
(492,20,cs),
(477,20,o),
(467,29,o),
(454,61,cs),
(397,202,ls),
(360,293,o),
(346,364,o),
(245,364,c)
);
},
{
closed = 1;
nodes = (
(413,410,o),
(465,517,o),
(465,622,cs),
(465,678,o),
(450,700,o),
(435,700,cs),
(428,700,o),
(421,695,o),
(415,688,c),
(422,677,o),
(433,656,o),
(433,615,cs),
(433,514,o),
(346,391,o),
(218,365,c),
(242,353,l)
);
}
);
width = 600;
},
{
associatedMasterId = "60CFBDE8-BC08-4808-BF41-F011F3E03A54";
layerId = "F15CB726-9DCD-440A-BBDC-A5FCE582A295";
name = "Light Aug 24 15, 17:24";
shapes = (
{
closed = 1;
nodes = (
(490,-8,o),
(517,1,o),
(517,22,cs),
(517,27,o),
(516,32,o),
(512,37,c),
(503,22,o),
(486,20,o),
(479,20,cs),
(464,20,o),
(451,29,o),
(441,61,cs),
(391,226,ls),
(369,298,o),
(342,353,o),
(253,360,c),
(247,349,l),
(382,392,o),
(433,520,o),
(433,621,cs),
(433,677,o),
(418,699,o),
(403,699,cs),
(396,699,o),
(389,694,o),
(383,687,c),
(390,676,o),
(401,655,o),
(401,614,cs),
(401,506,o),
(324,364,o),
(182,364,cs),
(162,364,o),
(142,364,o),
(121,364,c),
(122,338,l),
(209,338,ls),
(321,338,o),
(340,286,o),
(360,224,cs),
(415,45,ls),
(425,12,o),
(452,-8,o),
(475,-8,cs)
);
},
{
closed = 1;
nodes = (
(126,-8,o),
(131,-4,o),
(135,0,c),
(131,16,o),
(129,47,o),
(129,87,c),
(127,673,l),
(127,687,o),
(121,695,o),
(110,695,cs),
(101,695,o),
(96,691,o),
(92,687,c),
(96,671,o),
(98,640,o),
(98,600,cs),
(100,14,ls),
(100,0,o),
(106,-8,o),
(117,-8,cs)
);
}
);
width = 600;
},
{
anchors = (
{
name = bottom;
pos = (335,0);
},
{
name = top;
pos = (312,698);
}
);
layerId = "EBFFFCD3-BAE4-48A5-9442-B72A90AD34A8";
shapes = (
{
closed = 1;
nodes = (
(571,-16,o),
(605,18,o),
(605,60,cs),
(605,71,o),
(602,84,o),
(597,98,c),
(588,92,o),
(581,90,o),
(573,91,cs),
(550,93,o),
(539,109,o),
(515,156,cs),
(471,258,ls),
(445,317,o),
(404,349,o),
(309,353,c),
(307,342,l),
(475,397,o),
(544,509,o),
(544,605,cs),
(544,691,o),
(490,706,o),
(448,706,cs),
(426,706,o),
(411,702,o),
(391,694,c),
(398,683,o),
(409,655,o),
(409,614,cs),
(409,531,o),
(357,405,o),
(245,370,cs),
(234,366,o),
(221,363,o),
(208,361,c),
(209,313,l),
(238,313,ls),
(308,313,o),
(333,257,o),
(348,214,cs),
(375,132,ls),
(399,68,o),
(430,-16,o),
(516,-16,cs)
);
},
{
closed = 1;
nodes = (
(202,-15,o),
(231,5,o),
(243,16,c),
(225,60,o),
(223,108,o),
(223,146,c),
(222,641,l),
(222,685,o),
(188,711,o),
(143,711,cs),
(104,711,o),
(75,692,o),
(63,681,c),
(80,636,o),
(83,589,o),
(83,551,cs),
(83,56,ls),
(83,12,o),
(117,-15,o),
(163,-15,cs)
);
}
);
width = 621;
}
);
metricLeft = H;
unicode = 75;
},
{
glyphname = L;
kernLeft = H;
kernRight = L;
lastChange = "2022-05-18 16:36:30 +0000";
layers = (
{
anchors = (
{
name = bottom;
pos = (261,0);
},
{
name = center;
pos = (228,344);
},
{
name = top;
pos = (136,687);
},
{
name = topright;
pos = (436,688);
}
);
layerId = "60CFBDE8-BC08-4808-BF41-F011F3E03A54";
shapes = (
{
closed = 1;
nodes = (
(136,687,o),
(130,695,o),
(119,695,cs),
(110,695,o),
(105,691,o),
(101,687,c),
(105,671,o),
(107,640,o),
(107,600,cs),
(109,22,ls),
(109,8,o),
(115,0,o),
(126,0,cs),
(413,0,l),
(425,0,o),
(423,22,o),
(413,26,c),
(321,26,o),
(230,25,o),
(138,25,c),
(136,673,ls)
);
}
);
width = 456;
},
{
anchors = (
{
name = bottom;
pos = (282,0);
},
{
name = center;
pos = (254,349);
},
{
name = top;
pos = (165,698);
},
{
name = topright;
pos = (297,698);
}
);
layerId = "EBFFFCD3-BAE4-48A5-9442-B72A90AD34A8";
shapes = (
{
closed = 1;
nodes = (
(222,685,o),
(188,711,o),
(143,711,cs),
(104,711,o),
(75,692,o),
(63,681,c),
(80,636,o),
(83,589,o),
(83,551,cs),
(83,71,ls),
(83,26,o),
(117,0,o),
(163,0,cs),
(459,0,l),
(504,0,o),
(502,110,o),
(467,133,c),
(416,103,o),
(310,76,o),
(223,74,c),
(222,641,ls)
);
}
);
width = 508;
}
);
metricLeft = H;
unicode = 76;
},
{
glyphname = Lslash;
kernLeft = H;
kernRight = L;
lastChange = "2022-05-18 16:36:30 +0000";
layers = (
{
layerId = "60CFBDE8-BC08-4808-BF41-F011F3E03A54";
shapes = (
{
closed = 1;
nodes = (
(39,176,o),
(45,171,o),
(55,169,c),
(277,389,l),
(274,398,o),
(268,404,o),
(259,407,c),
(37,186,l)
);
},
{
ref = L;
}
);
width = 456;
},
{
layerId = "EBFFFCD3-BAE4-48A5-9442-B72A90AD34A8";
shapes = (
{
closed = 1;
nodes = (
(5,146,o),
(17,133,o),
(34,129,c),
(354,450,l),
(350,468,o),
(337,481,o),
(318,486,c),
(-1,165,l)
);
},
{
ref = L;
}
);
width = 508;
}
);
unicode = 321;
},
{
glyphname = M;
kernLeft = H;
kernRight = H;
lastChange = "2022-05-18 16:36:30 +0000";
layers = (
{
anchors = (
{
name = bottom;
pos = (425,0);
},
{
name = top;
pos = (425,688);
}
);
layerId = "60CFBDE8-BC08-4808-BF41-F011F3E03A54";
shapes = (
{
closed = 1;
nodes = (
(741,673,l),
(741,687,o),
(735,695,o),
(724,695,cs),
(719,695,o),
(713,694,o),
(709,691,c),
(615,515,o),
(520,332,o),
(426,156,c),
(434,161,l),
(334,336,o),
(232,511,o),
(132,686,c),
(129,692,o),
(124,695,o),
(117,695,cs),
(109,695,o),
(105,691,o),
(101,687,c),
(105,671,o),
(107,640,o),
(107,600,cs),
(109,14,ls),
(109,0,o),
(114,-8,o),
(124,-8,cs),
(133,-8,o),
(138,-4,o),
(142,0,c),
(138,16,o),
(136,47,o),
(136,87,c),
(134,635,l),
(130,629,l),
(225,466,o),
(320,299,o),
(415,136,c),
(425,129,o),
(436,129,o),
(446,136,c),
(718,645,l),
(712,647,l),
(714,14,ls),
(714,0,o),
(720,-8,o),
(731,-8,cs),
(740,-8,o),
(745,-4,o),
(749,0,c),
(745,16,o),
(743,47,o),
(743,87,cs)
);
}
);
width = 850;
},
{
associatedMasterId = "60CFBDE8-BC08-4808-BF41-F011F3E03A54";
layerId = "00E9146C-174D-48DB-8E36-3DDC2A90225B";
name = "Bold Aug 24 15, 15:40";
shapes = (
{
closed = 1;
nodes = (
(103,-15,o),
(141,7,o),
(149,19,c),
(129,70,o),
(129,95,o),
(126,159,cs),
(106,634,ls),
(104,685,o),
(106,716,o),
(74,716,cs),
(45,716,o),
(30,700,o),
(16,680,c),
(36,629,o),
(39,578,o),
(39,540,cs),
(39,65,ls),
(39,-8,o),
(66,-15,o),
(83,-15,cs)
);
},
{
closed = 1;
nodes = (
(698,-16,o),
(733,7,o),
(746,19,c),
(726,70,o),
(723,121,o),
(723,159,cs),
(723,634,ls),
(723,685,o),
(683,715,o),
(630,715,cs),
(585,715,o),
(551,692,o),
(537,680,c),
(557,629,o),
(560,578,o),
(560,540,cs),
(560,65,ls),
(560,14,o),
(600,-16,o),
(653,-16,cs)
);
},
{
closed = 1;
nodes = (
(384,254,l),
(98,709,l),
(64,477,l),
(335,74,l)
);
},
{
closed = 1;
nodes = (
(610,655,l),
(537,680,l),
(311,158,l),
(346,90,l)
);
}
);
width = 836;
},
{
associatedMasterId = "60CFBDE8-BC08-4808-BF41-F011F3E03A54";
layerId = "F9E44A40-062C-4DFC-A419-E9923DCF4831";
name = "Bold Aug 24 15, 15:59";
shapes = (
{
closed = 1;
nodes = (
(127,-15,o),
(159,-2,o),
(173,19,c),
(153,70,o),
(151,95,o),
(150,159,cs),
(146,640,ls),
(146,691,o),
(82,698,o),
(50,698,c),
(50,65,ls),
(50,13,o),
(70,-15,o),
(114,-15,cs)
);
},
{
closed = 1;
nodes = (
(676,-16,o),
(711,7,o),
(724,19,c),
(704,70,o),
(701,121,o),
(701,159,cs),
(701,634,ls),
(701,685,o),
(661,715,o),
(608,715,cs),
(563,715,o),
(529,692,o),
(515,680,c),
(535,629,o),
(538,578,o),
(538,540,cs),
(538,65,ls),
(538,14,o),
(578,-16,o),
(631,-16,cs)
);
},
{
closed = 1;
nodes = (
(355,83,o),
(423,111,c),
(485,244,o),
(592,598,o),
(608,659,c),
(608,715,l),
(557,715,o),
(552,711,o),
(504,700,c),
(477,600,o),
(406,298,o),
(356,133,c),
(403,127,l),
(256,685,l),
(215,720,o),
(105,728,o),
(51,697,c),
(70,676,o),
(100,658,o),
(106,640,cs),
(268,119,l),
(307,92,o)
);
}
);
width = 836;
},
{
associatedMasterId = "60CFBDE8-BC08-4808-BF41-F011F3E03A54";
layerId = "9C76D656-C1C3-4235-A9B3-0CDB6015CB1E";
name = "Bold Aug 24 15, 16:00";
shapes = (
{
closed = 1;
nodes = (
(694,-16,o),
(729,7,o),
(742,19,c),
(722,70,o),
(719,121,o),
(719,159,cs),
(719,634,ls),
(719,685,o),
(679,715,o),
(626,715,cs),
(581,715,o),
(547,692,o),
(533,680,c),
(553,629,o),
(556,578,o),
(556,540,cs),
(556,65,ls),
(556,14,o),
(596,-16,o),
(649,-16,cs)
);
},
{
closed = 1;
nodes = (
(317,92,o),
(365,83,o),
(433,111,c),
(503,244,o),
(610,598,o),
(626,659,c),
(626,715,l),
(575,715,o),
(570,711,o),
(522,700,c),
(495,600,o),
(416,298,o),
(366,133,c),
(413,127,l),
(243,685,l),
(202,720,o),
(94,731,o),
(40,700,c),
(59,679,o),
(87,658,o),
(93,640,cs),
(278,119,l)
);
},
{
closed = 1;
nodes = (
(114,722,o),
(53,717,o),
(38,695,c),
(44,649,o),
(45,608,o),
(45,544,cs),
(45,45,ls),
(45,8,o),
(58,-17,o),
(98,-17,cs),
(117,-17,o),
(139,-10,o),
(153,3,c),
(133,54,o),
(130,121,o),
(130,158,cs),
(129,705,l)
);
}
);
width = 836;
},
{
associatedMasterId = "60CFBDE8-BC08-4808-BF41-F011F3E03A54";
guides = (
{
pos = (408,458);
}
);
layerId = "9E70CF9E-ADE5-4FA5-8502-431F49DDC9F8";
name = "Bold Aug 25 15, 13:47";
shapes = (
{
closed = 1;
nodes = (
(752,685,l),
(747,699,o),
(699,715,o),
(651,715,cs),
(629,715,o),
(586,713,o),
(546,700,c),
(512,562,o),
(435,316,o),
(391,171,c),
(429,171,l),
(374,334,o),
(321,506,o),
(270,685,c),
(246,705,o),
(210,715,o),
(162,715,cs),
(96,715,o),
(61,708,o),
(47,695,c),
(53,649,o),
(54,608,o),
(54,544,cs),
(54,45,ls),
(54,8,o),
(67,-17,o),
(107,-17,cs),
(126,-17,o),
(148,-10,o),
(162,3,c),
(142,54,o),
(139,121,o),
(139,158,cs),
(138,560,l),
(107,595,l),
(149,416,o),
(229,203,o),
(291,60,c),
(339,43,o),
(386,46,o),
(448,66,c),
(627,591,l),
(589,532,l),
(589,65,ls),
(589,14,o),
(629,-16,o),
(682,-16,cs),
(727,-16,o),
(762,7,o),
(775,19,c),
(755,70,o),
(752,121,o),
(752,159,cs)
);
}
);
width = 830;
},
{
anchors = (
{
name = bottom;
pos = (426,0);
},
{
name = top;
pos = (426,698);
}
);
layerId = "EBFFFCD3-BAE4-48A5-9442-B72A90AD34A8";
shapes = (
{
closed = 1;
nodes = (
(768,683,l),
(763,697,o),
(723,711,o),
(681,711,cs),
(662,711,o),
(626,710,o),
(592,698,c),
(548,554,o),
(467,319,o),
(415,168,c),
(436,165,l),
(373,330,o),
(309,508,o),
(244,686,c),
(227,703,o),
(206,711,o),
(171,711,cs),
(116,711,o),
(86,705,o),
(74,694,c),
(80,653,o),
(81,614,o),
(81,554,cs),
(81,40,ls),
(81,7,o),
(93,-15,o),
(127,-15,cs),
(145,-15,o),
(164,-9,o),
(176,2,c),
(159,47,o),
(156,108,o),
(156,145,c),
(155,573,l),
(138,601,l),
(191,425,o),
(270,220,o),
(339,73,c),
(378,58,o),
(416,61,o),
(467,78,c),
(653,601,l),
(632,552,l),
(633,56,ls),
(633,12,o),
(665,-15,o),
(708,-15,cs),
(747,-15,o),
(776,5,o),
(788,16,c),
(771,60,o),
(768,108,o),
(768,146,cs)
);
}
);
width = 851;
}
);
metricRight = H;
unicode = 77;
},
{
glyphname = N;
kernLeft = H;
kernRight = H;
lastChange = "2022-05-18 16:36:30 +0000";
layers = (
{
anchors = (
{
name = bottom;
pos = (334,0);
},
{
name = top;
pos = (332,688);
}
);
layerId = "60CFBDE8-BC08-4808-BF41-F011F3E03A54";
shapes = (
{
closed = 1;
nodes = (
(132,-8,o),
(138,0,o),
(138,14,cs),
(136,629,l),
(243,460,o),
(473,90,o),
(542,-5,c),
(548,-7,o),
(561,-6,o),
(566,0,c),
(564,16,o),
(564,47,o),
(564,87,cs),
(562,673,ls),
(562,687,o),
(556,695,o),
(545,695,cs),
(536,695,o),
(531,691,o),
(527,687,c),
(531,671,o),
(533,640,o),
(533,600,cs),
(535,53,l),
(423,221,o),
(228,547,o),
(133,688,c),
(130,691,o),
(113,696,o),
(101,687,c),
(105,671,o),
(107,630,o),
(107,590,cs),
(109,87,ls),
(109,47,o),
(107,16,o),
(103,0,c),
(107,-4,o),
(112,-8,o),
(121,-8,cs)
);
}
);
width = 667;
},
{
associatedMasterId = "60CFBDE8-BC08-4808-BF41-F011F3E03A54";
layerId = "7142CB5A-9B87-40BB-B249-FD8E380CF5DD";
name = "Bold Aug 24 15, 15:52";
shapes = (
{
closed = 1;
nodes = (
(563,200,l),
(143,710,l),
(118,490,l),
(545,-15,l)
);
},
{
closed = 1;
nodes = (
(153,-15,o),
(171,7,o),
(179,19,c),
(159,70,o),
(156,95,o),
(156,159,cs),
(156,634,ls),
(156,685,o),
(156,716,o),
(124,716,cs),
(95,716,o),
(80,700,o),
(66,680,c),
(86,629,o),
(89,578,o),
(89,540,cs),
(89,65,ls),
(89,-8,o),
(116,-15,o),
(133,-15,cs)
);
},
{
closed = 1;
nodes = (
(582,-15,o),
(600,7,o),
(608,19,c),
(588,70,o),
(585,95,o),
(585,159,cs),
(585,634,ls),
(585,685,o),
(585,716,o),
(553,716,cs),
(524,716,o),
(509,700,o),
(495,680,c),
(515,629,o),
(518,578,o),
(518,540,cs),
(518,65,ls),
(518,-8,o),
(545,-15,o),
(562,-15,cs)
);
}
);
width = 600;
},
{
associatedMasterId = "60CFBDE8-BC08-4808-BF41-F011F3E03A54";
layerId = "6A56AA06-7C6B-4AD8-BC3E-4E51C5BE2702";
name = "Bold Aug 24 15, 15:57";
shapes = (
{
closed = 1;
nodes = (
(524,194,l),
(113,704,l),
(79,475,l),
(480,-6,l)
);
},
{
closed = 1;
nodes = (
(122,-15,o),
(140,7,o),
(148,19,c),
(128,70,o),
(125,95,o),
(125,159,cs),
(125,629,ls),
(125,680,o),
(131,711,o),
(87,711,cs),
(69,711,o),
(55,705,o),
(41,695,c),
(53,645,o),
(58,585,o),
(58,533,cs),
(58,65,ls),
(58,-8,o),
(85,-15,o),
(102,-15,cs)
);
},
{
closed = 1;
nodes = (
(492,-19,o),
(554,-14,o),
(569,8,c),
(563,54,o),
(562,95,o),
(562,159,cs),
(562,653,ls),
(562,690,o),
(549,715,o),
(509,715,cs),
(490,715,o),
(468,708,o),
(454,695,c),
(474,644,o),
(477,577,o),
(477,540,cs),
(477,-2,l)
);
}
);
width = 600;
},
{
associatedMasterId = "60CFBDE8-BC08-4808-BF41-F011F3E03A54";
layerId = "C8F83A1A-251F-4475-841F-A6BF8D4E8A64";
name = "Bold Aug 24 15, 15:57";
shapes = (
{
closed = 1;
nodes = (
(524,194,l),
(113,704,l),
(79,475,l),
(480,-6,l)
);
},
{
closed = 1;
nodes = (
(122,-15,o),
(140,7,o),
(148,19,c),
(128,70,o),
(125,95,o),
(125,159,cs),
(125,629,ls),
(125,680,o),
(131,711,o),
(87,711,cs),
(69,711,o),
(55,705,o),
(41,695,c),
(53,645,o),
(58,585,o),
(58,533,cs),
(58,65,ls),
(58,-8,o),
(85,-15,o),
(102,-15,cs)
);
},
{
closed = 1;
nodes = (
(492,-19,o),
(554,-14,o),
(569,8,c),
(563,54,o),
(562,95,o),
(562,159,cs),
(562,653,ls),
(562,690,o),
(549,715,o),
(509,715,cs),
(490,715,o),
(468,708,o),
(454,695,c),
(474,644,o),
(477,577,o),
(477,540,cs),
(477,-2,l)
);
}
);
width = 600;
},
{
associatedMasterId = "60CFBDE8-BC08-4808-BF41-F011F3E03A54";
layerId = "DF640FA2-F285-4D30-9784-1DC9114087DE";
name = "Bold Aug 24 15, 17:25";
shapes = (
{
closed = 1;
nodes = (
(534,214,l),
(128,707,l),
(69,492,l),
(484,-10,l)
);
},
{
closed = 1;
nodes = (
(488,-13,o),
(503,-17,o),
(520,-16,cs),
(541,-15,o),
(565,-8,o),
(573,4,c),
(567,50,o),
(566,91,o),
(566,155,cs),
(566,653,ls),
(566,690,o),
(553,715,o),
(513,715,cs),
(494,715,o),
(472,708,o),
(458,695,c),
(478,644,o),
(481,577,o),
(481,540,cs),
(481,-6,l)
);
},
{
closed = 1;
nodes = (
(114,722,o),
(53,717,o),
(38,695,c),
(44,649,o),
(45,608,o),
(45,544,cs),
(45,46,ls),
(45,9,o),
(58,-16,o),
(98,-16,cs),
(117,-16,o),
(139,-9,o),
(153,4,c),
(133,55,o),
(130,122,o),
(130,159,cs),
(129,705,l)
);
}
);
width = 600;
},
{
associatedMasterId = "60CFBDE8-BC08-4808-BF41-F011F3E03A54";
layerId = "CE396486-64E2-407F-BB16-99A69420A5D3";
name = "Bold Aug 25 15, 13:48";
shapes = (
{
closed = 1;
nodes = (
(534,214,l),
(128,707,l),
(69,492,l),
(484,-10,l)
);
},
{
closed = 1;
nodes = (
(117,-16,o),
(139,-9,o),
(153,4,c),
(133,55,o),
(130,122,o),
(130,159,cs),
(129,705,l),
(114,722,o),
(53,717,o),
(38,695,c),
(44,649,o),
(45,608,o),
(45,544,cs),
(45,46,ls),
(45,9,o),
(58,-16,o),
(98,-16,cs)
);
},
{
closed = 1;
nodes = (
(541,-15,o),
(565,-8,o),
(573,4,c),
(567,50,o),
(566,91,o),
(566,155,cs),
(566,540,ls),
(566,577,o),
(569,644,o),
(589,695,c),
(575,708,o),
(553,715,o),
(534,715,cs),
(494,715,o),
(481,690,o),
(481,653,cs),
(481,-6,l),
(488,-13,o),
(503,-17,o),
(520,-16,cs)
);
}
);
width = 600;
},
{
associatedMasterId = "60CFBDE8-BC08-4808-BF41-F011F3E03A54";
background = {
shapes = (
{
closed = 1;
nodes = (
(534,214,l),
(128,707,l),
(69,492,l),
(484,-10,l)
);
},
{
closed = 1;
nodes = (
(117,-16,o),
(139,-9,o),
(153,4,c),
(133,55,o),
(130,122,o),
(130,159,cs),
(129,705,l),
(114,722,o),
(53,717,o),
(38,695,c),
(44,649,o),
(45,608,o),
(45,544,cs),
(45,46,ls),
(45,9,o),
(58,-16,o),
(98,-16,cs)
);
},
{
closed = 1;
nodes = (
(541,-15,o),
(565,-8,o),
(573,4,c),
(567,50,o),
(566,91,o),
(566,155,cs),
(566,540,ls),
(566,577,o),
(569,644,o),
(589,695,c),
(575,708,o),
(553,715,o),
(534,715,cs),
(494,715,o),
(481,690,o),
(481,653,cs),
(481,-6,l),
(488,-13,o),
(503,-17,o),
(520,-16,cs)
);
}
);
};
layerId = "413A57FF-19E1-4CFF-89F5-581FAFA0185E";
name = "Bold Aug 25 15, 13:48";
shapes = (
{
closed = 1;
nodes = (
(556,206,l),
(526,297,o),
(299,530,o),
(173,707,c),
(173,706,l),
(152,722,o),
(81,716,o),
(63,695,c),
(69,649,o),
(70,608,o),
(70,544,cs),
(70,159,ls),
(70,122,o),
(67,55,o),
(47,4,c),
(66,-9,o),
(90,-16,o),
(112,-16,cs),
(163,-16,o),
(208,21,o),
(205,76,cs),
(157,469,l),
(206,358,o),
(411,131,o),
(532,-10,c),
(532,-9,l),
(559,-23,o),
(625,-15,o),
(641,4,c),
(635,50,o),
(633,91,o),
(634,155,cs),
(641,620,ls),
(642,676,o),
(618,712,o),
(548,712,cs),
(526,712,o),
(500,705,o),
(483,692,c),
(503,640,o),
(508,596,o),
(512,565,cs)
);
}
);
width = 698;
},
{
associatedMasterId = "60CFBDE8-BC08-4808-BF41-F011F3E03A54";
background = {
shapes = (
{
closed = 1;
nodes = (
(157,469,l),
(206,358,o),
(411,131,o),
(532,-10,c),
(532,-9,l),
(559,-23,o),
(625,-15,o),
(641,4,c),
(635,50,o),
(634,91,o),
(634,155,cs),
(635,540,ls),
(635,577,o),
(638,644,o),
(658,695,c),
(641,708,o),
(615,715,o),
(593,715,cs),
(523,715,o),
(492,678,o),
(500,623,cs),
(556,206,l),
(526,297,o),
(299,530,o),
(173,707,c),
(173,706,l),
(152,722,o),
(81,716,o),
(63,695,c),
(69,649,o),
(70,608,o),
(70,544,cs),
(70,159,ls),
(70,122,o),
(67,55,o),
(47,4,c),
(66,-9,o),
(90,-16,o),
(112,-16,cs),
(163,-16,o),
(208,21,o),
(205,76,cs)
);
}
);
};
layerId = "7D27369B-35FA-4205-BCA7-875A0B44D693";
name = "Bold Aug 25 15, 13:54";
shapes = (
{
closed = 1;
nodes = (
(157,469,l),
(206,358,o),
(411,131,o),
(532,-10,c),
(532,-9,l),
(559,-23,o),
(625,-15,o),
(641,4,c),
(635,50,o),
(634,91,o),
(634,155,cs),
(635,540,ls),
(635,577,o),
(638,644,o),
(658,695,c),
(641,708,o),
(615,715,o),
(593,715,cs),
(539,715,o),
(511,678,o),
(516,623,cs),
(554,206,l),
(524,297,o),
(299,530,o),
(173,707,c),
(173,706,l),
(152,722,o),
(81,716,o),
(63,695,c),
(69,649,o),
(70,608,o),
(70,544,cs),
(70,159,ls),
(70,122,o),
(67,55,o),
(47,4,c),
(66,-9,o),
(90,-16,o),
(112,-16,cs),
(146,-16,o),
(192,21,o),
(188,76,cs)
);
}
);
width = 703;
},
{
associatedMasterId = "60CFBDE8-BC08-4808-BF41-F011F3E03A54";
layerId = "53F48AFE-8BAF-46DF-8E7E-D88BDB167051";
name = "Light Aug 25 15, 13:55";
shapes = (
{
closed = 1;
nodes = (
(137,-8,o),
(142,-4,o),
(146,0,c),
(142,16,o),
(140,47,o),
(140,87,cs),
(138,673,ls),
(138,687,o),
(132,695,o),
(121,695,cs),
(112,695,o),
(107,691,o),
(103,687,c),
(107,671,o),
(109,640,o),
(109,600,cs),
(111,14,ls),
(111,0,o),
(117,-8,o),
(128,-8,cs)
);
},
{
closed = 1;
nodes = (
(583,-8,o),
(588,-4,o),
(592,0,c),
(588,16,o),
(586,47,o),
(586,87,cs),
(584,673,ls),
(584,687,o),
(578,695,o),
(567,695,cs),
(558,695,o),
(553,691,o),
(549,687,c),
(553,671,o),
(555,640,o),
(555,600,cs),
(557,14,ls),
(557,0,o),
(563,-8,o),
(574,-8,cs)
);
},
{
closed = 0;
nodes = (
(582,17,l),
(471,174,o),
(236,538,o),
(136,686,c),
(133,692,o),
(128,695,o),
(121,695,cs),
(113,695,o),
(109,691,o),
(105,687,c),
(109,671,o),
(111,640,o),
(111,600,cs)
);
},
{
closed = 0;
nodes = (
(138,635,l),
(134,629,l),
(224,500,o),
(442,155,o),
(563,-8,c)
);
}
);
width = 674;
},
{
associatedMasterId = "60CFBDE8-BC08-4808-BF41-F011F3E03A54";
layerId = "9CC00490-F21A-4848-860F-5C49920E5722";
name = "Light Aug 25 15, 13:56";
shapes = (
{
closed = 1;
nodes = (
(137,-8,o),
(142,-4,o),
(146,0,c),
(142,16,o),
(140,47,o),
(140,87,cs),
(138,673,ls),
(138,687,o),
(132,695,o),
(121,695,cs),
(112,695,o),
(107,691,o),
(103,687,c),
(107,671,o),
(109,630,o),
(109,590,cs),
(111,14,ls),
(111,0,o),
(117,-8,o),
(128,-8,cs)
);
},
{
closed = 1;
nodes = (
(583,-8,o),
(588,-4,o),
(592,0,c),
(588,16,o),
(586,47,o),
(586,87,cs),
(584,673,ls),
(584,687,o),
(578,695,o),
(567,695,cs),
(558,695,o),
(553,691,o),
(549,687,c),
(553,671,o),
(555,640,o),
(555,600,cs),
(557,14,ls),
(557,0,o),
(563,-8,o),
(574,-8,cs)
);
},
{
closed = 1;
nodes = (
(132,629,l),
(222,500,o),
(440,155,o),
(561,-8,c),
(580,17,l),
(469,174,o),
(234,538,o),
(134,686,c),
(131,692,o),
(126,695,o),
(119,695,cs),
(111,695,o),
(107,691,o),
(103,687,c),
(107,671,o),
(136,675,o),
(136,635,c)
);
}
);
width = 674;
},
{
associatedMasterId = "60CFBDE8-BC08-4808-BF41-F011F3E03A54";
background = {
shapes = (
{
closed = 1;
nodes = (
(534,214,l),
(128,707,l),
(69,492,l),
(484,-10,l)
);
},
{
closed = 1;
nodes = (
(117,-16,o),
(139,-9,o),
(153,4,c),
(133,55,o),
(130,122,o),
(130,159,cs),
(129,705,l),
(114,722,o),
(53,717,o),
(38,695,c),
(44,649,o),
(45,608,o),
(45,544,cs),
(45,46,ls),
(45,9,o),
(58,-16,o),
(98,-16,cs)
);
},
{
closed = 1;
nodes = (
(541,-15,o),
(565,-8,o),
(573,4,c),
(567,50,o),
(566,91,o),
(566,155,cs),
(566,540,ls),
(566,577,o),
(569,644,o),
(589,695,c),
(575,708,o),
(553,715,o),
(534,715,cs),
(494,715,o),
(481,690,o),
(481,653,cs),
(481,-6,l),
(488,-13,o),
(503,-17,o),
(520,-16,cs)
);
}
);
};
layerId = "730C3D68-D9FE-4F45-A9B3-BB00EB608AFD";
name = "Bold Aug 25 15, 13:48 Aug 25 15, 13:57";
shapes = (
{
closed = 1;
nodes = (
(157,469,l),
(206,358,o),
(411,131,o),
(532,-10,c),
(532,-9,l),
(559,-23,o),
(625,-15,o),
(641,4,c),
(635,50,o),
(634,91,o),
(634,155,cs),
(635,540,ls),
(635,577,o),
(638,644,o),
(658,695,c),
(641,708,o),
(615,715,o),
(593,715,cs),
(523,715,o),
(492,678,o),
(500,623,cs),
(556,206,l),
(526,297,o),
(299,530,o),
(173,707,c),
(173,706,l),
(152,722,o),
(81,716,o),
(63,695,c),
(69,649,o),
(70,608,o),
(70,544,cs),
(70,159,ls),
(70,122,o),
(67,55,o),
(47,4,c),
(66,-9,o),
(90,-16,o),
(112,-16,cs),
(163,-16,o),
(208,21,o),
(205,76,cs)
);
}
);
width = 698;
},
{
associatedMasterId = "60CFBDE8-BC08-4808-BF41-F011F3E03A54";
layerId = "2A326944-78F1-4CC0-A62B-2D24BCCD2942";
name = "Light Aug 25 15, 13:58";
shapes = (
{
closed = 1;
nodes = (
(588,16,o),
(586,47,o),
(586,87,cs),
(584,673,ls),
(584,687,o),
(578,695,o),
(567,695,cs),
(558,695,o),
(553,691,o),
(549,687,c),
(553,671,o),
(555,640,o),
(555,600,cs),
(557,50,l),
(445,218,o),
(232,540,o),
(137,681,c),
(133,698,o),
(116,700,o),
(103,687,c),
(107,671,o),
(109,630,o),
(109,590,cs),
(111,14,ls),
(111,0,o),
(117,-8,o),
(128,-8,cs),
(137,-8,o),
(142,-4,o),
(146,0,c),
(142,16,o),
(140,47,o),
(140,87,cs),
(138,620,l),
(250,431,o),
(497,88,o),
(564,-5,c),
(568,-9,o),
(584,-8,o),
(592,0,c)
);
}
);
width = 674;
},
{
associatedMasterId = "60CFBDE8-BC08-4808-BF41-F011F3E03A54";
layerId = "006C3722-5F74-4479-80F2-A807B6EAF025";
name = "Light Aug 25 15, 14:28";
shapes = (
{
closed = 1;
nodes = (
(123,-8,o),
(129,0,o),
(129,14,cs),
(127,629,l),
(234,460,o),
(484,90,o),
(553,-5,c),
(559,-7,o),
(572,-6,o),
(577,0,c),
(575,16,o),
(575,47,o),
(575,87,cs),
(573,673,ls),
(573,687,o),
(567,695,o),
(556,695,cs),
(547,695,o),
(542,691,o),
(538,687,c),
(542,671,o),
(544,640,o),
(544,600,cs),
(546,53,l),
(434,221,o),
(219,547,o),
(124,688,c),
(121,691,o),
(104,696,o),
(92,687,c),
(96,671,o),
(98,630,o),
(98,590,cs),
(100,87,ls),
(100,47,o),
(98,16,o),
(94,0,c),
(98,-4,o),
(103,-8,o),
(112,-8,cs)
);
}
);
width = 674;
},
{
associatedMasterId = "60CFBDE8-BC08-4808-BF41-F011F3E03A54";
background = {
shapes = (
{
closed = 1;
nodes = (
(163,469,l),
(212,358,o),
(417,131,o),
(538,-10,c),
(538,-9,l),
(565,-23,o),
(631,-15,o),
(647,4,c),
(641,50,o),
(640,91,o),
(640,155,cs),
(641,540,ls),
(641,577,o),
(644,644,o),
(664,695,c),
(647,708,o),
(621,715,o),
(599,715,cs),
(529,715,o),
(498,678,o),
(506,623,cs),
(562,206,l),
(532,297,o),
(305,530,o),
(179,707,c),
(179,706,l),
(158,722,o),
(87,716,o),
(69,695,c),
(75,649,o),
(76,608,o),
(76,544,cs),
(76,159,ls),
(76,122,o),
(73,55,o),
(53,4,c),
(72,-9,o),
(96,-16,o),
(118,-16,cs),
(169,-16,o),
(214,21,o),
(211,76,cs)
);
}
);
};
layerId = "7CD7F55D-F857-4B3F-84C3-0D0A5693741B";
name = "Bold Aug 26 15, 11:23";
shapes = (
{
closed = 1;
nodes = (
(159,-16,o),
(206,21,o),
(201,76,cs),
(165,469,l),
(201,388,o),
(269,305,o),
(540,-9,c),
(567,-23,o),
(633,-15,o),
(649,4,c),
(643,50,o),
(642,91,o),
(642,155,cs),
(643,540,ls),
(643,577,o),
(646,644,o),
(666,695,c),
(649,708,o),
(623,715,o),
(601,715,cs),
(542,715,o),
(513,678,o),
(519,623,cs),
(562,206,l),
(532,297,o),
(307,530,o),
(181,707,c),
(167,721,o),
(87,716,o),
(71,695,c),
(77,649,o),
(78,608,o),
(78,544,cs),
(78,159,ls),
(78,122,o),
(75,55,o),
(55,4,c),
(74,-9,o),
(98,-16,o),
(120,-16,cs)
);
}
);
width = 721;
},
{
anchors = (
{
name = bottom;
pos = (352,0);
},
{
name = top;
pos = (352,698);
}
);
layerId = "EBFFFCD3-BAE4-48A5-9442-B72A90AD34A8";
shapes = (
{
closed = 1;
nodes = (
(154,-15,o),
(193,17,o),
(189,65,cs),
(159,497,l),
(208,401,o),
(296,267,o),
(532,-8,c),
(555,-20,o),
(612,-13,o),
(626,3,c),
(620,44,o),
(619,83,o),
(619,143,cs),
(620,564,ls),
(620,596,o),
(621,653,o),
(636,695,cs),
(620,706,o),
(598,711,o),
(579,710,c),
(531,707,o),
(508,671,o),
(513,619,cs),
(549,179,l),
(504,284,o),
(293,533,o),
(172,704,c),
(160,716,o),
(91,712,o),
(76,694,c),
(81,653,o),
(83,612,o),
(83,552,cs),
(83,146,ls),
(83,109,o),
(80,48,o),
(63,3,c),
(79,-8,o),
(100,-15,o),
(120,-15,cs)
);
}
);
width = 699;
}
);
metricLeft = H;
metricRight = H;
unicode = 78;
},
{
glyphname = O;
kernLeft = O;
kernRight = O;
lastChange = "2022-05-18 16:36:30 +0000";
layers = (
{
anchors = (
{
name = bottom;
pos = (319,0);
},
{
name = center;
pos = (319,344);
},
{
name = ogonek;
pos = (566,10);
},
{
name = top;
pos = (319,688);
},
{
name = topleft;
pos = (30,688);
},
{
name = topright;
pos = (513,623);
}
);
layerId = "60CFBDE8-BC08-4808-BF41-F011F3E03A54";
shapes = (
{
closed = 1;
nodes = (
(476,-12,o),
(568,100,o),
(568,344,cs),
(568,588,o),
(476,700,o),
(319,700,cs),
(162,700,o),
(70,588,o),
(70,344,cs),
(70,100,o),
(162,-12,o),
(319,-12,cs)
);
},
{
closed = 1;
nodes = (
(183,16,o),
(102,118,o),
(102,344,cs),
(102,570,o),
(183,672,o),
(319,672,cs),
(455,672,o),
(536,570,o),
(536,344,cs),
(536,118,o),
(455,16,o),
(319,16,cs)
);
}
);
width = 638;
},
{
associatedMasterId = "60CFBDE8-BC08-4808-BF41-F011F3E03A54";
layerId = "690BED6D-FDB2-4253-8141-9D623DF559CE";
name = "Bold Aug 11 15, 17:22";
shapes = (
{
closed = 1;
nodes = (
(522,-15,o),
(633,110,o),
(633,350,cs),
(633,590,o),
(522,715,o),
(334,715,cs),
(146,715,o),
(35,590,o),
(35,350,cs),
(35,110,o),
(146,-15,o),
(334,-15,cs)
);
},
{
closed = 1;
nodes = (
(255,37,o),
(224,130,o),
(224,350,cs),
(224,570,o),
(255,663,o),
(334,663,cs),
(413,663,o),
(444,570,o),
(444,350,cs),
(444,130,o),
(413,37,o),
(334,37,cs)
);
}
);
width = 668;
},
{
associatedMasterId = "60CFBDE8-BC08-4808-BF41-F011F3E03A54";
layerId = "DD3BBF76-E38D-4A5B-8224-B6A26D52986B";
name = "Bold Aug 11 15, 17:23";
shapes = (
{
closed = 1;
nodes = (
(516,-15,o),
(624,110,o),
(624,350,cs),
(624,590,o),
(516,715,o),
(334,715,cs),
(152,715,o),
(45,590,o),
(45,350,cs),
(45,110,o),
(152,-15,o),
(334,-15,cs)
);
},
{
closed = 1;
nodes = (
(255,37,o),
(224,130,o),
(224,350,cs),
(224,570,o),
(255,663,o),
(334,663,cs),
(413,663,o),
(444,570,o),
(444,350,cs),
(444,130,o),
(413,37,o),
(334,37,cs)
);
}
);
width = 668;
},
{
associatedMasterId = "60CFBDE8-BC08-4808-BF41-F011F3E03A54";
layerId = "9F93C300-366D-45F9-A2AD-97F810B3F18D";
name = "Bold Aug 24 15, 17:27";
shapes = (
{
closed = 1;
nodes = (
(525,-15,o),
(624,110,o),
(624,350,cs),
(624,590,o),
(525,715,o),
(334,715,cs),
(144,715,o),
(45,590,o),
(45,350,cs),
(45,110,o),
(144,-15,o),
(334,-15,cs)
);
},
{
closed = 1;
nodes = (
(255,37,o),
(224,130,o),
(224,350,cs),
(224,570,o),
(255,663,o),
(334,663,cs),
(413,663,o),
(444,570,o),
(444,350,cs),
(444,130,o),
(413,37,o),
(334,37,cs)
);
}
);
width = 668;
},
{
anchors = (
{
name = bottom;
pos = (333,0);
},
{
name = center;
pos = (333,349);
},
{
name = ogonek;
pos = (598,10);
},
{
name = top;
pos = (333,698);
},
{
name = topleft;
pos = (22,698);
},
{
name = topright;
pos = (511,653);
}
);
layerId = "EBFFFCD3-BAE4-48A5-9442-B72A90AD34A8";
shapes = (
{
closed = 1;
nodes = (
(521,-14,o),
(619,108,o),
(619,349,cs),
(619,590,o),
(521,712,o),
(333,712,cs),
(145,712,o),
(47,590,o),
(47,349,cs),
(47,108,o),
(145,-14,o),
(333,-14,cs)
);
},
{
closed = 1;
nodes = (
(241,33,o),
(201,128,o),
(201,349,cs),
(201,570,o),
(241,665,o),
(333,665,cs),
(426,665,o),
(465,570,o),
(465,349,cs),
(465,128,o),
(426,33,o),
(333,33,cs)
);
}
);
width = 666;
}
);
unicode = 79;
},
{
glyphname = Ohorn;
kernLeft = O;
kernRight = O;
lastChange = "2022-05-18 16:36:30 +0000";
layers = (
{
anchors = (
{
name = bottom;
pos = (300,0);
},
{
name = center;
pos = (319,344);
},
{
name = ogonek;
pos = (566,10);
},
{
name = top;
pos = (300,688);
},
{
name = topleft;
pos = (30,688);
},
{
name = topright;
pos = (512,623);
}
);
layerId = "60CFBDE8-BC08-4808-BF41-F011F3E03A54";
shapes = (
{
closed = 1;
nodes = (
(476,-12,o),
(568,100,o),
(568,344,cs),
(568,588,o),
(476,700,o),
(319,700,cs),
(162,700,o),
(70,588,o),
(70,344,cs),
(70,100,o),
(162,-12,o),
(319,-12,cs)
);
},
{
closed = 1;
nodes = (
(183,16,o),
(102,118,o),
(102,344,cs),
(102,570,o),
(183,672,o),
(319,672,cs),
(455,672,o),
(536,570,o),
(536,344,cs),
(536,118,o),
(455,16,o),
(319,16,cs)
);
},
{
closed = 1;
nodes = (
(545,618,o),
(574,643,o),
(574,686,cs),
(574,703,o),
(568,728,o),
(551,746,c),
(538,741,o),
(526,732,o),
(518,725,c),
(534,706,o),
(536,689,o),
(536,680,cs),
(536,655,o),
(521,639,o),
(485,626,c),
(494,603,l)
);
}
);
width = 638;
},
{
anchors = (
{
name = bottom;
pos = (328,0);
},
{
name = center;
pos = (333,349);
},
{
name = ogonek;
pos = (598,10);
},
{
name = top;
pos = (331,698);
},
{
name = topleft;
pos = (22,698);
},
{
name = topright;
pos = (516,653);
}
);
layerId = "EBFFFCD3-BAE4-48A5-9442-B72A90AD34A8";
shapes = (
{
closed = 1;
nodes = (
(521,-14,o),
(619,108,o),
(619,349,cs),
(619,590,o),
(521,712,o),
(333,712,cs),
(145,712,o),
(47,590,o),
(47,349,cs),
(47,108,o),
(145,-14,o),
(333,-14,cs)
);
},
{
closed = 1;
nodes = (
(241,33,o),
(201,128,o),
(201,349,cs),
(201,570,o),
(241,665,o),
(333,665,cs),
(426,665,o),
(465,570,o),
(465,349,cs),
(465,128,o),
(426,33,o),
(333,33,cs)
);
},
{
closed = 1;
nodes = (
(567,645,o),
(632,687,o),
(632,742,cs),
(632,776,o),
(616,812,o),
(604,825,c),
(579,822,o),
(530,800,o),
(512,787,c),
(523,775,o),
(535,752,o),
(535,729,cs),
(535,704,o),
(522,679,o),
(477,663,c),
(494,620,l)
);
}
);
width = 666;
}
);
unicode = 416;
},
{
glyphname = Oslash;
kernLeft = O;
kernRight = O;
lastChange = "2022-05-18 16:36:30 +0000";
layers = (
{
anchors = (
{
name = bottom;
pos = (309,0);
},
{
name = center;
pos = (319,344);
},
{
name = ogonek;
pos = (566,10);
},
{
name = top;
pos = (309,688);
},
{
name = topleft;
pos = (30,688);
},
{
name = topright;
pos = (513,623);
}
);
layerId = "60CFBDE8-BC08-4808-BF41-F011F3E03A54";
shapes = (
{
closed = 1;
nodes = (
(92,-9,o),
(100,-13,o),
(110,-13,c),
(517,688,l),
(513,696,o),
(506,701,o),
(496,701,c),
(88,-1,l)
);
},
{
closed = 1;
nodes = (
(476,-12,o),
(568,100,o),
(568,344,cs),
(568,588,o),
(476,700,o),
(319,700,cs),
(162,700,o),
(70,588,o),
(70,344,cs),
(70,100,o),
(162,-12,o),
(319,-12,cs)
);
},
{
closed = 1;
nodes = (
(183,16,o),
(102,118,o),
(102,344,cs),
(102,570,o),
(183,672,o),
(319,672,cs),
(455,672,o),
(536,570,o),
(536,344,cs),
(536,118,o),
(455,16,o),
(319,16,cs)
);
}
);
width = 618;
},
{
anchors = (
{
name = bottom;
pos = (331,0);
},
{
name = center;
pos = (333,349);
},
{
name = ogonek;
pos = (598,10);
},
{
name = top;
pos = (331,698);
},
{
name = topleft;
pos = (22,698);
},
{
name = topright;
pos = (511,653);
}
);
layerId = "EBFFFCD3-BAE4-48A5-9442-B72A90AD34A8";
shapes = (
{
closed = 1;
nodes = (
(92,-7,o),
(106,-15,o),
(125,-15,c),
(558,706,l),
(549,723,o),
(535,732,o),
(515,731,c),
(82,10,l)
);
},
{
closed = 1;
nodes = (
(521,-14,o),
(619,108,o),
(619,349,cs),
(619,590,o),
(521,712,o),
(333,712,cs),
(145,712,o),
(47,590,o),
(47,349,cs),
(47,108,o),
(145,-14,o),
(333,-14,cs)
);
},
{
closed = 1;
nodes = (
(241,33,o),
(201,128,o),
(201,349,cs),
(201,570,o),
(241,665,o),
(333,665,cs),
(426,665,o),
(465,570,o),
(465,349,cs),
(465,128,o),
(426,33,o),
(333,33,cs)
);
}
);
width = 662;
}
);
unicode = 216;
},
{
glyphname = OE;
kernLeft = O;
kernRight = E;
lastChange = "2022-05-18 16:36:30 +0000";
layers = (
{
anchors = (
{
name = top;
pos = (435,688);
}
);
layerId = "60CFBDE8-BC08-4808-BF41-F011F3E03A54";
shapes = (
{
closed = 1;
nodes = (
(471,85,l),
(434,38,o),
(383,16,o),
(319,16,cs),
(183,16,o),
(102,118,o),
(102,344,cs),
(102,570,o),
(183,672,o),
(319,672,cs),
(380,672,o),
(430,651,o),
(467,608,c),
(470,649,l),
(431,683,o),
(380,700,o),
(319,700,cs),
(162,700,o),
(70,588,o),
(70,344,cs),
(70,100,o),
(162,-12,o),
(319,-12,cs),
(382,-12,o),
(435,6,o),
(475,44,c)
);
},
{
closed = 1;
nodes = (
(789,0,l),
(801,0,o),
(799,22,o),
(789,26,c),
(687,26,o),
(586,25,o),
(484,25,c),
(482,662,l),
(584,662,o),
(674,662,o),
(776,662,c),
(787,665,o),
(793,688,o),
(779,688,c),
(465,688,ls),
(456,688,o),
(451,685,o),
(447,680,c),
(451,664,o),
(453,640,o),
(453,600,cs),
(455,22,ls),
(455,8,o),
(461,0,o),
(472,0,cs)
);
},
{
closed = 1;
nodes = (
(757,354,l),
(760,363,o),
(760,371,o),
(757,380,c),
(477,380,l),
(477,354,l)
);
}
);
width = 869;
},
{
anchors = (
{
name = bottom;
pos = (300,0);
},
{
name = center;
pos = (336,350);
},
{
name = ogonek;
pos = (605,10);
},
{
name = top;
pos = (300,700);
},
{
name = topleft;
pos = (20,700);
},
{
name = topright;
pos = (511,659);
}
);
associatedMasterId = "60CFBDE8-BC08-4808-BF41-F011F3E03A54";
layerId = "D333D4B7-6731-4C99-8E6D-EB3CCEF396A2";
name = "Bold Sep 23 15, 16:11";
shapes = (
{
closed = 1;
nodes = (
(751,331,l),
(749,124,o),
(718,37,o),
(637,37,cs),
(554,37,o),
(523,130,o),
(523,350,cs),
(523,570,o),
(554,663,o),
(637,663,cs),
(716,663,o),
(748,579,o),
(751,382,c),
(862,415,l),
(842,605,o),
(810,715,o),
(637,715,cs),
(442,715,o),
(343,590,o),
(343,350,cs),
(343,110,o),
(442,-15,o),
(637,-15,cs),
(816,-15,o),
(847,128,o),
(862,331,c)
);
},
{
pos = (672,0);
ref = E;
}
);
width = 1233;
},
{
anchors = (
{
name = top;
pos = (459,698);
}
);
layerId = "EBFFFCD3-BAE4-48A5-9442-B72A90AD34A8";
shapes = (
{
closed = 1;
nodes = (
(467,279,l),
(459,101,o),
(411,33,o),
(333,33,cs),
(241,33,o),
(201,128,o),
(201,349,cs),
(201,570,o),
(241,665,o),
(333,665,cs),
(409,665,o),
(445,618,o),
(453,461,c),
(545,456,l),
(522,619,o),
(486,712,o),
(333,712,cs),
(145,712,o),
(47,590,o),
(47,349,cs),
(47,108,o),
(145,-14,o),
(333,-14,cs),
(492,-14,o),
(526,106,o),
(546,280,c)
);
},
{
closed = 1;
nodes = (
(848,0,l),
(893,0,o),
(891,103,o),
(856,125,c),
(803,98,o),
(678,69,o),
(590,66,c),
(589,632,l),
(676,629,o),
(762,608,o),
(831,576,c),
(868,593,o),
(884,698,o),
(846,698,c),
(557,698,ls),
(494,698,o),
(465,693,o),
(430,663,c),
(447,618,o),
(450,572,o),
(450,533,cs),
(450,71,ls),
(450,26,o),
(484,0,o),
(530,0,cs)
);
},
{
closed = 1;
nodes = (
(801,324,l),
(806,345,o),
(808,373,o),
(801,398,c),
(564,398,l),
(564,324,l)
);
}
);
width = 921;
}
);
metricLeft = O;
metricRight = E;
unicode = 338;
},
{
glyphname = P;
kernLeft = H;
lastChange = "2022-05-18 16:36:30 +0000";
layers = (
{
anchors = (
{
name = bottom;
pos = (267,0);
},
{
name = top;
pos = (267,688);
}
);
layerId = "60CFBDE8-BC08-4808-BF41-F011F3E03A54";
shapes = (
{
closed = 1;
nodes = (
(136,-8,o),
(141,-4,o),
(145,0,c),
(140,17,o),
(138,78,o),
(138,87,cs),
(138,670,l),
(148,673,o),
(169,674,o),
(194,674,cs),
(367,674,o),
(442,624,o),
(442,498,cs),
(442,364,o),
(356,307,o),
(180,307,cs),
(141,307,o),
(129,307,o),
(116,309,c),
(123,283,l),
(137,282,o),
(150,282,o),
(169,282,cs),
(376,282,o),
(474,348,o),
(474,499,cs),
(474,632,o),
(397,700,o),
(203,700,cs),
(125,700,o),
(104,689,o),
(101,687,c),
(106,670,o),
(108,609,o),
(108,600,cs),
(108,14,ls),
(109,0,o),
(115,-8,o),
(127,-8,cs)
);
}
);
width = 535;
},
{
associatedMasterId = "60CFBDE8-BC08-4808-BF41-F011F3E03A54";
layerId = "E9D05D1C-EBF6-443A-B900-CA1A37F4DB9F";
name = "Bold Aug 11 15, 16:59";
shapes = (
{
closed = 1;
nodes = (
(167,715,o),
(97,704,o),
(47,680,c),
(67,629,o),
(70,578,o),
(70,540,cs),
(70,65,ls),
(70,14,o),
(110,-16,o),
(163,-16,cs),
(208,-16,o),
(243,7,o),
(256,19,c),
(236,66,o),
(233,111,o),
(233,149,cs),
(233,668,l),
(271,668,ls),
(358,668,o),
(386,593,o),
(386,503,cs),
(386,388,o),
(332,310,o),
(227,310,c),
(227,263,l),
(450,263,o),
(570,359,o),
(570,506,cs),
(570,653,o),
(452,715,o),
(251,715,cs)
);
}
);
width = 590;
},
{
associatedMasterId = "60CFBDE8-BC08-4808-BF41-F011F3E03A54";
layerId = "518F333F-A522-48F0-9D28-D1CE72346C26";
name = "Light Aug 24 15, 17:08";
shapes = (
{
closed = 1;
nodes = (
(126,-8,o),
(131,-4,o),
(135,0,c),
(130,17,o),
(128,78,o),
(128,87,cs),
(128,672,l),
(138,675,o),
(158,676,o),
(186,676,cs),
(357,676,o),
(432,625,o),
(432,500,cs),
(432,361,o),
(339,304,o),
(170,304,cs),
(131,304,o),
(119,304,o),
(106,306,c),
(113,277,l),
(127,276,o),
(140,276,o),
(159,276,cs),
(364,276,o),
(464,342,o),
(464,495,cs),
(464,632,o),
(391,700,o),
(189,700,cs),
(117,700,o),
(94,689,o),
(91,687,c),
(96,670,o),
(98,609,o),
(98,600,cs),
(98,14,ls),
(99,0,o),
(105,-8,o),
(117,-8,cs)
);
}
);
width = 530;
},
{
anchors = (
{
name = bottom;
pos = (293,0);
},
{
name = top;
pos = (293,698);
}
);
layerId = "EBFFFCD3-BAE4-48A5-9442-B72A90AD34A8";
shapes = (
{
closed = 1;
nodes = (
(202,-15,o),
(231,5,o),
(243,16,c),
(225,57,o),
(223,105,o),
(223,138,cs),
(223,663,l),
(231,664,o),
(241,664,o),
(252,664,cs),
(364,664,o),
(401,594,o),
(401,495,cs),
(401,391,o),
(362,317,o),
(239,317,cs),
(223,317,o),
(211,317,o),
(198,319,c),
(205,271,l),
(219,270,o),
(232,270,o),
(246,270,cs),
(443,270,o),
(554,355,o),
(554,505,cs),
(554,653,o),
(444,712,o),
(249,712,cs),
(166,712,o),
(105,701,o),
(63,681,c),
(80,636,o),
(83,583,o),
(83,551,cs),
(83,56,ls),
(83,12,o),
(117,-15,o),
(163,-15,cs)
);
}
);
width = 586;
}
);
metricLeft = H;
unicode = 80;
},
{
glyphname = Thorn;
kernLeft = H;
lastChange = "2022-05-18 16:36:30 +0000";
layers = (
{
anchors = (
{
name = bottom;
pos = (300,0);
},
{
name = top;
pos = (300,688);
}
);
background = {
shapes = (
{
closed = 1;
nodes = (
(108,546,l),
(108,14,ls),
(109,0,o),
(115,-8,o),
(127,-8,cs),
(136,-8,o),
(141,-4,o),
(145,0,c),
(140,17,o),
(138,78,o),
(138,87,cs),
(138,546,l)
);
}
);
};
layerId = "60CFBDE8-BC08-4808-BF41-F011F3E03A54";
shapes = (
{
closed = 1;
nodes = (
(376,152,o),
(474,218,o),
(474,369,cs),
(474,502,o),
(397,570,o),
(203,570,cs),
(183,570,o),
(137,569,o),
(123,568,c),
(122,542,l),
(133,544,o),
(178,544,o),
(194,544,cs),
(367,544,o),
(442,494,o),
(442,368,cs),
(442,234,o),
(356,177,o),
(180,177,cs),
(141,177,o),
(129,177,o),
(116,179,c),
(123,153,l),
(137,152,o),
(150,152,o),
(169,152,cs)
);
},
{
closed = 1;
nodes = (
(135,-8,o),
(140,-4,o),
(144,0,c),
(140,16,o),
(138,47,o),
(138,87,cs),
(136,673,ls),
(136,687,o),
(130,695,o),
(119,695,cs),
(110,695,o),
(105,691,o),
(101,687,c),
(105,671,o),
(107,640,o),
(107,600,cs),
(109,14,ls),
(109,0,o),
(115,-8,o),
(126,-8,cs)
);
}
);
width = 534;
},
{
anchors = (
{
name = bottom;
pos = (300,0);
},
{
name = top;
pos = (300,698);
}
);
layerId = "EBFFFCD3-BAE4-48A5-9442-B72A90AD34A8";
shapes = (
{
closed = 1;
nodes = (
(442,140,o),
(553,225,o),
(553,375,cs),
(553,523,o),
(443,582,o),
(249,582,cs),
(238,582,o),
(204,582,o),
(194,582,c),
(194,535,l),
(203,536,o),
(243,534,o),
(252,534,cs),
(363,534,o),
(400,464,o),
(400,365,cs),
(400,261,o),
(362,187,o),
(239,187,cs),
(223,187,o),
(211,187,o),
(198,189,c),
(205,141,l),
(219,140,o),
(232,140,o),
(246,140,cs)
);
},
{
closed = 1;
nodes = (
(202,-15,o),
(231,5,o),
(243,16,c),
(225,60,o),
(223,108,o),
(223,146,cs),
(222,641,ls),
(222,685,o),
(188,711,o),
(143,711,cs),
(104,711,o),
(75,692,o),
(63,681,c),
(80,636,o),
(83,589,o),
(83,551,cs),
(83,56,ls),
(83,12,o),
(117,-15,o),
(163,-15,cs)
);
}
);
width = 586;
}
);
unicode = 222;
},
{
glyphname = Q;
kernLeft = O;
kernRight = O;
lastChange = "2022-05-18 16:36:30 +0000";
layers = (
{
anchors = (
{
name = bottom;
pos = (316,0);
},
{
name = top;
pos = (316,688);
}
);
background = {
shapes = (
{
closed = 1;
nodes = (
(476,-12,o),
(568,100,o),
(568,344,cs),
(568,588,o),
(476,700,o),
(319,700,cs),
(162,700,o),
(70,588,o),
(70,344,cs),
(70,100,o),
(162,-12,o),
(319,-12,cs)
);
},
{
closed = 1;
nodes = (
(183,16,o),
(102,118,o),
(102,344,cs),
(102,570,o),
(183,672,o),
(319,672,cs),
(455,672,o),
(536,570,o),
(536,344,cs),
(536,118,o),
(455,16,o),
(319,16,cs)
);
}
);
};
layerId = "60CFBDE8-BC08-4808-BF41-F011F3E03A54";
shapes = (
{
closed = 1;
nodes = (
(557,-134,o),
(603,-102,o),
(603,-46,cs),
(603,-33,o),
(592,-18,o),
(574,-22,c),
(582,-74,o),
(539,-106,o),
(481,-106,cs),
(407,-108,o),
(334,-53,o),
(271,-7,c),
(283,-10,o),
(306,-12,o),
(319,-12,cs),
(476,-12,o),
(568,100,o),
(568,344,cs),
(568,588,o),
(476,700,o),
(319,700,cs),
(162,700,o),
(70,588,o),
(70,344,cs),
(70,184,o),
(113,81,o),
(192,21,cs),
(268,-37,o),
(370,-137,o),
(484,-134,cs)
);
},
{
closed = 1;
nodes = (
(183,16,o),
(102,118,o),
(102,344,cs),
(102,570,o),
(183,672,o),
(319,672,cs),
(455,672,o),
(536,570,o),
(536,344,cs),
(536,118,o),
(455,16,o),
(319,16,cs)
);
}
);
width = 638;
},
{
associatedMasterId = "60CFBDE8-BC08-4808-BF41-F011F3E03A54";
background = {
shapes = (
{
closed = 1;
nodes = (
(522,-15,o),
(633,110,o),
(633,350,cs),
(633,590,o),
(522,715,o),
(334,715,cs),
(146,715,o),
(35,590,o),
(35,350,cs),
(35,110,o),
(146,-15,o),
(334,-15,cs)
);
},
{
closed = 1;
nodes = (
(255,37,o),
(224,130,o),
(224,350,cs),
(224,570,o),
(255,663,o),
(334,663,cs),
(413,663,o),
(444,570,o),
(444,350,cs),
(444,130,o),
(413,37,o),
(334,37,cs)
);
}
);
};
layerId = "7A20C54A-B8FF-48F9-B46A-DEAA92ED55B1";
name = "Bold Aug 11 15, 17:23";
shapes = (
{
closed = 1;
nodes = (
(628,-174,o),
(666,-130,o),
(666,-86,cs),
(666,-36,o),
(635,-7,o),
(585,2,c),
(565,-35,o),
(500,-54,o),
(432,-54,cs),
(376,-54,o),
(295,-38,o),
(256,-3,c),
(285,-13,o),
(310,-15,o),
(333,-15,cs),
(511,-15,o),
(633,124,o),
(633,350,cs),
(633,590,o),
(522,715,o),
(334,715,cs),
(146,715,o),
(35,590,o),
(35,349,cs),
(35,136,o),
(136,27,o),
(260,-61,cs),
(355,-128,o),
(477,-174,o),
(557,-174,cs)
);
},
{
closed = 1;
nodes = (
(233,37,o),
(224,166,o),
(224,321,cs),
(224,546,o),
(243,663,o),
(333,663,cs),
(413,663,o),
(444,570,o),
(444,351,cs),
(444,128,o),
(412,37,o),
(330,37,cs)
);
}
);
width = 669;
},
{
associatedMasterId = "60CFBDE8-BC08-4808-BF41-F011F3E03A54";
background = {
shapes = (
{
closed = 1;
nodes = (
(522,-15,o),
(633,110,o),
(633,350,cs),
(633,590,o),
(522,715,o),
(334,715,cs),
(146,715,o),
(35,590,o),
(35,350,cs),
(35,110,o),
(146,-15,o),
(334,-15,cs)
);
},
{
closed = 1;
nodes = (
(255,37,o),
(224,130,o),
(224,350,cs),
(224,570,o),
(255,663,o),
(334,663,cs),
(413,663,o),
(444,570,o),
(444,350,cs),
(444,130,o),
(413,37,o),
(334,37,cs)
);
}
);
};
layerId = "AD8294BD-D3D2-4B34-A3CE-53CCDF5DA2C9";
name = "Bold Aug 24 15, 17:10";
shapes = (
{
closed = 1;
nodes = (
(628,-174,o),
(666,-130,o),
(666,-86,cs),
(666,-36,o),
(635,-7,o),
(585,2,c),
(565,-35,o),
(500,-54,o),
(432,-54,cs),
(376,-54,o),
(295,-38,o),
(256,-3,c),
(285,-13,o),
(310,-15,o),
(333,-15,cs),
(511,-15,o),
(633,124,o),
(633,350,cs),
(633,590,o),
(522,715,o),
(334,715,cs),
(146,715,o),
(35,590,o),
(35,349,cs),
(35,136,o),
(136,27,o),
(260,-61,cs),
(355,-128,o),
(477,-174,o),
(557,-174,cs)
);
},
{
closed = 1;
nodes = (
(233,37,o),
(224,166,o),
(224,321,cs),
(224,546,o),
(243,663,o),
(333,663,cs),
(413,663,o),
(444,570,o),
(444,351,cs),
(444,128,o),
(412,37,o),
(330,37,cs)
);
}
);
width = 669;
},
{
associatedMasterId = "60CFBDE8-BC08-4808-BF41-F011F3E03A54";
background = {
shapes = (
{
closed = 1;
nodes = (
(466,-12,o),
(558,100,o),
(558,344,cs),
(558,588,o),
(466,700,o),
(309,700,cs),
(152,700,o),
(60,588,o),
(60,344,cs),
(60,100,o),
(152,-12,o),
(309,-12,cs)
);
},
{
closed = 1;
nodes = (
(173,16,o),
(92,118,o),
(92,344,cs),
(92,570,o),
(173,672,o),
(309,672,cs),
(445,672,o),
(526,570,o),
(526,344,cs),
(526,118,o),
(445,16,o),
(309,16,cs)
);
}
);
};
layerId = "B9DF199A-464E-4092-9EB2-0F22D097DD75";
name = "Light Aug 24 15, 17:12";
shapes = (
{
closed = 1;
nodes = (
(547,-134,o),
(593,-102,o),
(593,-46,cs),
(593,-33,o),
(582,-18,o),
(564,-22,c),
(572,-74,o),
(529,-106,o),
(471,-106,cs),
(397,-108,o),
(317,-53,o),
(254,-7,c),
(266,-10,o),
(296,-12,o),
(309,-12,cs),
(466,-12,o),
(558,100,o),
(558,344,cs),
(558,588,o),
(466,700,o),
(309,700,cs),
(152,700,o),
(60,588,o),
(60,344,cs),
(60,184,o),
(103,81,o),
(182,21,cs),
(258,-37,o),
(360,-137,o),
(474,-134,cs)
);
},
{
closed = 1;
nodes = (
(173,16,o),
(92,118,o),
(92,344,cs),
(92,570,o),
(173,672,o),
(309,672,cs),
(445,672,o),
(526,570,o),
(526,344,cs),
(526,118,o),
(445,16,o),
(309,16,cs)
);
}
);
width = 600;
},
{
anchors = (
{
name = bottom;
pos = (335,0);
},
{
name = top;
pos = (335,698);
}
);
layerId = "EBFFFCD3-BAE4-48A5-9442-B72A90AD34A8";
shapes = (
{
closed = 1;
nodes = (
(621,-167,o),
(661,-125,o),
(661,-79,cs),
(661,-35,o),
(633,-9,o),
(589,-2,c),
(574,-42,o),
(515,-61,o),
(449,-61,cs),
(390,-61,o),
(323,-44,o),
(279,-7,c),
(299,-13,o),
(315,-14,o),
(336,-14,cs),
(511,-14,o),
(627,120,o),
(627,349,cs),
(627,590,o),
(520,712,o),
(337,712,cs),
(155,712,o),
(47,590,o),
(47,348,cs),
(47,144,o),
(133,37,o),
(249,-46,cs),
(340,-112,o),
(464,-167,o),
(550,-167,cs)
);
},
{
closed = 1;
nodes = (
(230,33,o),
(208,158,o),
(208,325,cs),
(208,550,o),
(238,665,o),
(336,665,cs),
(426,665,o),
(466,570,o),
(466,350,cs),
(466,126,o),
(425,33,o),
(334,33,cs)
);
}
);
width = 676;
}
);
metricLeft = O;
unicode = 81;
},
{
glyphname = R;
kernLeft = H;
kernRight = R;
lastChange = "2022-05-18 16:36:30 +0000";
layers = (
{
anchors = (
{
name = bottom;
pos = (286,0);
},
{
name = top;
pos = (252,688);
}
);
layerId = "60CFBDE8-BC08-4808-BF41-F011F3E03A54";
shapes = (
{
closed = 1;
nodes = (
(136,-8,o),
(141,-4,o),
(145,0,c),
(140,17,o),
(138,78,o),
(138,87,cs),
(138,670,l),
(150,673,o),
(173,674,o),
(206,674,cs),
(370,674,o),
(442,632,o),
(442,500,cs),
(442,388,o),
(349,328,o),
(249,328,cs),
(193,328,o),
(154,328,o),
(124,329,c),
(131,302,l),
(249,302,ls),
(355,302,o),
(371,250,o),
(391,200,cs),
(453,45,ls),
(466,12,o),
(490,-8,o),
(513,-8,cs),
(528,-8,o),
(555,1,o),
(555,22,cs),
(555,27,o),
(554,32,o),
(550,37,c),
(541,22,o),
(524,20,o),
(517,20,cs),
(502,20,o),
(492,29,o),
(479,61,cs),
(422,202,ls),
(398,262,o),
(372,321,o),
(307,321,c),
(312,312,l),
(406,329,o),
(474,401,o),
(474,505,cs),
(474,644,o),
(396,700,o),
(209,700,cs),
(130,700,o),
(104,689,o),
(101,687,c),
(106,670,o),
(108,609,o),
(108,600,cs),
(108,14,l),
(109,0,o),
(115,-8,o),
(127,-8,cs)
);
}
);
width = 572;
},
{
associatedMasterId = "60CFBDE8-BC08-4808-BF41-F011F3E03A54";
layerId = "6F059417-4673-40CD-A1B7-068C9B819456";
name = "Bold Aug 11 15, 17:16";
shapes = (
{
closed = 1;
nodes = (
(486,294,o),
(448,340,o),
(279,335,c),
(285,330,l),
(446,322,o),
(570,423,o),
(570,525,cs),
(570,659,o),
(452,715,o),
(254,715,cs),
(166,715,o),
(97,704,o),
(47,680,c),
(67,629,o),
(70,578,o),
(70,540,cs),
(70,65,ls),
(70,14,o),
(110,-16,o),
(163,-16,cs),
(208,-16,o),
(243,7,o),
(256,19,c),
(236,66,o),
(233,111,o),
(233,149,cs),
(233,668,l),
(271,668,ls),
(358,668,o),
(386,601,o),
(386,526,cs),
(386,424,o),
(329,359,o),
(217,359,c),
(217,312,l),
(303,312,o),
(325,283,o),
(366,158,cs),
(405,42,o),
(436,-15,o),
(524,-15,cs),
(581,-15,o),
(596,-3,o),
(624,17,c),
(586,49,o),
(572,99,o),
(537,184,cs)
);
}
);
width = 621;
},
{
associatedMasterId = "60CFBDE8-BC08-4808-BF41-F011F3E03A54";
layerId = "CC8B8398-AF65-4725-B3F4-683F4D5D907F";
name = "Bold Aug 11 15, 17:33";
shapes = (
{
closed = 1;
nodes = (
(486,318,o),
(483,366,o),
(324,361,c),
(285,340,l),
(449,334,o),
(560,412,o),
(560,539,cs),
(560,667,o),
(447,715,o),
(256,715,cs),
(165,715,o),
(97,704,o),
(47,680,c),
(67,629,o),
(70,578,o),
(70,540,cs),
(70,65,ls),
(70,14,o),
(110,-16,o),
(163,-16,cs),
(208,-16,o),
(243,7,o),
(256,19,c),
(236,66,o),
(233,111,o),
(233,149,cs),
(233,668,l),
(271,668,ls),
(353,668,o),
(380,601,o),
(380,527,cs),
(380,432,o),
(335,353,o),
(205,377,c),
(217,322,l),
(321,322,o),
(326,274,o),
(366,158,cs),
(404,49,o),
(432,-15,o),
(533,-15,cs),
(594,-15,o),
(630,0,o),
(652,30,c),
(599,65,o),
(592,97,o),
(554,184,cs)
);
}
);
width = 621;
},
{
associatedMasterId = "60CFBDE8-BC08-4808-BF41-F011F3E03A54";
layerId = "0C2C534B-429E-44D1-9B10-DA0CACD7C692";
name = "Bold Aug 11 15, 17:33";
shapes = (
{
closed = 1;
nodes = (
(494,321,o),
(483,366,o),
(324,361,c),
(285,340,l),
(449,334,o),
(560,412,o),
(560,539,cs),
(560,667,o),
(447,715,o),
(256,715,cs),
(165,715,o),
(97,704,o),
(47,680,c),
(67,629,o),
(70,578,o),
(70,540,cs),
(70,65,ls),
(70,14,o),
(110,-16,o),
(163,-16,cs),
(208,-16,o),
(243,7,o),
(256,19,c),
(236,66,o),
(233,111,o),
(233,149,cs),
(233,668,l),
(271,668,ls),
(353,668,o),
(380,601,o),
(380,527,cs),
(380,432,o),
(335,353,o),
(205,377,c),
(217,322,l),
(321,322,o),
(326,274,o),
(366,158,cs),
(404,49,o),
(432,-15,o),
(533,-15,cs),
(594,-15,o),
(653,30,o),
(638,110,c),
(616,97,o),
(592,97,o),
(554,184,cs)
);
}
);
width = 621;
},
{
associatedMasterId = "60CFBDE8-BC08-4808-BF41-F011F3E03A54";
layerId = "8F6BA0C9-E2A8-4E0A-8322-2EE942469B85";
name = "Bold Aug 24 15, 16:16";
shapes = (
{
closed = 1;
nodes = (
(208,-16,o),
(243,7,o),
(256,19,c),
(236,66,o),
(233,111,o),
(233,149,cs),
(233,668,l),
(246,668,o),
(258,668,o),
(271,668,cs),
(353,668,o),
(380,601,o),
(380,527,cs),
(380,441,o),
(347,367,o),
(256,363,cs),
(241,362,o),
(224,364,o),
(205,367,c),
(217,312,l),
(247,311,ls),
(306,309,o),
(326,267,o),
(345,217,cs),
(366,158,ls),
(409,50,o),
(432,-15,o),
(533,-15,cs),
(568,-15,o),
(624,11,o),
(624,71,cs),
(624,83,o),
(621,97,o),
(615,113,c),
(607,109,o),
(600,107,o),
(593,108,cs),
(572,109,o),
(554,132,o),
(532,184,c),
(494,266,ls),
(461,321,o),
(420,354,o),
(309,351,c),
(285,330,l),
(448,324,o),
(558,404,o),
(558,537,cs),
(558,665,o),
(446,715,o),
(256,715,cs),
(165,715,o),
(97,704,o),
(47,680,c),
(67,629,o),
(70,578,o),
(70,540,cs),
(70,65,ls),
(70,14,o),
(110,-16,o),
(163,-16,cs)
);
}
);
width = 621;
},
{
anchors = (
{
name = bottom;
pos = (343,0);
},
{
name = top;
pos = (309,698);
}
);
layerId = "EBFFFCD3-BAE4-48A5-9442-B72A90AD34A8";
shapes = (
{
closed = 1;
nodes = (
(202,-15,o),
(231,5,o),
(243,16,c),
(225,57,o),
(223,105,o),
(223,138,cs),
(223,664,l),
(235,665,o),
(249,665,o),
(266,665,cs),
(362,665,o),
(397,602,o),
(397,522,cs),
(397,432,o),
(354,360,o),
(261,357,cs),
(239,356,o),
(218,358,o),
(197,360,c),
(208,310,l),
(254,309,ls),
(321,308,o),
(340,264,o),
(360,214,cs),
(388,138,ls),
(426,43,o),
(449,-14,o),
(536,-14,cs),
(567,-14,o),
(618,9,o),
(618,62,cs),
(618,73,o),
(616,85,o),
(610,100,c),
(602,94,o),
(593,92,o),
(586,92,cs),
(566,93,o),
(549,114,o),
(529,162,cs),
(488,255,ls),
(456,311,o),
(418,348,o),
(315,346,c),
(296,327,l),
(447,325,o),
(550,403,o),
(550,531,cs),
(550,661,o),
(444,712,o),
(254,712,cs),
(165,712,o),
(105,701,o),
(63,681,c),
(80,636,o),
(83,583,o),
(83,551,cs),
(83,56,l),
(83,12,o),
(117,-15,o),
(163,-15,cs)
);
}
);
width = 630;
}
);
metricLeft = H;
unicode = 82;
},
{
glyphname = S;
kernLeft = S;
kernRight = S;
lastChange = "2022-05-18 16:36:30 +0000";
layers = (
{
anchors = (
{
name = bottom;
pos = (272,0);
},
{
name = top;
pos = (272,688);
}
);
guides = (
{
angle = 90;
pos = (221,302);
}
);
layerId = "60CFBDE8-BC08-4808-BF41-F011F3E03A54";
shapes = (
{
closed = 1;
nodes = (
(444,-12,o),
(484,80,o),
(484,155,cs),
(484,257,o),
(409,313,o),
(288,377,cs),
(212,418,o),
(122,458,o),
(122,554,cs),
(122,643,o),
(200,672,o),
(278,672,cs),
(361,672,o),
(434,639,o),
(434,564,cs),
(434,556,o),
(433,547,o),
(428,538,c),
(438,535,o),
(445,535,o),
(452,539,cs),
(462,545,o),
(465,554,o),
(465,570,cs),
(465,649,o),
(390,700,o),
(280,700,cs),
(177,700,o),
(90,655,o),
(90,550,cs),
(90,451,o),
(167,408,o),
(271,351,cs),
(386,288,o),
(452,245,o),
(452,155,cs),
(452,63,o),
(382,16,o),
(274,16,cs),
(172,16,o),
(99,58,o),
(99,153,cs),
(99,169,o),
(101,176,o),
(104,186,c),
(75,189,o),
(66,174,o),
(66,142,cs),
(66,61,o),
(126,-12,o),
(276,-12,cs)
);
}
);
width = 543;
},
{
associatedMasterId = "60CFBDE8-BC08-4808-BF41-F011F3E03A54";
layerId = "347C6ED7-FA26-4958-923B-B965B667BEF4";
name = "Bold Aug 11 15, 17:23";
shapes = (
{
closed = 1;
nodes = (
(431,-15,o),
(515,75,o),
(515,181,cs),
(515,304,o),
(401,370,o),
(322,422,cs),
(209,496,o),
(170,530,o),
(170,587,cs),
(170,648,o),
(216,664,o),
(255,664,cs),
(310,664,o),
(336,631,o),
(349,601,cs),
(358,580,o),
(362,557,o),
(362,533,c),
(374,531,o),
(391,530,o),
(402,530,cs),
(467,530,o),
(487,565,o),
(487,601,cs),
(487,679,o),
(393,715,o),
(275,715,cs),
(133,715,o),
(20,663,o),
(20,528,cs),
(20,407,o),
(112,349,o),
(232,270,cs),
(310,219,o),
(358,185,o),
(358,122,cs),
(358,61,o),
(313,39,o),
(265,39,cs),
(184,39,o),
(148,101,o),
(138,145,cs),
(134,163,o),
(132,186,o),
(136,203,c),
(36,218,o),
(5,172,o),
(5,123,cs),
(5,44,o),
(85,-15,o),
(240,-15,cs)
);
}
);
width = 540;
},
{
associatedMasterId = "60CFBDE8-BC08-4808-BF41-F011F3E03A54";
layerId = "850454C1-FD6B-49D9-9FF4-299DF5515364";
name = "Bold Aug 26 15, 10:42";
shapes = (
{
closed = 1;
nodes = (
(452,-16,o),
(535,74,o),
(535,181,cs),
(535,303,o),
(427,371,o),
(342,426,cs),
(228,500,o),
(190,535,o),
(190,588,cs),
(190,648,o),
(238,664,o),
(271,664,cs),
(319,664,o),
(343,631,o),
(356,601,cs),
(365,580,o),
(369,557,o),
(369,533,c),
(381,531,o),
(398,530,o),
(409,530,cs),
(474,530,o),
(494,565,o),
(494,601,cs),
(494,679,o),
(402,715,o),
(290,715,cs),
(156,715,o),
(40,663,o),
(40,529,cs),
(40,408,o),
(136,351,o),
(252,274,cs),
(333,220,o),
(378,186,o),
(378,123,cs),
(378,59,o),
(333,38,o),
(285,38,cs),
(204,38,o),
(168,100,o),
(158,144,cs),
(154,162,o),
(152,185,o),
(156,202,c),
(56,217,o),
(25,171,o),
(25,122,cs),
(25,43,o),
(105,-16,o),
(260,-16,cs)
);
}
);
width = 560;
},
{
anchors = (
{
name = bottom;
pos = (284,0);
},
{
name = top;
pos = (289,698);
}
);
layerId = "EBFFFCD3-BAE4-48A5-9442-B72A90AD34A8";
shapes = (
{
closed = 1;
nodes = (
(450,-15,o),
(536,75,o),
(536,184,cs),
(536,305,o),
(435,366,o),
(342,417,cs),
(220,485,o),
(188,521,o),
(188,582,cs),
(188,647,o),
(241,665,o),
(282,665,cs),
(350,665,o),
(383,632,o),
(394,594,cs),
(401,576,o),
(404,555,o),
(403,534,c),
(415,532,o),
(430,531,o),
(441,532,cs),
(496,533,o),
(513,563,o),
(513,596,cs),
(513,674,o),
(424,712,o),
(298,712,cs),
(170,712,o),
(59,662,o),
(59,533,cs),
(59,416,o),
(137,361,o),
(265,288,cs),
(355,237,o),
(401,203,o),
(401,135,cs),
(401,66,o),
(352,34,o),
(293,34,cs),
(200,34,o),
(158,93,o),
(149,146,cs),
(146,163,o),
(145,183,o),
(149,199,c),
(61,212,o),
(34,172,o),
(34,126,cs),
(34,46,o),
(110,-15,o),
(273,-15,cs)
);
}
);
width = 568;
}
);
unicode = 83;
},
{
glyphname = Germandbls;
kernLeft = Germandbls;
lastChange = "2022-05-18 16:36:30 +0000";
layers = (
{
layerId = "60CFBDE8-BC08-4808-BF41-F011F3E03A54";
shapes = (
{
closed = 1;
nodes = (
(458,-12,o),
(517,62,o),
(517,172,cs),
(517,304,o),
(432,363,o),
(337,386,c),
(418,458,o),
(458,535,o),
(489,643,c),
(448,682,o),
(378,700,o),
(288,700,cs),
(155,700,o),
(85,636,o),
(85,428,cs),
(85,14,ls),
(85,-1,o),
(86,-8,o),
(98,-8,cs),
(110,-8,o),
(117,-2,o),
(119,0,c),
(115,25,o),
(114,42,o),
(114,418,cs),
(114,604,o),
(167,672,o),
(283,672,cs),
(366,672,o),
(420,660,o),
(458,636,c),
(438,552,o),
(388,463,o),
(307,392,c),
(307,367,l),
(385,344,o),
(485,313,o),
(485,172,cs),
(485,92,o),
(454,14,o),
(347,14,cs),
(279,14,o),
(251,45,o),
(245,77,c),
(232,85,o),
(215,81,o),
(215,66,cs),
(215,47,o),
(243,-12,o),
(344,-12,cs)
);
}
);
width = 571;
},
{
layerId = "EBFFFCD3-BAE4-48A5-9442-B72A90AD34A8";
shapes = (
{
closed = 1;
nodes = (
(532,-14,o),
(614,60,o),
(614,175,cs),
(614,297,o),
(527,350,o),
(445,374,c),
(515,444,o),
(554,548,o),
(577,667,c),
(516,712,o),
(408,728,o),
(333,728,cs),
(161,728,o),
(61,638,o),
(63,394,cs),
(64,67,ls),
(64,17,o),
(102,-11,o),
(142,-11,cs),
(178,-11,o),
(212,10,o),
(223,19,c),
(201,69,o),
(200,82,o),
(199,271,cs),
(197,583,o),
(202,683,o),
(330,683,cs),
(368,683,o),
(407,676,o),
(433,650,c),
(422,569,o),
(395,472,o),
(322,385,c),
(322,355,l),
(415,324,o),
(467,286,o),
(467,156,cs),
(467,101,o),
(457,30,o),
(400,30,cs),
(361,30,o),
(337,57,o),
(341,137,c),
(296,145,o),
(266,121,o),
(266,79,cs),
(266,34,o),
(309,-14,o),
(406,-14,cs)
);
}
);
width = 648;
}
);
unicode = 7838;
},
{
glyphname = T;
kernLeft = T;
kernRight = T;
lastChange = "2022-05-18 16:36:30 +0000";
layers = (
{
anchors = (
{
name = bottom;
pos = (259,0);
},
{
name = center;
pos = (252,344);
},
{
name = top;
pos = (252,688);
}
);
background = {
shapes = (
{
closed = 1;
nodes = (
(267,-8,o),
(272,-4,o),
(276,0,c),
(272,16,o),
(270,46,o),
(270,87,cs),
(269,677,l),
(239,675,l),
(241,14,ls),
(241,0,o),
(247,-8,o),
(258,-8,cs)
);
},
{
closed = 1;
nodes = (
(99,662,o),
(175,662,o),
(250,662,cs),
(328,662,o),
(406,662,o),
(484,662,c),
(495,665,o),
(501,688,o),
(487,688,c),
(21,688,l),
(7,688,o),
(13,665,o),
(24,662,c)
);
}
);
};
layerId = "60CFBDE8-BC08-4808-BF41-F011F3E03A54";
shapes = (
{
closed = 1;
nodes = (
(265,-8,o),
(270,-4,o),
(274,0,c),
(270,16,o),
(268,46,o),
(268,87,cs),
(267,677,l),
(237,675,l),
(239,14,ls),
(239,0,o),
(245,-8,o),
(256,-8,cs)
);
},
{
closed = 1;
nodes = (
(103,662,o),
(176,662,o),
(248,662,cs),
(322,662,o),
(397,662,o),
(472,662,c),
(483,665,o),
(489,688,o),
(475,688,c),
(29,688,l),
(15,688,o),
(21,665,o),
(32,662,c)
);
}
);
width = 503;
},
{
associatedMasterId = "60CFBDE8-BC08-4808-BF41-F011F3E03A54";
layerId = "02F2EB44-98D2-4B19-B3D5-938E109B4FA2";
name = "Bold Aug 25 15, 14:06";
shapes = (
{
closed = 1;
nodes = (
(371,-16,o),
(406,7,o),
(419,19,c),
(399,70,o),
(396,121,o),
(396,159,cs),
(396,663,l),
(233,677,l),
(233,65,ls),
(233,14,o),
(273,-16,o),
(326,-16,cs)
);
},
{
closed = 1;
nodes = (
(115,596,o),
(228,649,o),
(315,649,cs),
(402,649,o),
(514,596,o),
(576,557,c),
(619,577,o),
(637,700,o),
(594,700,cs),
(35,700,ls),
(-8,700,o),
(10,577,o),
(53,557,c)
);
}
);
width = 632;
},
{
associatedMasterId = "60CFBDE8-BC08-4808-BF41-F011F3E03A54";
layerId = "F00E3473-3EDC-44FA-94B7-2744C6E300AD";
name = "Light Aug 25 15, 14:06";
shapes = (
{
closed = 1;
nodes = (
(312,-8,o),
(317,-4,o),
(321,0,c),
(317,16,o),
(315,46,o),
(315,87,cs),
(314,677,l),
(284,675,l),
(286,14,ls),
(286,0,o),
(292,-8,o),
(303,-8,cs)
);
},
{
closed = 1;
nodes = (
(144,662,o),
(220,662,o),
(295,662,cs),
(373,662,o),
(451,662,o),
(529,662,c),
(540,665,o),
(546,688,o),
(532,688,c),
(66,688,l),
(52,688,o),
(58,665,o),
(69,662,c)
);
}
);
width = 600;
},
{
anchors = (
{
name = bottom;
pos = (294,0);
},
{
name = center;
pos = (279,349);
},
{
name = top;
pos = (279,698);
}
);
layerId = "EBFFFCD3-BAE4-48A5-9442-B72A90AD34A8";
shapes = (
{
closed = 1;
nodes = (
(328,-15,o),
(357,5,o),
(369,16,c),
(351,60,o),
(349,108,o),
(349,146,cs),
(348,665,l),
(209,677,l),
(209,56,ls),
(209,12,o),
(243,-15,o),
(289,-15,cs)
);
},
{
closed = 1;
nodes = (
(110,608,o),
(202,651,o),
(279,651,cs),
(355,651,o),
(449,608,o),
(508,576,c),
(546,593,o),
(562,698,o),
(524,698,c),
(34,698,l),
(-4,698,o),
(12,593,o),
(49,576,c)
);
}
);
width = 557;
}
);
unicode = 84;
},
{
glyphname = U;
kernLeft = U;
kernRight = U;
lastChange = "2022-05-18 16:36:30 +0000";
layers = (
{
anchors = (
{
name = bottom;
pos = (321,0);
},
{
name = ogonek;
pos = (391,6);
},
{
name = top;
pos = (321,688);
},
{
name = topright;
pos = (547,690);
}
);
layerId = "60CFBDE8-BC08-4808-BF41-F011F3E03A54";
shapes = (
{
closed = 1;
nodes = (
(547,687,o),
(541,695,o),
(530,695,cs),
(521,695,o),
(516,691,o),
(512,687,c),
(516,671,o),
(518,640,o),
(518,600,cs),
(518,304,ls),
(518,115,o),
(450,16,o),
(320,16,cs),
(190,16,o),
(130,107,o),
(130,304,cs),
(130,673,ls),
(130,687,o),
(124,695,o),
(113,695,cs),
(104,695,o),
(99,691,o),
(95,687,c),
(99,671,o),
(101,640,o),
(101,600,cs),
(101,304,ls),
(101,87,o),
(170,-12,o),
(320,-12,cs),
(469,-12,o),
(547,96,o),
(547,304,cs),
(547,673,ls)
);
}
);
width = 642;
},
{
associatedMasterId = "60CFBDE8-BC08-4808-BF41-F011F3E03A54";
layerId = "CA1F7233-7C4D-494B-9E50-7D329828C621";
name = "Bold Aug 24 15, 16:14";
shapes = (
{
closed = 1;
nodes = (
(614,685,o),
(574,715,o),
(521,715,cs),
(476,715,o),
(442,692,o),
(428,680,c),
(448,629,o),
(451,578,o),
(451,540,cs),
(451,350,ls),
(451,131,o),
(419,37,o),
(344,37,cs),
(269,37,o),
(238,132,o),
(238,350,cs),
(237,634,ls),
(237,685,o),
(197,715,o),
(145,715,cs),
(100,715,o),
(66,692,o),
(52,680,c),
(72,629,o),
(75,578,o),
(75,540,cs),
(75,350,ls),
(75,110,o),
(168,-15,o),
(346,-15,cs),
(522,-15,o),
(614,110,o),
(614,350,cs),
(614,634,ls)
);
}
);
width = 674;
},
{
associatedMasterId = "60CFBDE8-BC08-4808-BF41-F011F3E03A54";
layerId = "BEDBE9DF-084E-4ABE-A823-79E23F0326D1";
name = "Light Aug 26 15, 10:49";
shapes = (
{
closed = 1;
nodes = (
(570,687,o),
(564,695,o),
(553,695,cs),
(544,695,o),
(539,691,o),
(535,687,c),
(539,671,o),
(541,640,o),
(541,600,cs),
(541,344,ls),
(541,118,o),
(466,16,o),
(343,16,cs),
(220,16,o),
(145,118,o),
(145,344,cs),
(145,673,ls),
(145,687,o),
(139,695,o),
(128,695,cs),
(119,695,o),
(114,691,o),
(110,687,c),
(114,671,o),
(116,640,o),
(116,600,cs),
(116,344,ls),
(116,100,o),
(199,-12,o),
(343,-12,cs),
(487,-12,o),
(570,100,o),
(570,344,cs),
(570,673,ls)
);
}
);
width = 680;
},
{
associatedMasterId = "60CFBDE8-BC08-4808-BF41-F011F3E03A54";
layerId = "6A4A1E09-3CAB-4F47-A967-7E242205EC01";
name = "Bold Aug 26 15, 10:51";
shapes = (
{
closed = 1;
nodes = (
(599,685,o),
(559,715,o),
(506,715,cs),
(463,715,o),
(429,692,o),
(415,680,c),
(435,629,o),
(438,578,o),
(438,540,cs),
(438,350,ls),
(438,131,o),
(406,37,o),
(329,37,cs),
(254,37,o),
(223,132,o),
(223,350,cs),
(223,634,ls),
(222,685,o),
(182,715,o),
(130,715,cs),
(85,715,o),
(51,692,o),
(37,680,c),
(57,629,o),
(60,578,o),
(60,540,cs),
(60,350,ls),
(60,110,o),
(153,-15,o),
(331,-15,cs),
(507,-15,o),
(599,110,o),
(599,350,cs),
(599,634,ls)
);
}
);
width = 654;
},
{
anchors = (
{
name = bottom;
pos = (338,0);
},
{
name = ogonek;
pos = (398,-9);
},
{
name = top;
pos = (338,698);
},
{
name = topright;
pos = (533,697);
}
);
layerId = "EBFFFCD3-BAE4-48A5-9442-B72A90AD34A8";
shapes = (
{
closed = 1;
nodes = (
(603,685,o),
(568,711,o),
(524,711,cs),
(485,711,o),
(457,692,o),
(445,681,c),
(462,636,o),
(465,589,o),
(465,551,cs),
(465,300,ls),
(465,126,o),
(427,33,o),
(338,33,cs),
(255,33,o),
(219,111,o),
(219,300,cs),
(219,641,ls),
(219,685,o),
(184,711,o),
(140,711,cs),
(101,711,o),
(72,692,o),
(60,681,c),
(77,636,o),
(80,589,o),
(80,551,cs),
(80,307,ls),
(80,84,o),
(169,-14,o),
(338,-14,cs),
(515,-14,o),
(603,94,o),
(603,307,cs),
(603,641,ls)
);
}
);
width = 676;
}
);
unicode = 85;
},
{
glyphname = Uhorn;
kernLeft = U;
kernRight = U;
lastChange = "2022-05-18 16:36:30 +0000";
layers = (
{
anchors = (
{
name = bottom;
pos = (318,0);
},
{
name = ogonek;
pos = (391,6);
},
{
name = top;
pos = (326,688);
},
{
name = topright;
pos = (546,690);
}
);
layerId = "60CFBDE8-BC08-4808-BF41-F011F3E03A54";
shapes = (
{
closed = 1;
nodes = (
(547,687,o),
(541,695,o),
(530,695,cs),
(521,695,o),
(516,691,o),
(512,687,c),
(516,671,o),
(518,640,o),
(518,600,cs),
(518,304,ls),
(518,115,o),
(450,16,o),
(320,16,cs),
(190,16,o),
(130,107,o),
(130,304,cs),
(130,673,ls),
(130,687,o),
(124,695,o),
(113,695,cs),
(104,695,o),
(99,691,o),
(95,687,c),
(99,671,o),
(101,640,o),
(101,600,cs),
(101,304,ls),
(101,87,o),
(170,-12,o),
(320,-12,cs),
(469,-12,o),
(547,96,o),
(547,304,cs),
(547,673,ls)
);
},
{
closed = 1;
nodes = (
(579,685,o),
(608,710,o),
(608,753,cs),
(608,770,o),
(602,795,o),
(585,813,c),
(572,808,o),
(560,799,o),
(552,792,c),
(568,773,o),
(570,756,o),
(570,747,cs),
(570,722,o),
(555,706,o),
(519,692,c),
(528,670,l)
);
}
);
width = 642;
},
{
anchors = (
{
name = bottom;
pos = (347,0);
},
{
name = ogonek;
pos = (398,-9);
},
{
name = top;
pos = (342,698);
},
{
name = topright;
pos = (538,697);
}
);
layerId = "EBFFFCD3-BAE4-48A5-9442-B72A90AD34A8";
shapes = (
{
closed = 1;
nodes = (
(603,685,o),
(568,711,o),
(524,711,cs),
(485,711,o),
(457,692,o),
(445,681,c),
(462,636,o),
(465,589,o),
(465,551,cs),
(465,300,ls),
(465,126,o),
(427,33,o),
(338,33,cs),
(255,33,o),
(219,111,o),
(219,300,cs),
(219,641,ls),
(219,685,o),
(184,711,o),
(140,711,cs),
(101,711,o),
(72,692,o),
(60,681,c),
(77,636,o),
(80,589,o),
(80,551,cs),
(80,307,ls),
(80,84,o),
(169,-14,o),
(338,-14,cs),
(515,-14,o),
(603,94,o),
(603,307,cs),
(603,641,ls)
);
},
{
closed = 1;
nodes = (
(589,689,o),
(654,731,o),
(654,786,cs),
(654,820,o),
(638,856,o),
(626,869,c),
(601,866,o),
(552,844,o),
(534,831,c),
(545,819,o),
(557,796,o),
(557,773,cs),
(557,748,o),
(544,723,o),
(499,707,c),
(516,664,l)
);
}
);
width = 676;
}
);
unicode = 431;
},
{
glyphname = V;
lastChange = "2022-05-18 16:36:30 +0000";
layers = (
{
anchors = (
{
name = bottom;
pos = (270,0);
},
{
name = top;
pos = (270,688);
}
);
background = {
shapes = (
{
ref = O;
}
);
};
layerId = "60CFBDE8-BC08-4808-BF41-F011F3E03A54";
shapes = (
{
closed = 1;
nodes = (
(282,-8,o),
(289,-6,o),
(297,0,c),
(519,658,ls),
(521,665,o),
(525,675,o),
(525,682,cs),
(526,693,o),
(517,700,o),
(504,700,cs),
(499,700,o),
(495,700,o),
(490,698,c),
(492,694,o),
(492,688,o),
(492,684,cs),
(492,678,o),
(489,668,o),
(487,663,cs),
(269,6,l),
(283,6,l),
(55,686,ls),
(52,695,o),
(44,700,o),
(35,700,cs),
(28,700,o),
(22,698,o),
(15,691,c),
(20,685,o),
(27,674,o),
(31,661,cs),
(250,9,ls),
(254,-2,o),
(263,-8,o),
(275,-8,cs)
);
}
);
width = 553;
},
{
associatedMasterId = "60CFBDE8-BC08-4808-BF41-F011F3E03A54";
background = {
shapes = (
{
closed = 1;
nodes = (
(502,-15,o),
(613,110,o),
(613,350,cs),
(613,590,o),
(502,715,o),
(314,715,cs),
(126,715,o),
(15,590,o),
(15,350,cs),
(15,110,o),
(126,-15,o),
(314,-15,cs)
);
},
{
closed = 1;
nodes = (
(235,37,o),
(204,130,o),
(204,350,cs),
(204,570,o),
(235,663,o),
(314,663,cs),
(393,663,o),
(424,570,o),
(424,350,cs),
(424,130,o),
(393,37,o),
(314,37,cs)
);
}
);
};
layerId = "7E9A28B4-DA9B-44FE-9BF8-4FC02E0DD898";
name = "Bold Aug 24 15, 16:19";
shapes = (
{
closed = 1;
nodes = (
(334,-16,o),
(380,-9,o),
(426,6,c),
(605,568,ls),
(616,600,o),
(621,629,o),
(621,649,cs),
(621,696,o),
(594,715,o),
(530,715,cs),
(489,715,o),
(465,707,o),
(442,698,c),
(449,690,o),
(454,679,o),
(454,660,cs),
(454,643,o),
(451,627,o),
(447,609,cs),
(328,49,l),
(342,46,l),
(204,653,ls),
(194,695,o),
(156,715,o),
(106,715,cs),
(52,715,o),
(24,695,o),
(10,680,c),
(30,659,o),
(42,625,o),
(47,607,cs),
(202,35,ls),
(214,-6,o),
(250,-16,o),
(288,-16,cs)
);
}
);
width = 641;
},
{
associatedMasterId = "60CFBDE8-BC08-4808-BF41-F011F3E03A54";
background = {
shapes = (
{
closed = 1;
nodes = (
(502,-15,o),
(613,110,o),
(613,350,cs),
(613,590,o),
(502,715,o),
(314,715,cs),
(126,715,o),
(15,590,o),
(15,350,cs),
(15,110,o),
(126,-15,o),
(314,-15,cs)
);
},
{
closed = 1;
nodes = (
(235,37,o),
(204,130,o),
(204,350,cs),
(204,570,o),
(235,663,o),
(314,663,cs),
(393,663,o),
(424,570,o),
(424,350,cs),
(424,130,o),
(393,37,o),
(314,37,cs)
);
}
);
};
layerId = "24CF965D-4B3D-40F6-963B-588EC6FD297F";
name = "Bold Aug 24 15, 16:43";
shapes = (
{
closed = 1;
nodes = (
(334,-16,o),
(365,-11,o),
(407,5,c),
(598,568,ls),
(609,600,o),
(614,629,o),
(614,649,cs),
(614,696,o),
(587,715,o),
(523,715,cs),
(482,715,o),
(458,707,o),
(435,698,c),
(442,690,o),
(447,679,o),
(447,660,cs),
(447,643,o),
(444,627,o),
(440,609,cs),
(316,25,l),
(363,47,l),
(204,653,ls),
(193,695,o),
(156,715,o),
(97,715,cs),
(43,715,o),
(15,695,o),
(1,680,c),
(21,659,o),
(33,625,o),
(38,607,cs),
(205,26,ls),
(210,9,o),
(250,-16,o),
(298,-16,cs)
);
}
);
width = 641;
},
{
associatedMasterId = "60CFBDE8-BC08-4808-BF41-F011F3E03A54";
background = {
shapes = (
{
closed = 1;
nodes = (
(502,-15,o),
(613,110,o),
(613,350,cs),
(613,590,o),
(502,715,o),
(314,715,cs),
(126,715,o),
(15,590,o),
(15,350,cs),
(15,110,o),
(126,-15,o),
(314,-15,cs)
);
},
{
closed = 1;
nodes = (
(235,37,o),
(204,130,o),
(204,350,cs),
(204,570,o),
(235,663,o),
(314,663,cs),
(393,663,o),
(424,570,o),
(424,350,cs),
(424,130,o),
(393,37,o),
(314,37,cs)
);
}
);
};
layerId = "9331D96B-F6C5-4856-B6E4-154A83CA43C1";
name = "Bold Aug 24 15, 16:44";
shapes = (
{
closed = 1;
nodes = (
(334,-16,o),
(370,-11,o),
(412,5,c),
(598,568,ls),
(609,600,o),
(614,629,o),
(614,649,cs),
(614,696,o),
(587,715,o),
(523,715,cs),
(482,715,o),
(458,707,o),
(435,698,c),
(442,690,o),
(447,679,o),
(447,660,cs),
(447,643,o),
(444,627,o),
(440,609,cs),
(308,7,l),
(358,7,l),
(204,653,ls),
(194,695,o),
(156,715,o),
(97,715,cs),
(43,715,o),
(15,695,o),
(1,680,c),
(21,659,o),
(33,625,o),
(38,607,cs),
(209,26,ls),
(214,9,o),
(250,-16,o),
(298,-16,cs)
);
}
);
width = 641;
},
{
anchors = (
{
name = bottom;
pos = (305,0);
},
{
name = top;
pos = (305,698);
}
);
layerId = "EBFFFCD3-BAE4-48A5-9442-B72A90AD34A8";
shapes = (
{
closed = 1;
nodes = (
(321,-15,o),
(354,-10,o),
(391,4,c),
(581,584,ls),
(590,612,o),
(595,637,o),
(595,655,cs),
(595,695,o),
(572,712,o),
(517,712,cs),
(482,712,o),
(462,706,o),
(442,698,c),
(448,691,o),
(452,681,o),
(452,664,cs),
(452,649,o),
(449,634,o),
(445,619,cs),
(298,7,l),
(337,7,l),
(175,659,ls),
(166,695,o),
(136,712,o),
(86,712,cs),
(40,712,o),
(16,696,o),
(3,682,c),
(20,664,o),
(31,634,o),
(36,617,cs),
(212,23,ls),
(220,-4,o),
(249,-15,o),
(298,-15,cs)
);
}
);
width = 612;
}
);
unicode = 86;
},
{
glyphname = W;
kernLeft = W;
kernRight = W;
lastChange = "2022-05-18 16:36:30 +0000";
layers = (
{
anchors = (
{
name = bottom;
pos = (446,0);
},
{
name = top;
pos = (446,688);
}
);
layerId = "60CFBDE8-BC08-4808-BF41-F011F3E03A54";
shapes = (
{
closed = 1;
nodes = (
(840,700,o),
(836,700,o),
(831,698,c),
(833,694,o),
(833,688,o),
(833,684,cs),
(833,678,o),
(830,668,o),
(828,663,c),
(653,24,l),
(464,629,l),
(460,630,o),
(455,630,o),
(451,630,cs),
(445,630,o),
(437,628,o),
(432,625,c),
(433,621,o),
(435,614,o),
(431,602,cs),
(251,24,l),
(65,686,ls),
(62,695,o),
(54,700,o),
(45,700,cs),
(38,700,o),
(32,698,o),
(25,691,c),
(30,685,o),
(37,674,o),
(41,661,cs),
(225,9,l),
(228,-2,o),
(238,-8,o),
(250,-8,cs),
(257,-8,o),
(264,-6,o),
(272,0,c),
(451,574,l),
(627,9,l),
(630,-2,o),
(640,-8,o),
(652,-8,cs),
(659,-8,o),
(666,-6,o),
(673,0,c),
(860,658,ls),
(862,665,o),
(866,675,o),
(866,682,c),
(867,693,o),
(858,700,o),
(845,700,cs)
);
}
);
width = 887;
},
{
associatedMasterId = "60CFBDE8-BC08-4808-BF41-F011F3E03A54";
layerId = "14DB4CF7-3E37-4D00-8165-32DF5C3AC0A2";
name = "Bold Aug 25 15, 14:31";
shapes = (
{
closed = 1;
nodes = (
(334,-16,o),
(380,-9,o),
(426,6,c),
(605,568,ls),
(616,600,o),
(621,629,o),
(621,649,cs),
(621,696,o),
(594,715,o),
(530,715,cs),
(489,715,o),
(465,707,o),
(442,698,c),
(449,690,o),
(454,679,o),
(454,660,cs),
(454,643,o),
(451,627,o),
(447,609,cs),
(328,49,l),
(342,46,l),
(204,653,ls),
(194,695,o),
(156,715,o),
(106,715,cs),
(52,715,o),
(24,695,o),
(10,680,c),
(30,659,o),
(42,625,o),
(47,607,cs),
(202,35,ls),
(214,-6,o),
(250,-16,o),
(288,-16,cs)
);
}
);
width = 600;
},
{
associatedMasterId = "60CFBDE8-BC08-4808-BF41-F011F3E03A54";
layerId = "D4785ECA-7A17-4CA4-B8FF-382A4C781479";
name = "Bold Aug 25 15, 14:33";
shapes = (
{
closed = 1;
nodes = (
(341,-16,o),
(380,-11,o),
(423,5,c),
(589,504,ls),
(600,536,o),
(605,565,o),
(605,585,cs),
(605,632,o),
(578,651,o),
(514,651,cs),
(473,651,o),
(449,643,o),
(426,634,c),
(433,626,o),
(438,615,o),
(438,596,cs),
(438,579,o),
(435,563,o),
(431,545,cs),
(316,7,l),
(360,7,l),
(212,653,ls),
(202,695,o),
(167,715,o),
(108,715,cs),
(54,715,o),
(26,695,o),
(12,680,c),
(32,659,o),
(44,625,o),
(49,607,cs),
(215,26,ls),
(224,-4,o),
(258,-16,o),
(314,-16,cs)
);
},
{
closed = 1;
nodes = (
(681,-16,o),
(720,-11,o),
(763,5,c),
(946,564,ls),
(957,596,o),
(962,625,o),
(962,645,cs),
(962,692,o),
(935,711,o),
(871,711,cs),
(830,711,o),
(806,703,o),
(783,694,c),
(790,686,o),
(795,675,o),
(795,656,cs),
(795,639,o),
(792,623,o),
(788,605,cs),
(656,7,l),
(700,7,l),
(570,590,ls),
(561,632,o),
(525,652,o),
(466,652,cs),
(412,652,o),
(384,632,o),
(370,617,c),
(390,596,o),
(402,562,o),
(407,544,cs),
(555,26,ls),
(564,-4,o),
(598,-16,o),
(654,-16,cs)
);
}
);
width = 995;
},
{
associatedMasterId = "60CFBDE8-BC08-4808-BF41-F011F3E03A54";
layerId = "ECE8D515-2B59-42DC-A974-8FAC7E6F258B";
name = "Bold Aug 25 15, 14:37";
shapes = (
{
closed = 1;
nodes = (
(840,711,o),
(816,703,o),
(793,694,c),
(800,686,o),
(805,675,o),
(805,656,cs),
(805,639,o),
(801,623,o),
(798,605,cs),
(704,85,l),
(716,85,l),
(601,599,ls),
(594,630,o),
(560,645,o),
(517,645,cs),
(483,645,o),
(434,636,o),
(401,620,c),
(411,600,o),
(417,571,o),
(408,529,cs),
(312,85,l),
(324,85,l),
(212,653,ls),
(204,695,o),
(167,715,o),
(108,715,cs),
(54,715,o),
(26,695,o),
(12,680,c),
(32,659,o),
(44,625,o),
(49,607,cs),
(195,26,ls),
(203,-4,o),
(238,-16,o),
(294,-16,cs),
(317,-16,o),
(356,-11,o),
(399,5,c),
(513,488,l),
(491,498,l),
(594,26,ls),
(601,-4,o),
(637,-16,o),
(684,-16,cs),
(711,-16,o),
(750,-11,o),
(793,5,c),
(956,564,ls),
(965,596,o),
(972,625,o),
(972,645,cs),
(972,692,o),
(945,711,o),
(881,711,cs)
);
}
);
width = 995;
},
{
associatedMasterId = "60CFBDE8-BC08-4808-BF41-F011F3E03A54";
layerId = "9011AEF1-3A8D-4662-8EEF-51AADF899E4B";
name = "Light Aug 25 15, 14:37";
shapes = (
{
closed = 1;
nodes = (
(320,-8,o),
(327,-6,o),
(335,0,c),
(547,658,ls),
(549,665,o),
(553,675,o),
(553,682,cs),
(554,693,o),
(546,700,o),
(535,700,cs),
(530,700,o),
(526,700,o),
(521,698,c),
(523,694,o),
(523,688,o),
(523,684,cs),
(523,678,o),
(520,668,o),
(518,663,cs),
(309,6,l),
(319,6,l),
(100,686,ls),
(97,695,o),
(89,700,o),
(80,700,cs),
(74,700,o),
(69,698,o),
(63,691,c),
(68,685,o),
(75,674,o),
(79,661,cs),
(288,9,ls),
(291,-2,o),
(301,-8,o),
(313,-8,cs)
);
},
{
closed = 1;
nodes = (
(723,-8,o),
(730,-6,o),
(738,0,c),
(950,658,ls),
(952,665,o),
(956,675,o),
(956,682,cs),
(957,693,o),
(949,700,o),
(938,700,cs),
(933,700,o),
(929,700,o),
(924,698,c),
(926,694,o),
(926,688,o),
(926,684,cs),
(926,678,o),
(923,668,o),
(921,663,cs),
(712,6,l),
(722,6,l),
(503,686,ls),
(500,695,o),
(492,700,o),
(483,700,cs),
(477,700,o),
(472,698,o),
(466,691,c),
(471,685,o),
(478,674,o),
(482,661,cs),
(691,9,ls),
(694,-2,o),
(704,-8,o),
(716,-8,cs)
);
}
);
width = 1012;
},
{
associatedMasterId = "60CFBDE8-BC08-4808-BF41-F011F3E03A54";
layerId = "53BC8A1B-5BAD-4E7A-ACB5-5A7DEDE63F90";
name = "Light Aug 25 15, 14:37";
shapes = (
{
closed = 1;
nodes = (
(323,-8,o),
(330,-6,o),
(338,0,c),
(550,658,ls),
(552,665,o),
(556,675,o),
(556,682,cs),
(557,693,o),
(549,700,o),
(538,700,cs),
(533,700,o),
(529,700,o),
(524,698,c),
(526,694,o),
(526,688,o),
(526,684,cs),
(526,678,o),
(523,668,o),
(521,663,cs),
(312,6,l),
(322,6,l),
(103,686,ls),
(100,695,o),
(92,700,o),
(83,700,cs),
(77,700,o),
(72,698,o),
(66,691,c),
(71,685,o),
(78,674,o),
(82,661,cs),
(291,9,ls),
(294,-2,o),
(304,-8,o),
(316,-8,cs)
);
},
{
closed = 1;
nodes = (
(729,-8,o),
(736,-6,o),
(744,0,c),
(956,658,ls),
(958,665,o),
(962,675,o),
(962,682,cs),
(963,693,o),
(955,700,o),
(944,700,cs),
(939,700,o),
(935,700,o),
(930,698,c),
(932,694,o),
(932,688,o),
(932,684,cs),
(932,678,o),
(929,668,o),
(927,663,cs),
(718,6,l),
(728,6,l),
(509,686,ls),
(506,695,o),
(498,700,o),
(489,700,cs),
(483,700,o),
(478,698,o),
(472,691,c),
(477,685,o),
(484,674,o),
(488,661,cs),
(697,9,ls),
(700,-2,o),
(710,-8,o),
(722,-8,cs)
);
}
);
width = 1012;
},
{
associatedMasterId = "60CFBDE8-BC08-4808-BF41-F011F3E03A54";
layerId = "07E32F51-4584-48B3-BAB2-E816366DB81B";
name = "Light Aug 25 15, 14:38";
shapes = (
{
closed = 1;
nodes = (
(511,631,l),
(312,6,l),
(322,6,l),
(103,686,ls),
(100,695,o),
(92,700,o),
(83,700,cs),
(77,700,o),
(72,698,o),
(66,691,c),
(71,685,o),
(78,674,o),
(82,661,cs),
(291,9,ls),
(294,-2,o),
(304,-8,o),
(316,-8,cs),
(323,-8,o),
(330,-6,o),
(338,0,c),
(527,586,l)
);
},
{
closed = 1;
nodes = (
(522,633,o),
(509,636,o),
(499,628,c),
(697,9,ls),
(700,-2,o),
(710,-8,o),
(722,-8,cs),
(729,-8,o),
(736,-6,o),
(744,0,c),
(956,658,ls),
(958,665,o),
(962,675,o),
(962,682,cs),
(963,693,o),
(955,700,o),
(944,700,cs),
(939,700,o),
(935,700,o),
(930,698,c),
(932,694,o),
(932,688,o),
(932,684,cs),
(932,678,o),
(929,668,o),
(927,663,cs),
(718,6,l),
(728,6,l),
(527,632,l)
);
}
);
width = 1012;
},
{
associatedMasterId = "60CFBDE8-BC08-4808-BF41-F011F3E03A54";
layerId = "1F90AA27-D60A-4901-BBD7-0EB57B0444CE";
name = "Bold Aug 25 15, 14:43";
shapes = (
{
closed = 1;
nodes = (
(317,-16,o),
(356,-11,o),
(399,5,c),
(513,488,l),
(491,498,l),
(594,26,ls),
(601,-4,o),
(637,-16,o),
(684,-16,cs),
(711,-16,o),
(750,-11,o),
(793,5,c),
(956,564,ls),
(965,596,o),
(972,625,o),
(972,645,cs),
(972,692,o),
(945,711,o),
(881,711,cs),
(840,711,o),
(816,703,o),
(793,694,c),
(800,686,o),
(805,675,o),
(805,656,cs),
(805,639,o),
(801,623,o),
(798,605,cs),
(704,85,l),
(716,85,l),
(601,599,ls),
(594,630,o),
(560,645,o),
(517,645,cs),
(483,645,o),
(434,636,o),
(401,620,c),
(411,600,o),
(417,571,o),
(408,529,cs),
(312,85,l),
(324,85,l),
(212,653,ls),
(204,695,o),
(167,715,o),
(108,715,cs),
(54,715,o),
(26,695,o),
(12,680,c),
(32,659,o),
(44,625,o),
(49,607,cs),
(195,26,ls),
(203,-4,o),
(238,-16,o),
(294,-16,cs)
);
}
);
width = 995;
},
{
associatedMasterId = "60CFBDE8-BC08-4808-BF41-F011F3E03A54";
layerId = "2F718DF9-0B3E-40AB-B5C7-669FF60F6ADE";
name = "Light Aug 25 15, 14:43";
shapes = (
{
closed = 1;
nodes = (
(323,-8,o),
(330,-6,o),
(338,0,c),
(526,588,l),
(518,588,l),
(702,9,l),
(705,-2,o),
(715,-8,o),
(727,-8,cs),
(734,-8,o),
(741,-6,o),
(749,0,c),
(961,658,ls),
(963,665,o),
(967,675,o),
(967,682,c),
(968,693,o),
(960,700,o),
(949,700,cs),
(944,700,o),
(940,700,o),
(935,698,c),
(937,694,o),
(937,688,o),
(937,684,cs),
(937,678,o),
(934,668,o),
(932,663,c),
(728,22,l),
(534,630,l),
(530,631,o),
(526,631,o),
(522,631,cs),
(516,631,o),
(509,629,o),
(504,626,c),
(505,622,o),
(507,615,o),
(503,603,cs),
(313,10,l),
(321,10,l),
(103,686,ls),
(100,695,o),
(92,700,o),
(83,700,cs),
(77,700,o),
(72,698,o),
(66,691,c),
(71,685,o),
(78,674,o),
(82,661,cs),
(291,9,l),
(294,-2,o),
(304,-8,o),
(316,-8,cs)
);
}
);
width = 1012;
},
{
associatedMasterId = "60CFBDE8-BC08-4808-BF41-F011F3E03A54";
layerId = "6F86407E-40C5-49BA-85F5-6E25407B34F5";
name = "Light Aug 26 15, 10:53";
shapes = (
{
closed = 1;
nodes = (
(888,700,o),
(884,700,o),
(879,698,c),
(881,694,o),
(881,688,o),
(881,684,cs),
(881,678,o),
(878,668,o),
(876,663,c),
(672,22,l),
(478,630,l),
(474,631,o),
(470,631,o),
(466,631,cs),
(460,631,o),
(453,629,o),
(448,626,c),
(449,622,o),
(451,615,o),
(447,603,cs),
(261,22,l),
(47,686,ls),
(44,695,o),
(36,700,o),
(27,700,cs),
(21,700,o),
(16,698,o),
(10,691,c),
(15,685,o),
(22,674,o),
(26,661,cs),
(235,9,l),
(238,-2,o),
(248,-8,o),
(260,-8,cs),
(267,-8,o),
(274,-6,o),
(282,0,c),
(466,575,l),
(646,9,l),
(649,-2,o),
(659,-8,o),
(671,-8,cs),
(678,-8,o),
(685,-6,o),
(693,0,c),
(905,658,ls),
(907,665,o),
(911,675,o),
(911,682,c),
(912,693,o),
(904,700,o),
(893,700,cs)
);
}
);
width = 921;
},
{
associatedMasterId = "60CFBDE8-BC08-4808-BF41-F011F3E03A54";
layerId = "E63B71BC-0A54-4DDE-9377-DB9624BE3CD7";
name = "Bold Aug 26 15, 11:28";
shapes = (
{
closed = 1;
nodes = (
(833,711,o),
(809,703,o),
(786,694,c),
(793,686,o),
(798,675,o),
(798,656,cs),
(798,639,o),
(794,623,o),
(791,605,cs),
(702,115,l),
(594,599,ls),
(587,630,o),
(553,645,o),
(510,645,cs),
(476,645,o),
(427,636,o),
(394,620,c),
(404,600,o),
(410,571,o),
(401,529,cs),
(311,114,l),
(205,653,ls),
(197,695,o),
(160,715,o),
(101,715,cs),
(47,715,o),
(19,695,o),
(5,680,c),
(25,659,o),
(37,625,o),
(42,607,cs),
(188,26,ls),
(196,-4,o),
(231,-16,o),
(287,-16,cs),
(310,-16,o),
(349,-11,o),
(392,5,c),
(496,444,l),
(587,26,ls),
(594,-4,o),
(630,-16,o),
(677,-16,cs),
(704,-16,o),
(743,-11,o),
(786,5,c),
(949,564,ls),
(958,596,o),
(965,625,o),
(965,645,cs),
(965,692,o),
(938,711,o),
(874,711,cs)
);
}
);
width = 980;
},
{
anchors = (
{
name = bottom;
pos = (481,0);
},
{
name = top;
pos = (489,698);
}
);
layerId = "EBFFFCD3-BAE4-48A5-9442-B72A90AD34A8";
shapes = (
{
closed = 1;
nodes = (
(823,709,o),
(803,702,o),
(783,695,c),
(789,687,o),
(793,677,o),
(793,661,cs),
(793,646,o),
(789,631,o),
(787,615,c),
(691,99,l),
(568,602,l),
(562,628,o),
(533,640,o),
(497,640,cs),
(468,640,o),
(426,632,o),
(398,618,c),
(406,601,o),
(412,576,o),
(404,539,cs),
(298,98,l),
(186,659,ls),
(179,695,o),
(147,712,o),
(97,712,cs),
(51,712,o),
(27,696,o),
(14,682,c),
(31,664,o),
(43,634,o),
(47,617,cs),
(192,23,l),
(198,-4,o),
(229,-15,o),
(278,-15,cs),
(298,-15,o),
(331,-10,o),
(368,4,c),
(484,465,l),
(591,23,l),
(598,-4,o),
(629,-15,o),
(670,-15,cs),
(693,-15,o),
(727,-10,o),
(763,4,c),
(922,581,ls),
(930,608,o),
(936,634,o),
(936,652,c),
(937,692,o),
(913,709,o),
(858,709,cs)
);
}
);
width = 962;
}
);
unicode = 87;
},
{
glyphname = X;
lastChange = "2022-05-18 16:36:30 +0000";
layers = (
{
anchors = (
{
name = bottom;
pos = (287,0);
},
{
name = top;
pos = (287,688);
}
);
layerId = "60CFBDE8-BC08-4808-BF41-F011F3E03A54";
shapes = (
{
closed = 1;
nodes = (
(541,-7,o),
(560,12,o),
(560,31,cs),
(560,44,o),
(552,54,o),
(537,55,c),
(540,42,o),
(533,23,o),
(510,23,cs),
(488,23,o),
(474,42,o),
(461,65,cs),
(299,364,l),
(152,637,ls),
(138,663,o),
(113,695,o),
(75,695,cs),
(44,695,o),
(25,676,o),
(25,657,cs),
(25,644,o),
(33,634,o),
(48,633,c),
(45,649,o),
(52,665,o),
(75,665,cs),
(95,665,o),
(109,651,o),
(124,623,cs),
(272,349,l),
(432,51,ls),
(447,22,o),
(472,-7,o),
(510,-7,cs)
);
},
{
closed = 1;
nodes = (
(57,-5,o),
(63,-1,o),
(68,6,cs),
(302,354,l),
(284,379,l),
(82,81,ls),
(55,42,o),
(39,23,o),
(31,16,c),
(33,0,o),
(41,-5,o),
(50,-5,cs)
);
},
{
closed = 1;
nodes = (
(472,613,ls),
(493,645,o),
(512,668,o),
(525,679,c),
(522,694,o),
(516,700,o),
(506,700,cs),
(499,700,o),
(493,696,o),
(488,689,cs),
(284,370,l),
(301,348,l)
);
}
);
width = 574;
},
{
associatedMasterId = "60CFBDE8-BC08-4808-BF41-F011F3E03A54";
layerId = "40A61E19-C4F3-4967-BCE8-2D617E12CAF7";
name = "Bold Aug 24 15, 16:21";
shapes = (
{
closed = 1;
nodes = (
(597,-10,o),
(637,39,o),
(637,86,cs),
(637,122,o),
(614,146,o),
(591,158,c),
(587,144,o),
(570,132,o),
(559,132,cs),
(549,132,o),
(533,142,o),
(518,165,cs),
(374,389,l),
(262,569,ls),
(202,665,o),
(186,703,o),
(118,703,cs),
(38,703,o),
(4,654,o),
(4,608,cs),
(4,572,o),
(24,548,o),
(49,535,c),
(53,549,o),
(69,561,o),
(83,561,cs),
(96,561,o),
(107,550,o),
(121,528,cs),
(259,310,l),
(379,124,ls),
(432,42,o),
(456,-10,o),
(526,-10,cs)
);
},
{
closed = 1;
nodes = (
(111,-20,o),
(134,3,o),
(150,27,cs),
(323,282,l),
(267,362,l),
(110,163,ls),
(80,125,o),
(49,91,o),
(-11,77,c),
(-5,9,o),
(26,-20,o),
(77,-20,cs)
);
},
{
closed = 1;
nodes = (
(512,519,ls),
(540,558,o),
(573,591,o),
(633,605,c),
(626,674,o),
(603,703,o),
(540,703,cs),
(506,703,o),
(482,680,o),
(467,655,cs),
(310,399,l),
(368,321,l)
);
}
);
width = 600;
},
{
associatedMasterId = "60CFBDE8-BC08-4808-BF41-F011F3E03A54";
layerId = "9F8D304D-1E52-4CF9-AE0B-9BC0C9CA44D5";
name = "Bold Aug 24 15, 16:21";
shapes = (
{
closed = 1;
nodes = (
(609,-10,o),
(661,39,o),
(661,86,cs),
(661,122,o),
(638,146,o),
(615,158,c),
(611,144,o),
(594,132,o),
(583,132,cs),
(573,132,o),
(557,142,o),
(542,165,cs),
(398,389,l),
(286,569,ls),
(228,662,o),
(217,703,o),
(118,703,cs),
(38,703,o),
(4,654,o),
(4,608,cs),
(4,572,o),
(24,548,o),
(49,535,c),
(53,549,o),
(69,561,o),
(83,561,cs),
(96,561,o),
(107,550,o),
(121,528,cs),
(259,310,l),
(379,124,ls),
(432,42,o),
(456,-10,o),
(542,-10,cs)
);
},
{
closed = 1;
nodes = (
(111,-20,o),
(134,3,o),
(150,27,cs),
(323,282,l),
(267,362,l),
(110,163,ls),
(80,125,o),
(49,91,o),
(-11,77,c),
(-5,9,o),
(26,-20,o),
(77,-20,cs)
);
},
{
closed = 1;
nodes = (
(518,519,ls),
(546,558,o),
(579,591,o),
(639,605,c),
(632,674,o),
(609,703,o),
(546,703,cs),
(507,703,o),
(483,680,o),
(468,655,cs),
(311,399,l),
(374,321,l)
);
}
);
width = 600;
},
{
associatedMasterId = "60CFBDE8-BC08-4808-BF41-F011F3E03A54";
layerId = "10BFCDBB-6A2E-4A91-8E41-58A390DB3838";
name = "Bold Aug 24 15, 16:23";
shapes = (
{
closed = 1;
nodes = (
(665,-16,o),
(717,33,o),
(717,80,cs),
(717,116,o),
(694,140,o),
(671,152,c),
(667,138,o),
(650,126,o),
(639,126,cs),
(629,126,o),
(613,136,o),
(598,159,cs),
(450,389,ls),
(327,581,ls),
(268,673,o),
(258,715,o),
(159,715,cs),
(79,715,o),
(45,666,o),
(45,620,cs),
(45,584,o),
(65,560,o),
(90,547,c),
(94,561,o),
(110,573,o),
(124,573,cs),
(137,573,o),
(148,562,o),
(162,540,cs),
(311,310,l),
(435,118,ls),
(488,36,o),
(512,-16,o),
(598,-16,cs)
);
},
{
closed = 1;
nodes = (
(578,525,ls),
(609,563,o),
(639,597,o),
(699,611,c),
(692,680,o),
(669,709,o),
(606,709,cs),
(567,709,o),
(543,686,o),
(528,661,cs),
(362,385,l),
(416,322,l)
);
},
{
closed = 1;
nodes = (
(168,168,ls),
(137,130,o),
(107,96,o),
(47,82,c),
(54,13,o),
(77,-16,o),
(140,-16,cs),
(179,-16,o),
(202,8,o),
(218,32,cs),
(399,308,l),
(330,371,l)
);
}
);
width = 784;
},
{
associatedMasterId = "60CFBDE8-BC08-4808-BF41-F011F3E03A54";
layerId = "6D66C537-3471-458A-B691-3C750D5BC7A4";
name = "Bold Aug 24 15, 16:24";
shapes = (
{
closed = 1;
nodes = (
(658,-16,o),
(708,33,o),
(708,80,cs),
(708,116,o),
(686,140,o),
(664,152,c),
(660,138,o),
(644,126,o),
(634,126,cs),
(624,126,o),
(609,136,o),
(595,159,cs),
(454,389,ls),
(337,581,ls),
(280,673,o),
(256,715,o),
(170,715,cs),
(93,715,o),
(61,666,o),
(61,620,cs),
(61,584,o),
(80,560,o),
(104,547,c),
(108,561,o),
(123,573,o),
(136,573,cs),
(149,573,o),
(159,562,o),
(172,540,cs),
(314,310,l),
(432,118,ls),
(483,36,o),
(506,-16,o),
(588,-16,cs)
);
},
{
closed = 1;
nodes = (
(569,525,ls),
(598,563,o),
(627,597,o),
(684,611,c),
(677,680,o),
(655,709,o),
(595,709,cs),
(558,709,o),
(535,686,o),
(521,661,cs),
(363,385,l),
(414,322,l)
);
},
{
closed = 1;
nodes = (
(178,168,ls),
(149,130,o),
(120,96,o),
(63,82,c),
(70,13,o),
(91,-16,o),
(151,-16,cs),
(189,-16,o),
(211,8,o),
(226,32,cs),
(398,308,l),
(332,371,l)
);
}
);
width = 784;
},
{
anchors = (
{
name = bottom;
pos = (320,0);
},
{
name = top;
pos = (320,698);
}
);
layerId = "EBFFFCD3-BAE4-48A5-9442-B72A90AD34A8";
shapes = (
{
closed = 1;
nodes = (
(581,-14,o),
(623,29,o),
(623,73,cs),
(623,102,o),
(604,125,o),
(583,135,c),
(580,121,o),
(566,108,o),
(554,108,cs),
(541,108,o),
(525,119,o),
(513,142,cs),
(362,422,l),
(279,587,ls),
(239,666,o),
(205,707,o),
(132,707,cs),
(56,707,o),
(29,664,o),
(29,622,cs),
(29,591,o),
(46,569,o),
(68,558,c),
(71,572,o),
(85,585,o),
(100,585,cs),
(114,585,o),
(125,574,o),
(138,551,cs),
(272,300,l),
(373,106,ls),
(412,32,o),
(443,-14,o),
(514,-14,cs)
);
},
{
closed = 1;
nodes = (
(131,-14,o),
(149,3,o),
(164,27,cs),
(341,316,l),
(283,372,l),
(127,153,ls),
(99,114,o),
(71,83,o),
(23,70,c),
(28,13,o),
(49,-14,o),
(95,-14,cs)
);
},
{
closed = 1;
nodes = (
(504,541,ls),
(530,578,o),
(559,610,o),
(608,623,c),
(602,682,o),
(580,707,o),
(535,707,cs),
(497,707,o),
(479,688,o),
(467,666,cs),
(305,382,l),
(350,327,l)
);
}
);
width = 640;
}
);
unicode = 88;
},
{
glyphname = Y;
kernLeft = Y;
kernRight = Y;
lastChange = "2022-05-18 16:36:30 +0000";
layers = (
{
anchors = (
{
name = bottom;
pos = (254,0);
},
{
name = top;
pos = (270,688);
},
{
name = topleft;
pos = (20,688);
}
);
layerId = "60CFBDE8-BC08-4808-BF41-F011F3E03A54";
shapes = (
{
closed = 1;
nodes = (
(272,236,l),
(480,655,ls),
(485,665,o),
(488,673,o),
(488,678,cs),
(488,692,o),
(480,700,o),
(468,700,cs),
(463,700,o),
(459,700,o),
(454,698,c),
(456,694,o),
(456,688,o),
(456,683,cs),
(456,678,o),
(453,670,o),
(446,655,cs),
(251,253,l),
(266,253,l),
(63,686,ls),
(59,695,o),
(52,700,o),
(43,700,cs),
(34,700,o),
(26,696,o),
(20,689,c),
(25,683,o),
(36,672,o),
(41,661,cs),
(244,236,ls),
(246,232,o),
(252,228,o),
(260,227,c)
);
},
{
closed = 1;
nodes = (
(243,250,l),
(244,14,ls),
(244,0,o),
(250,-8,o),
(261,-8,cs),
(270,-8,o),
(275,-4,o),
(279,0,c),
(275,16,o),
(273,45,o),
(273,87,cs),
(272,249,l)
);
}
);
width = 512;
},
{
associatedMasterId = "60CFBDE8-BC08-4808-BF41-F011F3E03A54";
layerId = "1FDC3232-4FDE-4710-BDA1-3320C5CC5713";
name = "Bold Aug 24 15, 16:05";
shapes = (
{
closed = 1;
nodes = (
(334,285,o),
(380,292,o),
(426,307,c),
(605,568,ls),
(624,595,o),
(621,629,o),
(621,649,cs),
(621,696,o),
(594,715,o),
(530,715,cs),
(489,715,o),
(465,707,o),
(442,698,c),
(449,690,o),
(454,679,o),
(454,660,cs),
(454,643,o),
(455,627,o),
(447,609,cs),
(328,350,l),
(342,347,l),
(204,653,ls),
(186,692,o),
(156,715,o),
(106,715,cs),
(52,715,o),
(24,695,o),
(10,680,c),
(30,659,o),
(36,626,o),
(47,607,cs),
(202,336,ls),
(223,299,o),
(250,285,o),
(288,285,cs)
);
},
{
closed = 1;
nodes = (
(237,308,l),
(237,65,ls),
(237,14,o),
(277,-16,o),
(330,-16,cs),
(375,-16,o),
(410,7,o),
(423,19,c),
(403,70,o),
(400,121,o),
(400,159,cs),
(400,340,l)
);
}
);
width = 600;
},
{
associatedMasterId = "60CFBDE8-BC08-4808-BF41-F011F3E03A54";
layerId = "0BACD53E-2B4D-4799-B788-ED09B2BAD02F";
name = "Bold Aug 24 15, 16:12";
shapes = (
{
closed = 1;
nodes = (
(335,269,o),
(346,254,o),
(392,269,c),
(554,545,ls),
(574,578,o),
(592,617,o),
(592,644,cs),
(591,679,o),
(570,711,o),
(519,711,cs),
(478,711,o),
(454,703,o),
(431,694,c),
(440,684,o),
(447,668,o),
(447,653,cs),
(447,636,o),
(443,622,o),
(436,605,cs),
(313,320,l),
(360,347,l),
(204,653,ls),
(184,692,o),
(157,715,o),
(103,715,cs),
(40,715,o),
(20,680,o),
(6,665,c),
(26,644,o),
(44,611,o),
(54,592,cs),
(189,336,ls),
(209,298,o),
(238,269,o),
(300,269,cs)
);
},
{
closed = 1;
nodes = (
(226,308,l),
(226,65,ls),
(226,14,o),
(266,-16,o),
(319,-16,cs),
(364,-16,o),
(399,7,o),
(412,19,c),
(392,70,o),
(389,121,o),
(389,159,cs),
(389,340,l)
);
}
);
width = 600;
},
{
associatedMasterId = "60CFBDE8-BC08-4808-BF41-F011F3E03A54";
guides = (
{
pos = (304,263);
}
);
layerId = "AE13FDCE-5634-49A7-A66A-A6E1222ACBF8";
name = "Bold Aug 24 15, 16:18";
shapes = (
{
closed = 1;
nodes = (
(336,231,o),
(335,237,o),
(381,252,c),
(566,534,ls),
(587,566,o),
(604,606,o),
(604,633,cs),
(603,668,o),
(582,700,o),
(531,700,cs),
(490,700,o),
(466,692,o),
(443,683,c),
(452,673,o),
(459,657,o),
(459,642,cs),
(459,625,o),
(456,611,o),
(448,594,cs),
(313,303,l),
(382,330,l),
(228,618,ls),
(200,671,o),
(180,710,o),
(114,710,cs),
(50,710,o),
(6,675,o),
(-8,660,c),
(20,633,o),
(40,599,o),
(50,581,cs),
(189,319,ls),
(209,282,o),
(239,231,o),
(301,231,cs)
);
},
{
closed = 1;
nodes = (
(226,291,l),
(226,65,ls),
(226,14,o),
(266,-16,o),
(319,-16,cs),
(364,-16,o),
(399,7,o),
(412,19,c),
(392,70,o),
(389,121,o),
(389,159,cs),
(389,323,l)
);
}
);
width = 600;
},
{
associatedMasterId = "60CFBDE8-BC08-4808-BF41-F011F3E03A54";
guides = (
{
pos = (324,263);
}
);
layerId = "44688BE7-8143-4BF0-883E-6A51604AD970";
name = "Bold Aug 24 15, 16:45";
shapes = (
{
closed = 1;
nodes = (
(356,231,o),
(353,237,o),
(399,252,c),
(584,534,ls),
(605,566,o),
(622,606,o),
(622,633,cs),
(621,668,o),
(600,700,o),
(549,700,cs),
(503,700,o),
(479,692,o),
(456,683,c),
(465,673,o),
(472,657,o),
(472,642,cs),
(472,625,o),
(469,611,o),
(461,594,cs),
(319,282,l),
(402,330,l),
(248,618,ls),
(220,671,o),
(200,710,o),
(134,710,cs),
(70,710,o),
(26,675,o),
(12,660,c),
(40,633,o),
(60,599,o),
(70,581,cs),
(209,319,ls),
(229,282,o),
(259,231,o),
(321,231,cs)
);
},
{
closed = 1;
nodes = (
(246,291,l),
(246,65,ls),
(246,14,o),
(286,-16,o),
(339,-16,cs),
(384,-16,o),
(419,7,o),
(432,19,c),
(412,70,o),
(409,121,o),
(409,159,cs),
(409,323,l)
);
}
);
width = 650;
},
{
associatedMasterId = "60CFBDE8-BC08-4808-BF41-F011F3E03A54";
guides = (
{
pos = (324,263);
}
);
layerId = "0E83CA05-679E-4514-856C-1331E27B5427";
name = "Bold Aug 24 15, 16:51";
shapes = (
{
closed = 1;
nodes = (
(356,231,o),
(353,237,o),
(399,252,c),
(584,534,ls),
(605,566,o),
(622,606,o),
(622,633,cs),
(621,668,o),
(600,700,o),
(549,700,cs),
(503,700,o),
(479,692,o),
(456,683,c),
(465,673,o),
(472,657,o),
(472,642,cs),
(472,625,o),
(469,611,o),
(461,594,cs),
(319,282,l),
(384,320,l),
(248,618,ls),
(223,672,o),
(200,710,o),
(134,710,cs),
(70,710,o),
(26,675,o),
(12,660,c),
(40,633,o),
(60,599,o),
(70,581,cs),
(209,319,ls),
(229,282,o),
(259,231,o),
(321,231,cs)
);
},
{
closed = 1;
nodes = (
(246,291,l),
(246,65,ls),
(246,14,o),
(286,-16,o),
(339,-16,cs),
(384,-16,o),
(419,7,o),
(432,19,c),
(412,70,o),
(409,121,o),
(409,159,cs),
(409,323,l)
);
}
);
width = 650;
},
{
anchors = (
{
name = bottom;
pos = (318,0);
},
{
name = top;
pos = (321,698);
},
{
name = topleft;
pos = (20,698);
}
);
layerId = "EBFFFCD3-BAE4-48A5-9442-B72A90AD34A8";
shapes = (
{
closed = 1;
nodes = (
(361,249,l),
(550,564,ls),
(568,592,o),
(583,626,o),
(583,649,cs),
(582,680,o),
(564,708,o),
(519,708,cs),
(481,708,o),
(460,702,o),
(440,694,c),
(448,685,o),
(454,671,o),
(454,657,cs),
(454,643,o),
(451,630,o),
(443,613,cs),
(292,277,l),
(348,308,l),
(200,630,ls),
(179,676,o),
(159,708,o),
(103,708,cs),
(54,708,o),
(17,679,o),
(4,665,c),
(28,642,o),
(46,612,o),
(55,595,cs),
(206,304,ls),
(223,273,o),
(242,230,o),
(288,230,c)
);
},
{
closed = 1;
nodes = (
(230,284,l),
(230,56,ls),
(230,12,o),
(264,-15,o),
(310,-15,cs),
(348,-15,o),
(378,5,o),
(389,16,c),
(372,60,o),
(369,108,o),
(369,146,cs),
(369,310,l)
);
}
);
width = 600;
}
);
unicode = 89;
},
{
glyphname = Z;
kernLeft = Z;
kernRight = Z;
lastChange = "2022-05-18 16:36:30 +0000";
layers = (
{
anchors = (
{
name = bottom;
pos = (283,0);
},
{
name = top;
pos = (283,688);
}
);
layerId = "60CFBDE8-BC08-4808-BF41-F011F3E03A54";
shapes = (
{
closed = 1;
nodes = (
(103,0,o),
(147,0,o),
(187,0,cs),
(394,0,ls),
(482,0,o),
(520,44,o),
(520,97,cs),
(520,131,o),
(502,189,o),
(463,189,cs),
(455,189,o),
(453,186,o),
(444,181,c),
(468,167,o),
(491,136,o),
(490,95,cs),
(489,58,o),
(466,26,o),
(383,26,cs),
(78,26,l),
(78,13,l),
(477,633,ls),
(485,646,o),
(492,663,o),
(492,685,c),
(475,694,l),
(453,689,o),
(416,689,o),
(347,689,cs),
(173,689,ls),
(100,689,o),
(59,649,o),
(59,603,cs),
(59,564,o),
(82,519,o),
(116,519,cs),
(126,519,o),
(133,523,o),
(136,529,c),
(104,548,o),
(87,568,o),
(87,602,cs),
(87,635,o),
(111,663,o),
(176,663,cs),
(475,663,l),
(463,665,l),
(71,53,ls),
(61,38,o),
(52,21,o),
(52,9,c),
(63,-5,l)
);
}
);
width = 553;
},
{
associatedMasterId = "60CFBDE8-BC08-4808-BF41-F011F3E03A54";
layerId = "6086FCA0-3F07-4762-9817-07E4259C666F";
name = "Bold Aug 24 15, 12:39";
shapes = (
{
closed = 1;
nodes = (
(73,0,o),
(108,1,o),
(136,0,cs),
(360,-6,ls),
(456,-9,o),
(507,33,o),
(507,87,cs),
(507,113,o),
(489,154,o),
(445,177,cs),
(435,182,o),
(424,186,o),
(411,189,c),
(411,175,o),
(405,162,o),
(393,151,cs),
(379,138,o),
(357,127,o),
(329,125,cs),
(136,114,l),
(180,105,l),
(446,400,ls),
(475,429,o),
(477,454,o),
(477,492,c),
(463,530,l),
(435,520,o),
(400,519,o),
(372,520,cs),
(177,527,ls),
(64,531,o),
(20,488,o),
(20,434,cs),
(20,411,o),
(38,372,o),
(80,349,cs),
(91,343,o),
(103,339,o),
(116,336,c),
(116,352,o),
(125,368,o),
(141,379,cs),
(155,390,o),
(176,400,o),
(198,402,cs),
(387,423,l),
(349,425,l),
(59,115,ls),
(31,86,o),
(28,61,o),
(28,19,c),
(45,-11,l)
);
}
);
width = 600;
},
{
associatedMasterId = "60CFBDE8-BC08-4808-BF41-F011F3E03A54";
layerId = "C5D037FC-425F-446F-8188-15E85C49E7F0";
name = "Bold Aug 24 15, 16:26";
shapes = (
{
closed = 1;
nodes = (
(87,6,o),
(131,7,o),
(168,6,cs),
(453,-2,ls),
(575,-6,o),
(641,48,o),
(641,116,cs),
(641,150,o),
(618,202,o),
(562,232,cs),
(549,238,o),
(535,243,o),
(518,247,c),
(518,229,o),
(511,213,o),
(495,198,cs),
(477,182,o),
(450,168,o),
(413,165,cs),
(168,152,l),
(224,139,l),
(563,541,ls),
(597,582,o),
(603,610,o),
(603,659,c),
(585,707,l),
(549,695,o),
(504,694,o),
(469,695,cs),
(220,703,ls),
(75,708,o),
(19,654,o),
(19,584,cs),
(19,556,o),
(42,505,o),
(96,476,cs),
(110,468,o),
(125,463,o),
(142,459,c),
(142,479,o),
(153,500,o),
(173,515,cs),
(191,528,o),
(218,540,o),
(247,543,cs),
(488,571,l),
(439,573,l),
(69,153,ls),
(34,114,o),
(30,83,o),
(30,30,c),
(51,-8,l)
);
}
);
width = 600;
},
{
associatedMasterId = "60CFBDE8-BC08-4808-BF41-F011F3E03A54";
layerId = "08C7E995-A1F7-43FE-A06F-A4AE9895050B";
name = "Bold Aug 24 15, 16:29";
shapes = (
{
closed = 1;
nodes = (
(117,6,o),
(131,7,o),
(168,6,cs),
(455,-2,ls),
(577,-5,o),
(632,43,o),
(632,111,cs),
(632,166,o),
(603,195,o),
(562,215,cs),
(553,219,o),
(539,225,o),
(518,230,c),
(518,212,o),
(511,196,o),
(495,181,cs),
(480,167,o),
(451,151,o),
(413,148,cs),
(150,125,l),
(172,79,l),
(563,541,ls),
(597,581,o),
(603,610,o),
(603,659,c),
(585,707,l),
(549,695,o),
(502,694,o),
(469,695,cs),
(250,703,ls),
(105,708,o),
(49,654,o),
(49,584,cs),
(49,548,o),
(63,523,o),
(85,505,cs),
(105,489,o),
(132,478,o),
(160,471,c),
(160,489,o),
(166,505,o),
(182,521,cs),
(203,542,o),
(234,552,o),
(265,555,cs),
(498,578,l),
(498,618,l),
(99,153,ls),
(64,113,o),
(60,83,o),
(60,30,c),
(81,-8,l)
);
}
);
width = 681;
},
{
associatedMasterId = "60CFBDE8-BC08-4808-BF41-F011F3E03A54";
layerId = "870A4E15-21D4-417A-ACC3-1B6B5D39CB1F";
name = "Bold Aug 24 15, 16:45";
shapes = (
{
closed = 1;
nodes = (
(96,6,o),
(109,7,o),
(145,6,cs),
(421,-2,ls),
(538,-5,o),
(591,43,o),
(591,111,cs),
(591,161,o),
(563,190,o),
(523,210,cs),
(515,214,o),
(501,220,o),
(481,225,c),
(481,207,o),
(474,191,o),
(459,176,cs),
(445,162,o),
(417,146,o),
(380,143,cs),
(127,120,l),
(149,79,l),
(524,541,ls),
(557,581,o),
(563,610,o),
(563,659,c),
(546,707,l),
(511,695,o),
(466,694,o),
(434,695,cs),
(224,703,ls),
(84,708,o),
(30,654,o),
(30,584,cs),
(30,552,o),
(44,527,o),
(65,509,cs),
(84,493,o),
(110,482,o),
(137,475,c),
(137,493,o),
(143,509,o),
(158,529,cs),
(174,550,o),
(208,556,o),
(238,559,cs),
(462,582,l),
(450,628,l),
(78,153,ls),
(46,113,o),
(41,83,o),
(41,30,c),
(61,-8,l)
);
}
);
width = 621;
},
{
associatedMasterId = "60CFBDE8-BC08-4808-BF41-F011F3E03A54";
layerId = "9A94C8F2-784F-48FD-AE45-3C1463D41141";
name = "Light Aug 24 15, 17:04";
shapes = (
{
closed = 1;
nodes = (
(81,0,o),
(131,0,o),
(171,0,cs),
(421,0,ls),
(507,0,o),
(564,51,o),
(564,126,cs),
(564,161,o),
(552,220,o),
(505,220,cs),
(498,220,o),
(490,217,o),
(480,212,c),
(505,198,o),
(524,166,o),
(524,130,cs),
(524,83,o),
(496,37,o),
(407,37,cs),
(62,37,l),
(69,23,l),
(507,620,ls),
(524,644,o),
(528,663,o),
(528,685,c),
(515,694,l),
(493,689,o),
(456,689,o),
(387,689,cs),
(158,689,ls),
(72,689,o),
(24,640,o),
(24,582,cs),
(24,543,o),
(46,499,o),
(86,499,cs),
(94,499,o),
(102,503,o),
(105,509,c),
(83,525,o),
(64,547,o),
(64,579,cs),
(64,615,o),
(89,651,o),
(161,651,cs),
(504,651,l),
(497,665,l),
(49,54,ls),
(38,39,o),
(30,21,o),
(30,9,c),
(41,-5,l)
);
}
);
width = 600;
},
{
associatedMasterId = "60CFBDE8-BC08-4808-BF41-F011F3E03A54";
layerId = "FD353DC1-FB06-463E-88CE-7651A2AC541F";
name = "Light Aug 25 15, 14:05";
shapes = (
{
closed = 1;
nodes = (
(87,0,o),
(131,0,o),
(171,0,cs),
(407,0,ls),
(493,0,o),
(550,53,o),
(550,123,cs),
(550,162,o),
(532,220,o),
(493,220,cs),
(485,220,o),
(483,217,o),
(474,212,c),
(498,198,o),
(518,167,o),
(520,124,cs),
(520,73,o),
(492,26,o),
(393,26,cs),
(62,26,l),
(62,13,l),
(504,633,ls),
(513,646,o),
(519,663,o),
(519,685,c),
(502,694,l),
(480,689,o),
(443,689,o),
(374,689,cs),
(164,689,ls),
(78,689,o),
(30,640,o),
(30,583,cs),
(30,544,o),
(53,499,o),
(87,499,cs),
(97,499,o),
(104,503,o),
(107,509,c),
(75,528,o),
(58,548,o),
(58,582,cs),
(58,626,o),
(87,663,o),
(167,663,cs),
(502,663,l),
(490,665,l),
(55,53,ls),
(44,38,o),
(36,21,o),
(36,9,c),
(47,-5,l)
);
}
);
width = 600;
},
{
associatedMasterId = "60CFBDE8-BC08-4808-BF41-F011F3E03A54";
layerId = "691624EA-7F09-425F-8D6E-B6BF8709FC88";
name = "Light Aug 26 15, 11:02";
shapes = (
{
closed = 1;
nodes = (
(71,0,o),
(115,0,o),
(155,0,cs),
(381,0,ls),
(467,0,o),
(524,53,o),
(524,123,cs),
(524,162,o),
(506,220,o),
(467,220,cs),
(459,220,o),
(457,217,o),
(448,212,c),
(472,198,o),
(492,167,o),
(494,124,cs),
(494,73,o),
(466,26,o),
(367,26,cs),
(46,26,l),
(46,13,l),
(474,633,ls),
(483,646,o),
(489,663,o),
(489,685,c),
(472,694,l),
(450,689,o),
(413,689,o),
(344,689,cs),
(154,689,ls),
(68,689,o),
(20,640,o),
(20,583,cs),
(20,544,o),
(43,499,o),
(77,499,cs),
(87,499,o),
(94,503,o),
(97,509,c),
(65,528,o),
(48,548,o),
(48,582,cs),
(48,626,o),
(77,663,o),
(157,663,cs),
(472,663,l),
(460,665,l),
(39,53,ls),
(28,38,o),
(20,21,o),
(20,9,c),
(31,-5,l)
);
}
);
width = 544;
},
{
associatedMasterId = "60CFBDE8-BC08-4808-BF41-F011F3E03A54";
layerId = "74BA34CF-4905-4CBB-8A1B-2D4120369D78";
name = "Light Aug 26 15, 11:02";
shapes = (
{
closed = 1;
nodes = (
(71,0,o),
(115,0,o),
(155,0,cs),
(381,0,ls),
(467,0,o),
(524,53,o),
(524,123,cs),
(524,162,o),
(506,220,o),
(467,220,cs),
(459,220,o),
(457,217,o),
(448,212,c),
(472,198,o),
(492,167,o),
(494,124,cs),
(494,73,o),
(466,26,o),
(367,26,cs),
(46,26,l),
(46,13,l),
(474,633,ls),
(483,646,o),
(489,663,o),
(489,685,c),
(472,694,l),
(450,689,o),
(413,689,o),
(344,689,cs),
(154,689,ls),
(68,689,o),
(20,640,o),
(20,583,cs),
(20,544,o),
(43,499,o),
(77,499,cs),
(87,499,o),
(94,503,o),
(97,509,c),
(65,528,o),
(48,548,o),
(48,582,cs),
(48,626,o),
(77,663,o),
(157,663,cs),
(472,663,l),
(460,665,l),
(39,53,ls),
(28,38,o),
(20,21,o),
(20,9,c),
(31,-5,l)
);
}
);
width = 544;
},
{
anchors = (
{
name = bottom;
pos = (299,0);
},
{
name = top;
pos = (299,698);
}
);
layerId = "EBFFFCD3-BAE4-48A5-9442-B72A90AD34A8";
shapes = (
{
closed = 1;
nodes = (
(98,5,o),
(116,6,o),
(153,5,cs),
(417,-2,ls),
(524,-4,o),
(574,43,o),
(574,109,cs),
(574,156,o),
(548,190,o),
(508,206,cs),
(500,210,o),
(493,214,o),
(475,217,c),
(479,200,o),
(478,181,o),
(465,162,cs),
(454,144,o),
(426,125,o),
(381,122,cs),
(119,103,l),
(137,67,l),
(516,557,ls),
(545,593,o),
(551,619,o),
(551,664,c),
(534,705,l),
(501,694,o),
(458,693,o),
(419,694,cs),
(216,701,ls),
(92,705,o),
(40,653,o),
(40,587,cs),
(40,554,o),
(56,526,o),
(79,511,cs),
(96,498,o),
(119,489,o),
(142,485,c),
(136,503,o),
(138,519,o),
(150,542,cs),
(163,565,o),
(196,575,o),
(228,577,cs),
(465,596,l),
(453,635,l),
(78,135,ls),
(49,100,o),
(44,72,o),
(44,26,c),
(62,-7,l)
);
}
);
width = 597;
}
);
unicode = 90;
},
{
glyphname = a;
kernLeft = a;
kernRight = a;
lastChange = "2022-05-18 16:36:30 +0000";
layers = (
{
associatedMasterId = "60CFBDE8-BC08-4808-BF41-F011F3E03A54";
layerId = "B7BC3A45-3302-4EF5-88B1-0FF8A218F913";
name = "Light Jul 3 15, 18:32";
shapes = (
{
closed = 1;
nodes = (
(568,28,o),
(551,18,o),
(531,18,cs),
(505,18,o),
(491,39,o),
(491,71,cs),
(491,318,ls),
(491,439,o),
(430,515,o),
(298,515,cs),
(197,515,o),
(131,473,o),
(131,399,cs),
(131,358,o),
(157,332,o),
(185,326,cs),
(205,321,o),
(222,326,o),
(225,344,c),
(193,342,o),
(160,355,o),
(160,403,cs),
(160,469,o),
(236,487,o),
(295,487,cs),
(412,487,o),
(461,425,o),
(461,318,cs),
(461,73,ls),
(461,19,o),
(489,-10,o),
(531,-10,cs),
(559,-10,o),
(585,2,o),
(585,24,cs),
(585,30,o),
(583,37,o),
(576,45,c)
);
},
{
closed = 1;
nodes = (
(464,200,o),
(459,189,o),
(453,178,cs),
(400,82,o),
(309,18,o),
(232,18,cs),
(168,18,o),
(146,61,o),
(146,101,cs),
(146,165,o),
(191,210,o),
(269,232,cs),
(344,253,o),
(420,256,o),
(477,249,c),
(470,271,l),
(420,277,o),
(343,280,o),
(267,259,cs),
(165,231,o),
(114,175,o),
(114,98,cs),
(114,41,o),
(151,-9,o),
(231,-9,cs),
(320,-9,o),
(415,60,o),
(471,171,c),
(469,211,l)
);
}
);
width = 600;
},
{
anchors = (
{
name = bottom;
pos = (267,0);
},
{
name = ogonek;
pos = (479,-3);
},
{
name = top;
pos = (253,500);
}
);
annotations = (
{
pos = (346,-79);
text = "j￯﾿ﾃ￯ﾾﾡ est￯﾿ﾃ￯ﾾﾡ mais pequeno";
type = Text;
},
{
pos = (217,-577);
type = Text;
},
{
pos = (473,33);
type = Circle;
width = 104.361;
},
{
pos = (873.069,358.251);
type = Text;
}
);
layerId = "60CFBDE8-BC08-4808-BF41-F011F3E03A54";
shapes = (
{
closed = 1;
nodes = (
(495,-10,o),
(521,2,o),
(521,24,cs),
(521,30,o),
(519,37,o),
(512,45,c),
(504,28,o),
(487,18,o),
(474,18,cs),
(450,18,o),
(436,34,o),
(436,71,cs),
(436,298,ls),
(436,437,o),
(376,512,o),
(247,512,cs),
(143,512,o),
(76,474,o),
(76,395,cs),
(76,357,o),
(98,312,o),
(128,312,cs),
(134,312,o),
(147,315,o),
(155,328,c),
(121,336,o),
(105,371,o),
(105,397,cs),
(105,468,o),
(182,484,o),
(241,484,cs),
(357,484,o),
(406,422,o),
(406,298,cs),
(406,272,l),
(344,279,o),
(270,274,o),
(212,259,cs),
(106,230,o),
(55,173,o),
(55,102,cs),
(55,38,o),
(93,-12,o),
(173,-12,cs),
(271,-12,o),
(373,63,o),
(420,194,c),
(406,206,l),
(406,73,ls),
(406,23,o),
(426,-10,o),
(473,-10,cs)
);
},
{
closed = 1;
nodes = (
(111,15,o),
(87,58,o),
(87,104,cs),
(87,166,o),
(133,208,o),
(214,232,cs),
(264,247,o),
(352,256,o),
(406,251,c),
(403,136,o),
(281,15,o),
(179,15,cs)
);
}
);
width = 534;
},
{
associatedMasterId = "60CFBDE8-BC08-4808-BF41-F011F3E03A54";
layerId = "537711DB-26AD-4752-B4EA-540C4D802B62";
name = "Light Jul 3 15, 18:35";
shapes = (
{
closed = 1;
nodes = (
(568,28,o),
(551,18,o),
(532,18,cs),
(505,18,o),
(491,38,o),
(491,71,cs),
(491,298,ls),
(491,439,o),
(431,515,o),
(295,515,cs),
(198,515,o),
(131,476,o),
(131,399,cs),
(131,380,o),
(134,361,o),
(146,342,cs),
(161,318,o),
(177,309,o),
(204,320,c),
(170,340,o),
(160,374,o),
(160,400,cs),
(160,471,o),
(237,487,o),
(296,487,cs),
(412,487,o),
(461,424,o),
(461,298,cs),
(461,73,ls),
(461,19,o),
(489,-10,o),
(531,-10,cs),
(559,-10,o),
(585,2,o),
(585,24,cs),
(585,30,o),
(583,37,o),
(576,45,c)
);
},
{
closed = 1;
nodes = (
(426,105,o),
(338,18,o),
(231,18,cs),
(165,18,o),
(142,60,o),
(142,103,cs),
(142,163,o),
(185,208,o),
(269,232,cs),
(340,253,o),
(427,256,o),
(477,249,c),
(470,271,l),
(420,277,o),
(343,280,o),
(267,259,cs),
(162,231,o),
(110,173,o),
(110,101,cs),
(110,40,o),
(148,-9,o),
(229,-9,cs),
(321,-9,o),
(425,57,o),
(471,171,c),
(469,211,l)
);
}
);
width = 600;
},
{
associatedMasterId = "60CFBDE8-BC08-4808-BF41-F011F3E03A54";
layerId = "A6669C1B-9C62-41FA-85A7-2955550209DC";
name = "Light Jul 3 15, 18:44";
shapes = (
{
closed = 1;
nodes = (
(568,28,o),
(551,18,o),
(532,18,cs),
(505,18,o),
(491,38,o),
(491,71,cs),
(491,298,ls),
(491,439,o),
(431,515,o),
(295,515,cs),
(198,515,o),
(131,476,o),
(131,399,cs),
(131,380,o),
(134,361,o),
(146,342,cs),
(161,318,o),
(177,309,o),
(204,320,c),
(170,340,o),
(160,374,o),
(160,400,cs),
(160,471,o),
(237,487,o),
(296,487,cs),
(412,487,o),
(461,424,o),
(461,298,cs),
(461,73,ls),
(461,19,o),
(489,-10,o),
(531,-10,cs),
(559,-10,o),
(585,2,o),
(585,24,cs),
(585,30,o),
(583,37,o),
(576,45,c)
);
},
{
closed = 1;
nodes = (
(461,139,o),
(335,18,o),
(231,18,cs),
(165,18,o),
(142,60,o),
(142,103,cs),
(142,163,o),
(185,208,o),
(269,232,cs),
(340,253,o),
(427,256,o),
(477,249,c),
(470,271,l),
(420,277,o),
(343,280,o),
(267,259,cs),
(162,231,o),
(110,173,o),
(110,101,cs),
(110,40,o),
(148,-9,o),
(229,-9,cs),
(323,-9,o),
(422,61,o),
(469,180,c),
(461,255,l)
);
}
);
width = 600;
},
{
associatedMasterId = "60CFBDE8-BC08-4808-BF41-F011F3E03A54";
layerId = "2D932B40-8D45-4AB8-8601-B9478DCCDAA9";
name = "Bold Jul 3 15, 18:44";
shapes = (
{
closed = 1;
nodes = (
(560,98,o),
(547,88,o),
(532,88,cs),
(512,88,o),
(501,108,o),
(501,141,cs),
(501,298,ls),
(501,455,o),
(438,535,o),
(290,535,cs),
(178,535,o),
(101,489,o),
(101,402,cs),
(101,320,o),
(170,287,o),
(264,320,c),
(245,340,o),
(240,375,o),
(240,398,cs),
(240,455,o),
(272,467,o),
(294,467,cs),
(345,467,o),
(361,406,o),
(361,298,cs),
(360,127,ls),
(360,38,o),
(413,-10,o),
(487,-10,cs),
(584,-10,o),
(595,71,o),
(566,115,c)
);
},
{
closed = 1;
nodes = (
(360,190,o),
(327,93,o),
(268,93,cs),
(243,93,o),
(232,111,o),
(232,130,cs),
(232,158,o),
(243,177,o),
(271,192,cs),
(341,232,o),
(434,229,o),
(477,219,c),
(470,281,l),
(420,287,o),
(347,289,o),
(267,270,cs),
(147,241,o),
(80,179,o),
(80,100,cs),
(80,40,o),
(118,-9,o),
(201,-9,cs),
(295,-9,o),
(374,64,o),
(394,211,c),
(360,282,l)
);
}
);
width = 600;
},
{
associatedMasterId = "60CFBDE8-BC08-4808-BF41-F011F3E03A54";
layerId = "FD394990-A46C-462C-80C4-04287CE0A684";
name = "Bold Jul 6 15, 11:17";
shapes = (
{
closed = 1;
nodes = (
(547,-10,o),
(585,27,o),
(585,70,cs),
(585,84,o),
(581,103,o),
(571,118,c),
(565,110,o),
(552,108,o),
(545,108,cs),
(522,108,o),
(511,126,o),
(511,161,cs),
(511,318,ls),
(511,459,o),
(441,535,o),
(274,535,cs),
(146,535,o),
(56,490,o),
(56,409,cs),
(56,355,o),
(96,314,o),
(167,314,cs),
(200,314,o),
(232,323,o),
(249,340,c),
(221,358,o),
(215,388,o),
(215,415,cs),
(215,467,o),
(237,491,o),
(276,491,cs),
(334,491,o),
(351,436,o),
(351,328,cs),
(351,297,l),
(314,301,o),
(268,296,o),
(214,281,cs),
(123,256,o),
(30,210,o),
(30,111,cs),
(30,30,o),
(92,-9,o),
(165,-9,cs),
(282,-9,o),
(370,89,o),
(386,194,c),
(360,198,l),
(360,180,ls),
(360,35,o),
(406,-10,o),
(480,-10,cs)
);
},
{
closed = 1;
nodes = (
(228,92,o),
(212,109,o),
(212,139,cs),
(212,159,o),
(219,190,o),
(260,218,cs),
(283,234,o),
(319,249,o),
(355,255,c),
(355,160,o),
(297,95,o),
(252,93,cs)
);
}
);
width = 600;
},
{
associatedMasterId = "60CFBDE8-BC08-4808-BF41-F011F3E03A54";
layerId = "EEC828D0-F988-4DB9-8FB6-3448FA210DBB";
name = "Light Jul 29 15, 15:43";
shapes = (
{
closed = 1;
nodes = (
(504,-10,o),
(530,2,o),
(530,24,cs),
(530,30,o),
(528,37,o),
(521,45,c),
(513,28,o),
(496,18,o),
(477,18,cs),
(450,18,o),
(436,38,o),
(436,71,cs),
(436,298,ls),
(436,437,o),
(376,512,o),
(247,512,cs),
(143,512,o),
(76,474,o),
(76,395,cs),
(76,357,o),
(98,312,o),
(128,312,cs),
(134,312,o),
(147,315,o),
(155,328,c),
(121,336,o),
(105,371,o),
(105,397,cs),
(105,468,o),
(182,484,o),
(241,484,cs),
(357,484,o),
(406,422,o),
(406,298,cs),
(406,272,l),
(344,279,o),
(270,274,o),
(212,259,cs),
(106,230,o),
(55,173,o),
(55,102,cs),
(55,38,o),
(93,-12,o),
(173,-12,cs),
(271,-12,o),
(373,63,o),
(420,194,c),
(406,206,l),
(406,73,ls),
(406,19,o),
(434,-10,o),
(476,-10,cs)
);
},
{
closed = 1;
nodes = (
(111,15,o),
(87,58,o),
(87,104,cs),
(87,166,o),
(133,208,o),
(214,232,cs),
(264,247,o),
(352,256,o),
(406,251,c),
(403,136,o),
(281,15,o),
(174,15,cs)
);
}
);
width = 545;
},
{
associatedMasterId = "60CFBDE8-BC08-4808-BF41-F011F3E03A54";
layerId = "2ABACD32-D31A-402D-BA04-93307D2F06DD";
name = "Light Jul 29 15, 15:55";
shapes = (
{
closed = 1;
nodes = (
(504,-10,o),
(530,2,o),
(530,24,cs),
(530,30,o),
(528,37,o),
(521,45,c),
(513,28,o),
(496,18,o),
(477,18,cs),
(450,18,o),
(436,38,o),
(436,71,cs),
(436,298,ls),
(436,437,o),
(376,512,o),
(247,512,cs),
(143,512,o),
(76,474,o),
(76,395,cs),
(76,357,o),
(98,312,o),
(128,312,cs),
(134,312,o),
(147,315,o),
(155,328,c),
(121,336,o),
(105,371,o),
(105,397,cs),
(105,468,o),
(182,484,o),
(241,484,cs),
(357,484,o),
(406,422,o),
(406,298,cs),
(406,272,l),
(344,279,o),
(270,274,o),
(212,259,cs),
(106,230,o),
(55,173,o),
(55,102,cs),
(55,38,o),
(93,-12,o),
(173,-12,cs),
(271,-12,o),
(373,63,o),
(420,194,c),
(406,206,l),
(406,73,ls),
(406,12,o),
(434,-10,o),
(476,-10,cs)
);
},
{
closed = 1;
nodes = (
(111,15,o),
(87,58,o),
(87,104,cs),
(87,166,o),
(133,208,o),
(214,232,cs),
(264,247,o),
(352,256,o),
(406,251,c),
(403,136,o),
(281,15,o),
(179,15,cs)
);
}
);
width = 545;
},
{
associatedMasterId = "60CFBDE8-BC08-4808-BF41-F011F3E03A54";
layerId = "7471FE37-777F-4D82-8255-C7663D8BE89A";
name = "Light Jul 29 15, 15:55";
shapes = (
{
closed = 1;
nodes = (
(495,-10,o),
(521,2,o),
(521,24,cs),
(521,30,o),
(519,37,o),
(512,45,c),
(504,28,o),
(487,18,o),
(474,18,cs),
(450,18,o),
(436,34,o),
(436,71,cs),
(436,298,ls),
(436,437,o),
(376,512,o),
(247,512,cs),
(143,512,o),
(76,474,o),
(76,395,cs),
(76,357,o),
(98,312,o),
(128,312,cs),
(134,312,o),
(147,315,o),
(155,328,c),
(121,336,o),
(105,371,o),
(105,397,cs),
(105,468,o),
(182,484,o),
(241,484,cs),
(357,484,o),
(406,422,o),
(406,298,cs),
(406,272,l),
(344,279,o),
(270,274,o),
(212,259,cs),
(106,230,o),
(55,173,o),
(55,102,cs),
(55,38,o),
(93,-12,o),
(173,-12,cs),
(271,-12,o),
(373,63,o),
(420,194,c),
(406,206,l),
(406,73,ls),
(406,12,o),
(434,-10,o),
(473,-10,cs)
);
},
{
closed = 1;
nodes = (
(111,15,o),
(87,58,o),
(87,104,cs),
(87,166,o),
(133,208,o),
(214,232,cs),
(264,247,o),
(352,256,o),
(406,251,c),
(403,136,o),
(281,15,o),
(179,15,cs)
);
}
);
width = 545;
},
{
associatedMasterId = "60CFBDE8-BC08-4808-BF41-F011F3E03A54";
layerId = "229CEB00-3207-46EA-AD86-9C34C53F203B";
name = "Bold Jul 29 15, 16:13";
shapes = (
{
closed = 1;
nodes = (
(548,-10,o),
(586,27,o),
(586,70,cs),
(586,84,o),
(582,103,o),
(572,118,c),
(566,110,o),
(553,108,o),
(546,108,cs),
(523,108,o),
(512,126,o),
(512,161,cs),
(512,318,ls),
(512,477,o),
(442,535,o),
(285,535,cs),
(146,535,o),
(57,490,o),
(57,409,cs),
(57,355,o),
(97,314,o),
(168,314,cs),
(201,314,o),
(233,323,o),
(250,340,c),
(222,358,o),
(216,388,o),
(216,415,cs),
(216,467,o),
(238,491,o),
(277,491,cs),
(335,491,o),
(352,436,o),
(352,328,cs),
(352,303,l),
(315,300,o),
(269,296,o),
(215,281,cs),
(131,258,o),
(30,211,o),
(30,109,cs),
(30,30,o),
(91,-9,o),
(170,-9,cs),
(296,-9,o),
(370,89,o),
(387,194,c),
(361,198,l),
(361,142,ls),
(361,49,o),
(407,-10,o),
(481,-10,cs)
);
},
{
closed = 1;
nodes = (
(217,88,o),
(202,119,o),
(202,150,cs),
(202,186,o),
(223,215,o),
(251,232,cs),
(281,250,o),
(318,254,o),
(356,255,c),
(356,160,o),
(299,99,o),
(253,93,cs)
);
}
);
width = 596;
},
{
associatedMasterId = "60CFBDE8-BC08-4808-BF41-F011F3E03A54";
layerId = "713F6FFE-C656-4EAF-9452-8B8C4EF01F26";
name = "Bold Aug 11 15, 17:12";
shapes = (
{
closed = 1;
nodes = (
(536,-10,o),
(574,27,o),
(574,70,cs),
(574,84,o),
(570,103,o),
(560,118,c),
(554,110,o),
(542,108,o),
(536,108,cs),
(514,108,o),
(504,126,o),
(504,161,cs),
(504,318,ls),
(504,477,o),
(435,535,o),
(281,535,cs),
(144,535,o),
(57,490,o),
(57,409,cs),
(57,355,o),
(97,314,o),
(169,314,cs),
(203,314,o),
(235,323,o),
(252,340,c),
(226,358,o),
(221,388,o),
(221,415,cs),
(221,467,o),
(238,491,o),
(273,491,cs),
(324,491,o),
(338,436,o),
(338,328,cs),
(338,303,l),
(305,300,o),
(263,296,o),
(211,281,cs),
(132,258,o),
(30,211,o),
(30,109,cs),
(30,30,o),
(91,-9,o),
(167,-9,cs),
(291,-9,o),
(360,89,o),
(374,194,c),
(348,198,l),
(348,180,ls),
(348,35,o),
(394,-10,o),
(468,-10,cs)
);
},
{
closed = 1;
nodes = (
(221,88,o),
(208,119,o),
(208,150,cs),
(208,186,o),
(226,215,o),
(248,232,cs),
(274,251,o),
(307,254,o),
(342,255,c),
(343,160,o),
(293,99,o),
(253,93,cs)
);
}
);
width = 584;
},
{
associatedMasterId = "60CFBDE8-BC08-4808-BF41-F011F3E03A54";
layerId = "271ED4CB-7F77-42DC-BC92-8423935A5DBF";
name = "Bold Aug 11 15, 17:27";
shapes = (
{
closed = 1;
nodes = (
(536,-10,o),
(574,27,o),
(574,70,cs),
(574,84,o),
(570,103,o),
(560,118,c),
(554,110,o),
(542,108,o),
(536,108,cs),
(514,108,o),
(504,126,o),
(504,161,cs),
(504,318,ls),
(504,477,o),
(435,535,o),
(281,535,cs),
(144,535,o),
(57,490,o),
(57,409,cs),
(57,355,o),
(97,314,o),
(169,314,cs),
(203,314,o),
(235,323,o),
(252,340,c),
(226,358,o),
(221,388,o),
(221,415,cs),
(221,467,o),
(238,491,o),
(273,491,cs),
(324,491,o),
(338,436,o),
(338,328,cs),
(338,303,l),
(305,300,o),
(263,296,o),
(211,281,cs),
(132,258,o),
(30,211,o),
(30,109,cs),
(30,30,o),
(91,-9,o),
(167,-9,cs),
(291,-9,o),
(360,89,o),
(374,194,c),
(348,198,l),
(348,180,ls),
(348,35,o),
(394,-10,o),
(468,-10,cs)
);
},
{
closed = 1;
nodes = (
(221,88,o),
(208,119,o),
(208,150,cs),
(208,186,o),
(226,215,o),
(248,232,cs),
(274,251,o),
(307,254,o),
(342,255,c),
(343,160,o),
(293,99,o),
(253,93,cs)
);
}
);
width = 584;
},
{
anchors = (
{
name = bottom;
pos = (284,0);
},
{
name = ogonek;
pos = (471,-10);
},
{
name = top;
pos = (274,516);
}
);
layerId = "EBFFFCD3-BAE4-48A5-9442-B72A90AD34A8";
shapes = (
{
closed = 1;
nodes = (
(526,-10,o),
(562,23,o),
(562,62,cs),
(562,74,o),
(558,91,o),
(549,105,c),
(542,95,o),
(529,92,o),
(522,92,cs),
(500,92,o),
(489,110,o),
(489,145,cs),
(489,314,ls),
(489,470,o),
(422,531,o),
(273,531,cs),
(142,531,o),
(58,487,o),
(58,407,cs),
(58,355,o),
(95,314,o),
(160,314,cs),
(189,314,o),
(217,322,o),
(233,338,c),
(205,354,o),
(198,385,o),
(198,412,cs),
(198,465,o),
(226,486,o),
(265,486,cs),
(328,486,o),
(348,431,o),
(348,323,cs),
(348,298,l),
(310,296,o),
(262,292,o),
(209,277,cs),
(126,253,o),
(34,204,o),
(34,108,cs),
(34,31,o),
(90,-10,o),
(166,-10,cs),
(285,-10,o),
(360,84,o),
(380,194,c),
(356,199,l),
(356,161,ls),
(356,33,o),
(398,-10,o),
(467,-10,cs)
);
},
{
closed = 1;
nodes = (
(200,75,o),
(185,108,o),
(185,142,cs),
(185,182,o),
(208,214,o),
(240,232,cs),
(271,250,o),
(313,254,o),
(352,254,c),
(352,156,o),
(289,84,o),
(238,79,cs)
);
}
);
width = 568;
}
);
unicode = 97;
},
{
glyphname = acircumflexacute;
kernLeft = a;
kernRight = a;
lastChange = "2022-05-18 16:38:30 +0000";
layers = (
{
layerId = "60CFBDE8-BC08-4808-BF41-F011F3E03A54";
shapes = (
{
ref = a;
},
{
pos = (0,-1);
ref = circumflexcomb_acutecomb;
}
);
width = 534;
},
{
anchors = (
{
name = _top;
pos = (246,500);
},
{
name = top;
pos = (246,644);
}
);
associatedMasterId = "60CFBDE8-BC08-4808-BF41-F011F3E03A54";
layerId = "C5B00ED1-EC49-44B0-8ECD-C2F732F79240";
name = "Light Sep 21 15, 15:49";
shapes = (
{
closed = 1;
nodes = (
(251,666,o),
(240,666,o),
(228,664,c),
(128,564,l),
(131,558,o),
(138,551,o),
(144,548,c),
(246,632,l),
(347,548,l),
(353,551,o),
(360,558,o),
(363,564,c),
(263,664,l)
);
},
{
closed = 1;
nodes = (
(437,693,o),
(415,700,o),
(404,697,c),
(340,602,l),
(343,599,o),
(357,596,o),
(365,597,c),
(446,687,l)
);
},
{
ref = a;
}
);
width = 534;
},
{
associatedMasterId = "60CFBDE8-BC08-4808-BF41-F011F3E03A54";
layerId = "B44A4C46-57C9-4135-B0DA-C51D61A6A1AF";
name = "Bold Sep 21 15, 17:02";
shapes = (
{
ref = a;
},
{
pos = (-47,0);
ref = circumflexcomb;
},
{
pos = (1,123);
ref = acutecomb;
}
);
width = 534;
},
{
anchors = (
{
name = _top;
pos = (279,520);
},
{
name = top;
pos = (272,700);
}
);
associatedMasterId = "60CFBDE8-BC08-4808-BF41-F011F3E03A54";
layerId = "30986665-7730-4E2C-8435-F0DA00B364F6";
name = "Bold Sep 21 15, 17:04";
shapes = (
{
closed = 1;
nodes = (
(274,651,l),
(410,554,l),
(422,554,o),
(447,566,o),
(447,571,c),
(312,740,l),
(300,747,o),
(247,746,o),
(235,740,c),
(100,571,l),
(100,566,o),
(125,555,o),
(137,554,c)
);
},
{
closed = 1;
nodes = (
(603,787,l),
(592,798,o),
(530,820,o),
(496,814,c),
(406,650,l),
(415,645,o),
(441,641,o),
(459,640,c)
);
},
{
ref = a;
}
);
width = 575;
},
{
layerId = "EBFFFCD3-BAE4-48A5-9442-B72A90AD34A8";
shapes = (
{
ref = a;
},
{
pos = (0,11);
ref = circumflexcomb_acutecomb;
}
);
width = 568;
}
);
unicode = 7845;
},
{
glyphname = acircumflexgrave;
kernLeft = a;
kernRight = a;
lastChange = "2022-05-18 16:38:34 +0000";
layers = (
{
layerId = "60CFBDE8-BC08-4808-BF41-F011F3E03A54";
shapes = (
{
ref = a;
},
{
pos = (4,-10);
ref = circumflexcomb_gravecomb;
}
);
width = 534;
},
{
associatedMasterId = "60CFBDE8-BC08-4808-BF41-F011F3E03A54";
layerId = "736CB22D-C0AD-420E-8A56-806BC5D95F59";
name = "Light Sep 21 15, 15:50";
shapes = (
{
ref = a;
},
{
pos = (-47,0);
ref = circumflexcomb;
},
{
pos = (-61,123);
ref = gravecomb;
}
);
width = 534;
},
{
associatedMasterId = "60CFBDE8-BC08-4808-BF41-F011F3E03A54";
layerId = "5BB85BB4-1902-4C80-A8C7-AF99B4AA9D0A";
name = "Bold Sep 21 15, 17:06";
shapes = (
{
closed = 1;
nodes = (
(274,634,l),
(395,554,l),
(407,554,o),
(432,566,o),
(432,571,c),
(312,723,l),
(300,730,o),
(247,729,o),
(235,723,c),
(115,571,l),
(115,566,o),
(140,555,o),
(152,554,c)
);
},
{
closed = 1;
nodes = (
(600,773,l),
(589,784,o),
(527,806,o),
(493,800,c),
(406,650,l),
(415,645,o),
(441,641,o),
(459,640,c)
);
},
{
ref = a;
}
);
width = 575;
},
{
layerId = "EBFFFCD3-BAE4-48A5-9442-B72A90AD34A8";
shapes = (
{
ref = a;
},
{
pos = (0,11);
ref = circumflexcomb_gravecomb;
}
);
width = 568;
}
);
unicode = 7847;
},
{
glyphname = ascript;
kernLeft = o;
kernRight = d;
lastChange = "2022-03-16 13:10:31 +0000";
layers = (
{
anchors = (
{
name = bottom;
pos = (274,0);
},
{
name = top;
pos = (274,500);
}
);
layerId = "60CFBDE8-BC08-4808-BF41-F011F3E03A54";
shapes = (
{
closed = 1;
nodes = (
(355,-12,o),
(417,112,o),
(434,229,c),
(411,200,l),
(411,73,ls),
(411,20,o),
(430,-7,o),
(468,-7,cs),
(492,-7,o),
(508,2,o),
(508,17,cs),
(508,24,o),
(505,31,o),
(498,39,c),
(491,23,o),
(479,21,o),
(471,21,cs),
(453,21,o),
(441,34,o),
(441,71,cs),
(442,488,ls),
(442,499,o),
(438,510,o),
(422,510,cs),
(415,510,o),
(413,508,o),
(409,504,c),
(412,494,o),
(413,447,o),
(411,418,c),
(389,478,o),
(334,509,o),
(261,509,cs),
(123,509,o),
(53,398,o),
(53,222,cs),
(53,144,o),
(67,-12,o),
(219,-12,cs)
);
},
{
closed = 1;
nodes = (
(97,16,o),
(85,150,o),
(85,225,cs),
(85,401,o),
(151,481,o),
(259,481,cs),
(387,481,o),
(411,368,o),
(411,282,cs),
(411,131,o),
(336,16,o),
(221,16,cs)
);
}
);
width = 544;
},
{
associatedMasterId = "60CFBDE8-BC08-4808-BF41-F011F3E03A54";
layerId = "4258C924-392D-4A59-8FF3-D1F4F66C4F7B";
name = "Light Sep 16 15, 11:32";
shapes = (
{
closed = 1;
nodes = (
(358,-12,o),
(417,114,o),
(434,229,c),
(411,200,l),
(411,73,ls),
(411,19,o),
(439,-10,o),
(481,-10,cs),
(509,-10,o),
(535,2,o),
(535,24,cs),
(535,30,o),
(533,37,o),
(526,45,c),
(518,28,o),
(501,18,o),
(482,18,cs),
(455,18,o),
(441,38,o),
(441,71,cs),
(442,706,ls),
(442,720,o),
(435,728,o),
(423,728,cs),
(414,728,o),
(409,724,o),
(405,720,c),
(408,708,o),
(410,678,o),
(410,628,cs),
(411,414,l),
(391,471,o),
(335,509,o),
(264,509,cs),
(123,509,o),
(53,399,o),
(53,225,cs),
(53,146,o),
(67,-12,o),
(217,-12,cs)
);
},
{
closed = 1;
nodes = (
(97,16,o),
(85,151,o),
(85,228,cs),
(85,399,o),
(151,481,o),
(269,481,cs),
(387,481,o),
(411,370,o),
(411,278,cs),
(411,132,o),
(336,16,o),
(219,16,cs)
);
}
);
width = 600;
},
{
associatedMasterId = "60CFBDE8-BC08-4808-BF41-F011F3E03A54";
layerId = "0C11FD63-6C60-4567-80E4-1791D186DDA3";
name = "Bold Sep 16 15, 11:33";
shapes = (
{
closed = 1;
nodes = (
(307,-15,o),
(371,45,o),
(389,205,c),
(368,224,l),
(368,196,ls),
(368,71,o),
(404,-10,o),
(491,-10,cs),
(547,-10,o),
(591,24,o),
(591,70,cs),
(591,84,o),
(587,103,o),
(577,118,c),
(571,110,o),
(558,108,o),
(551,108,cs),
(528,108,o),
(517,126,o),
(517,161,cs),
(517,653,ls),
(517,704,o),
(477,734,o),
(425,734,cs),
(380,734,o),
(347,711,o),
(333,699,c),
(357,619,o),
(360,533,o),
(360,488,cs),
(360,485,l),
(342,517,o),
(304,535,o),
(246,535,cs),
(108,535,o),
(30,432,o),
(30,244,cs),
(30,81,o),
(89,-15,o),
(211,-15,cs)
);
},
{
closed = 1;
nodes = (
(221,70,o),
(202,113,o),
(202,247,cs),
(202,377,o),
(220,458,o),
(290,458,cs),
(350,458,o),
(357,400,o),
(357,332,cs),
(357,206,o),
(333,70,o),
(261,70,cs)
);
}
);
width = 600;
},
{
anchors = (
{
name = bottom;
pos = (294,0);
},
{
name = top;
pos = (294,516);
}
);
layerId = "EBFFFCD3-BAE4-48A5-9442-B72A90AD34A8";
shapes = (
{
closed = 1;
nodes = (
(315,-14,o),
(379,57,o),
(397,209,c),
(376,220,l),
(376,174,ls),
(376,62,o),
(409,-9,o),
(487,-9,cs),
(537,-9,o),
(576,20,o),
(576,61,cs),
(576,73,o),
(572,90,o),
(563,104,c),
(557,95,o),
(544,93,o),
(537,93,cs),
(515,93,o),
(503,110,o),
(503,145,cs),
(504,460,ls),
(504,504,o),
(471,531,o),
(422,531,cs),
(406,531,o),
(390,528,o),
(378,517,c),
(376,501,o),
(373,487,o),
(369,473,c),
(350,510,o),
(309,530,o),
(249,530,cs),
(111,530,o),
(34,426,o),
(34,240,cs),
(34,92,o),
(85,-14,o),
(212,-14,cs)
);
},
{
closed = 1;
nodes = (
(199,60,o),
(181,120,o),
(181,243,cs),
(181,381,o),
(207,462,o),
(284,462,cs),
(356,462,o),
(366,394,o),
(366,323,cs),
(366,193,o),
(333,60,o),
(254,60,cs)
);
}
);
width = 592;
}
);
metricLeft = d;
metricRight = d;
unicode = 593;
},
{
glyphname = ae;
kernLeft = a;
kernRight = e;
lastChange = "2022-05-18 16:36:30 +0000";
layers = (
{
anchors = (
{
name = top;
pos = (429,500);
}
);
layerId = "60CFBDE8-BC08-4808-BF41-F011F3E03A54";
shapes = (
{
closed = 1;
nodes = (
(267,-12,o),
(366,57,o),
(415,177,c),
(409,178,l),
(429,52,o),
(505,-12,o),
(620,-12,cs),
(696,-12,o),
(762,15,o),
(787,72,cs),
(799,100,o),
(791,110,o),
(779,115,c),
(761,45,o),
(692,17,o),
(623,17,cs),
(530,17,o),
(442,68,o),
(437,234,c),
(469,229,o),
(505,224,o),
(553,224,cs),
(706,224,o),
(790,274,o),
(790,375,cs),
(790,463,o),
(727,512,o),
(628,512,cs),
(525,512,o),
(455,460,o),
(425,370,c),
(430,369,l),
(411,463,o),
(352,512,o),
(247,512,cs),
(143,512,o),
(76,474,o),
(76,395,cs),
(76,357,o),
(98,312,o),
(128,312,cs),
(134,312,o),
(147,315,o),
(155,328,c),
(121,336,o),
(105,371,o),
(105,397,cs),
(105,468,o),
(182,484,o),
(241,484,cs),
(357,484,o),
(406,422,o),
(406,298,cs),
(406,272,l),
(344,279,o),
(270,274,o),
(212,259,cs),
(106,230,o),
(55,173,o),
(55,102,cs),
(55,38,o),
(93,-12,o),
(173,-12,cs)
);
},
{
closed = 1;
nodes = (
(111,15,o),
(87,58,o),
(87,104,cs),
(87,166,o),
(133,208,o),
(214,232,cs),
(266,248,o),
(359,257,o),
(412,250,c),
(405,261,l),
(405,249,o),
(405,257,o),
(405,237,c),
(393,126,o),
(277,15,o),
(179,15,cs)
);
},
{
closed = 1;
nodes = (
(528,249,o),
(475,253,o),
(437,259,c),
(441,413,o),
(518,485,o),
(626,485,cs),
(690,485,o),
(759,460,o),
(759,375,cs),
(759,291,o),
(691,249,o),
(565,249,cs)
);
}
);
width = 849;
},
{
anchors = (
{
name = bottom;
pos = (300,0);
},
{
name = ogonek;
pos = (469,-12);
},
{
name = top;
pos = (300,520);
}
);
associatedMasterId = "60CFBDE8-BC08-4808-BF41-F011F3E03A54";
layerId = "A5733DEE-85D0-477B-94B2-56AB37FEEE62";
name = "Bold Sep 23 15, 16:29";
shapes = (
{
closed = 1;
nodes = (
(797,-10,o),
(835,27,o),
(835,70,cs),
(835,84,o),
(831,103,o),
(821,118,c),
(815,110,o),
(803,108,o),
(797,108,cs),
(775,108,o),
(765,126,o),
(765,161,cs),
(765,318,ls),
(765,477,o),
(697,535,o),
(543,535,cs),
(406,535,o),
(319,490,o),
(319,409,cs),
(319,355,o),
(359,314,o),
(431,314,cs),
(465,314,o),
(497,323,o),
(514,340,c),
(488,358,o),
(483,388,o),
(483,415,cs),
(483,464,o),
(500,487,o),
(535,487,cs),
(586,487,o),
(600,433,o),
(600,328,cs),
(600,303,l),
(567,300,o),
(525,296,o),
(473,281,cs),
(395,258,o),
(294,211,o),
(294,109,cs),
(294,30,o),
(354,-9,o),
(429,-9,cs),
(553,-9,o),
(622,89,o),
(636,194,c),
(610,198,l),
(610,180,ls),
(610,35,o),
(656,-10,o),
(730,-10,cs)
);
},
{
closed = 1;
nodes = (
(483,88,o),
(470,119,o),
(470,150,cs),
(470,186,o),
(488,215,o),
(510,232,cs),
(536,251,o),
(569,254,o),
(604,255,c),
(605,160,o),
(555,99,o),
(515,93,cs)
);
},
{
pos = (575,0);
ref = e;
}
);
width = 1118;
},
{
anchors = (
{
name = bottom;
pos = (300,0);
},
{
name = ogonek;
pos = (469,-12);
},
{
name = top;
pos = (300,520);
}
);
associatedMasterId = "60CFBDE8-BC08-4808-BF41-F011F3E03A54";
layerId = "496DEF68-AAE9-4E79-8720-0A629D6D8518";
name = "Bold Sep 23 15, 16:30";
shapes = (
{
closed = 1;
nodes = (
(483,88,o),
(470,119,o),
(470,150,cs),
(470,186,o),
(488,215,o),
(510,232,cs),
(536,251,o),
(569,254,o),
(604,255,c),
(605,160,o),
(555,99,o),
(515,93,cs)
);
},
{
closed = 1;
nodes = (
(765,176,l),
(765,318,ls),
(765,477,o),
(697,535,o),
(543,535,cs),
(406,535,o),
(319,490,o),
(319,409,cs),
(319,355,o),
(359,314,o),
(431,314,cs),
(465,314,o),
(497,323,o),
(514,340,c),
(488,358,o),
(483,388,o),
(483,415,cs),
(483,464,o),
(500,487,o),
(535,487,cs),
(586,487,o),
(600,433,o),
(600,328,cs),
(600,303,l),
(567,300,o),
(525,296,o),
(473,281,cs),
(395,258,o),
(294,211,o),
(294,109,cs),
(294,30,o),
(354,-9,o),
(429,-9,cs),
(553,-9,o),
(622,89,o),
(636,194,c),
(610,198,l),
(610,180,ls),
(610,134,o),
(615,97,o),
(624,70,c)
);
},
{
pos = (572,0);
ref = e;
}
);
width = 1118;
},
{
anchors = (
{
name = top;
pos = (432,516);
}
);
layerId = "EBFFFCD3-BAE4-48A5-9442-B72A90AD34A8";
shapes = (
{
closed = 1;
nodes = (
(275,-10,o),
(348,69,o),
(378,167,c),
(367,168,l),
(396,51,o),
(485,-14,o),
(611,-14,cs),
(706,-14,o),
(776,23,o),
(802,88,cs),
(817,125,o),
(807,140,o),
(793,146,c),
(771,104,o),
(724,71,o),
(650,71,cs),
(567,71,o),
(515,112,o),
(505,230,c),
(540,226,o),
(572,226,o),
(603,226,cs),
(730,226,o),
(818,280,o),
(818,379,cs),
(818,480,o),
(727,531,o),
(612,531,cs),
(528,531,o),
(463,505,o),
(420,456,c),
(441,455,l),
(408,504,o),
(355,531,o),
(277,531,cs),
(142,531,o),
(58,487,o),
(58,407,cs),
(58,355,o),
(95,314,o),
(160,314,cs),
(189,314,o),
(217,322,o),
(233,338,c),
(205,354,o),
(198,385,o),
(198,412,cs),
(198,465,o),
(226,486,o),
(269,486,cs),
(332,486,o),
(352,431,o),
(352,323,cs),
(352,298,l),
(310,296,o),
(262,292,o),
(209,277,cs),
(126,253,o),
(34,204,o),
(34,108,cs),
(34,31,o),
(90,-10,o),
(166,-10,cs)
);
},
{
closed = 1;
nodes = (
(200,75,o),
(185,108,o),
(185,142,cs),
(185,182,o),
(208,214,o),
(240,232,cs),
(276,253,o),
(326,255,o),
(375,254,c),
(355,278,l),
(356,270,o),
(356,262,o),
(356,254,cs),
(356,156,o),
(289,84,o),
(238,79,cs)
);
},
{
closed = 1;
nodes = (
(515,276,o),
(509,276,o),
(503,277,c),
(503,407,o),
(541,485,o),
(607,485,cs),
(639,485,o),
(670,469,o),
(670,402,cs),
(670,284,o),
(581,275,o),
(522,276,cs)
);
}
);
width = 849;
}
);
metricLeft = a;
metricRight = e;
unicode = 230;
},
{
glyphname = b;
kernLeft = h;
kernRight = o;
lastChange = "2022-05-18 16:36:30 +0000";
layers = (
{
anchors = (
{
name = bottom;
pos = (265,0);
},
{
name = top;
pos = (265,500);
}
);
background = {
shapes = (
{
closed = 1;
nodes = (
(459,-12,o),
(476,159,o),
(476,253,cs),
(476,431,o),
(416,512,o),
(305,512,cs),
(213,512,o),
(144,464,o),
(118,386,c),
(119,635,ls),
(119,654,o),
(121,710,o),
(124,720,c),
(120,724,o),
(115,728,o),
(106,728,cs),
(94,728,o),
(87,720,o),
(87,706,c),
(87,56,l),
(134,-2,o),
(219,-12,o),
(266,-12,cs)
);
},
{
closed = 1;
nodes = (
(207,16,o),
(137,39,o),
(117,70,c),
(117,253,ls),
(117,339,o),
(161,484,o),
(298,484,cs),
(392,484,o),
(444,421,o),
(444,258,cs),
(444,169,o),
(428,16,o),
(269,16,cs)
);
}
);
};
layerId = "60CFBDE8-BC08-4808-BF41-F011F3E03A54";
shapes = (
{
closed = 1;
nodes = (
(419,-12,o),
(476,126,o),
(476,275,cs),
(476,438,o),
(417,512,o),
(306,512,cs),
(214,512,o),
(145,443,o),
(119,365,c),
(120,635,ls),
(120,654,o),
(122,710,o),
(125,720,c),
(121,724,o),
(116,728,o),
(107,728,cs),
(95,728,o),
(88,720,o),
(88,706,c),
(88,56,l),
(135,-2,o),
(220,-12,o),
(267,-12,cs)
);
},
{
closed = 1;
nodes = (
(208,14,o),
(138,39,o),
(118,70,c),
(118,220,ls),
(118,314,o),
(162,484,o),
(308,484,cs),
(393,484,o),
(445,421,o),
(445,276,cs),
(445,170,o),
(419,20,o),
(270,16,cs)
);
}
);
width = 529;
},
{
annotations = (
{
pos = (64.283,-104.699);
text = "est￯﾿ﾃ￯ﾾﾡ muito a cair para a frente ";
type = Text;
}
);
associatedMasterId = "60CFBDE8-BC08-4808-BF41-F011F3E03A54";
layerId = "FFFD4344-9600-422D-B798-A5ADED7F1869";
name = "Bold Aug 11 15, 17:39";
shapes = (
{
closed = 1;
nodes = (
(435,-15,o),
(510,91,o),
(510,277,cs),
(510,465,o),
(434,535,o),
(330,535,cs),
(258,535,o),
(209,504,o),
(187,445,c),
(187,453,ls),
(187,508,o),
(190,607,o),
(213,699,c),
(198,711,o),
(162,734,o),
(114,734,cs),
(66,734,o),
(29,704,o),
(29,653,cs),
(29,51,l),
(76,14,o),
(158,-15,o),
(256,-15,cs)
);
},
{
closed = 1;
nodes = (
(224,35,o),
(206,41,o),
(189,49,c),
(189,304,ls),
(189,414,o),
(226,465,o),
(279,465,cs),
(328,465,o),
(338,420,o),
(338,277,cs),
(338,114,o),
(318,35,o),
(244,35,cs)
);
}
);
width = 550;
},
{
annotations = (
{
pos = (64.283,-104.699);
text = "est￯﾿ﾃ￯ﾾﾡ muito a cair para a frente ";
type = Text;
}
);
associatedMasterId = "60CFBDE8-BC08-4808-BF41-F011F3E03A54";
layerId = "1162E2CC-EB02-4C5F-A40A-251009B8B252";
name = "Bold Aug 11 15, 17:49";
shapes = (
{
closed = 1;
nodes = (
(435,-15,o),
(510,91,o),
(510,277,cs),
(510,465,o),
(434,535,o),
(330,535,cs),
(258,535,o),
(209,504,o),
(187,445,c),
(187,453,ls),
(187,508,o),
(190,607,o),
(213,699,c),
(198,711,o),
(162,734,o),
(114,734,cs),
(66,734,o),
(29,704,o),
(29,653,cs),
(29,51,l),
(76,14,o),
(158,-15,o),
(256,-15,cs)
);
},
{
closed = 1;
nodes = (
(224,35,o),
(206,41,o),
(189,49,c),
(189,304,ls),
(189,414,o),
(226,465,o),
(279,465,cs),
(328,465,o),
(338,420,o),
(338,277,cs),
(338,114,o),
(318,35,o),
(244,35,cs)
);
}
);
width = 550;
},
{
associatedMasterId = "60CFBDE8-BC08-4808-BF41-F011F3E03A54";
layerId = "5802380E-6BBA-4332-AEA7-2501B9ECF4ED";
name = "Light Aug 11 15, 17:55";
shapes = (
{
closed = 1;
nodes = (
(463,-12,o),
(480,166,o),
(480,255,cs),
(480,429,o),
(420,509,o),
(307,509,cs),
(218,509,o),
(147,454,o),
(122,371,c),
(123,635,ls),
(124,680,o),
(125,708,o),
(128,720,c),
(124,724,o),
(119,728,o),
(110,728,cs),
(98,728,o),
(91,720,o),
(91,706,c),
(91,56,l),
(136,1,o),
(212,-12,o),
(276,-12,cs)
);
},
{
closed = 1;
nodes = (
(241,16,o),
(146,26,o),
(121,67,c),
(122,253,l),
(122,337,o),
(159,481,o),
(304,481,cs),
(396,481,o),
(448,418,o),
(448,258,cs),
(448,170,o),
(432,16,o),
(274,16,cs)
);
}
);
width = 560;
},
{
associatedMasterId = "60CFBDE8-BC08-4808-BF41-F011F3E03A54";
layerId = "FA0650D0-F90B-4798-A154-1C5559E2C439";
name = "Light Aug 11 15, 17:56";
shapes = (
{
closed = 1;
nodes = (
(463,-12,o),
(480,159,o),
(480,253,cs),
(480,429,o),
(420,509,o),
(309,509,cs),
(217,509,o),
(147,454,o),
(122,371,c),
(123,635,ls),
(123,654,o),
(125,710,o),
(128,720,c),
(124,724,o),
(119,728,o),
(110,728,cs),
(98,728,o),
(91,720,o),
(91,706,c),
(91,56,l),
(138,-2,o),
(223,-12,o),
(270,-12,cs)
);
},
{
closed = 1;
nodes = (
(211,16,o),
(141,39,o),
(121,70,c),
(121,253,ls),
(121,337,o),
(160,481,o),
(302,481,cs),
(396,481,o),
(448,419,o),
(448,258,cs),
(448,169,o),
(432,16,o),
(273,16,cs)
);
}
);
width = 560;
},
{
anchors = (
{
name = bottom;
pos = (265,0);
},
{
name = top;
pos = (265,500);
}
);
associatedMasterId = "60CFBDE8-BC08-4808-BF41-F011F3E03A54";
layerId = "23AF8495-E414-4B21-8134-7C1F9890328E";
name = "Light Sep 23 15, 15:50";
shapes = (
{
closed = 1;
nodes = (
(459,-12,o),
(476,159,o),
(476,253,cs),
(476,431,o),
(416,512,o),
(305,512,cs),
(213,512,o),
(144,464,o),
(118,386,c),
(119,635,ls),
(119,654,o),
(121,710,o),
(124,720,c),
(120,724,o),
(115,728,o),
(106,728,cs),
(94,728,o),
(87,720,o),
(87,706,c),
(87,56,l),
(134,-2,o),
(219,-12,o),
(266,-12,cs)
);
},
{
closed = 1;
nodes = (
(207,16,o),
(137,39,o),
(117,70,c),
(117,253,ls),
(117,339,o),
(161,484,o),
(298,484,cs),
(392,484,o),
(444,421,o),
(444,258,cs),
(444,169,o),
(428,16,o),
(269,16,cs)
);
}
);
width = 529;
},
{
anchors = (
{
name = bottom;
pos = (278,0);
},
{
name = top;
pos = (278,516);
}
);
layerId = "EBFFFCD3-BAE4-48A5-9442-B72A90AD34A8";
shapes = (
{
closed = 1;
nodes = (
(450,-14,o),
(522,97,o),
(522,277,cs),
(522,460,o),
(449,531,o),
(344,531,cs),
(269,531,o),
(216,493,o),
(194,431,c),
(194,485,ls),
(194,534,o),
(197,625,o),
(216,703,c),
(203,713,o),
(172,733,o),
(131,733,cs),
(90,733,o),
(58,707,o),
(58,662,c),
(58,52,l),
(105,11,o),
(188,-14,o),
(277,-14,cs)
);
},
{
closed = 1;
nodes = (
(240,40,o),
(213,49,o),
(195,61,c),
(195,248,ls),
(195,363,o),
(233,460,o),
(311,460,cs),
(357,460,o),
(375,405,o),
(375,277,cs),
(375,149,o),
(359,41,o),
(267,40,cs)
);
}
);
width = 556;
}
);
metricRight = o;
unicode = 98;
},
{
glyphname = c;
kernLeft = o;
kernRight = c;
lastChange = "2022-05-18 16:36:30 +0000";
layers = (
{
anchors = (
{
name = bottom;
pos = (268,0);
},
{
name = top;
pos = (271,500);
}
);
layerId = "60CFBDE8-BC08-4808-BF41-F011F3E03A54";
shapes = (
{
closed = 1;
nodes = (
(346,-12,o),
(410,21,o),
(435,92,cs),
(447,121,o),
(439,130,o),
(427,135,c),
(408,48,o),
(339,17,o),
(268,17,cs),
(177,17,o),
(85,70,o),
(85,247,cs),
(85,408,o),
(165,486,o),
(272,486,cs),
(339,486,o),
(402,455,o),
(402,387,cs),
(402,359,o),
(391,335,o),
(365,335,c),
(373,321,o),
(382,319,o),
(391,319,cs),
(417,319,o),
(434,347,o),
(434,387,cs),
(434,464,o),
(373,512,o),
(277,512,cs),
(135,512,o),
(53,409,o),
(53,243,cs),
(53,73,o),
(136,-12,o),
(265,-12,cs)
);
}
);
width = 499;
},
{
associatedMasterId = "60CFBDE8-BC08-4808-BF41-F011F3E03A54";
layerId = "23A8B97C-32DB-4976-B6DC-25F990A8F6F8";
name = "Bold Aug 11 15, 17:29";
shapes = (
{
closed = 1;
nodes = (
(395,-15,o),
(471,29,o),
(488,101,cs),
(496,140,o),
(488,160,o),
(474,166,c),
(461,123,o),
(416,83,o),
(346,83,cs),
(251,83,o),
(207,148,o),
(207,289,cs),
(207,413,o),
(234,487,o),
(284,487,cs),
(312,487,o),
(328,470,o),
(328,421,cs),
(328,385,o),
(319,360,o),
(301,339,c),
(318,322,o),
(351,313,o),
(382,313,cs),
(443,313,o),
(487,348,o),
(487,406,cs),
(487,474,o),
(428,535,o),
(296,535,cs),
(124,535,o),
(30,432,o),
(30,264,cs),
(30,87,o),
(136,-15,o),
(295,-15,cs)
);
}
);
width = 524;
},
{
anchors = (
{
name = bottom;
pos = (280,0);
},
{
name = top;
pos = (278,516);
}
);
layerId = "EBFFFCD3-BAE4-48A5-9442-B72A90AD34A8";
shapes = (
{
closed = 1;
nodes = (
(385,-14,o),
(458,28,o),
(477,99,cs),
(486,137,o),
(478,155,o),
(464,161,c),
(450,110,o),
(401,71,o),
(330,71,cs),
(235,71,o),
(181,134,o),
(181,282,cs),
(181,411,o),
(218,485,o),
(280,485,cs),
(315,485,o),
(339,467,o),
(339,415,cs),
(339,380,o),
(330,356,o),
(311,338,c),
(326,322,o),
(355,314,o),
(382,314,cs),
(437,314,o),
(476,348,o),
(476,403,cs),
(476,472,o),
(417,531,o),
(291,531,cs),
(125,531,o),
(34,428,o),
(34,260,cs),
(34,85,o),
(125,-14,o),
(288,-14,cs)
);
}
);
width = 513;
}
);
metricLeft = o;
unicode = 99;
},
{
glyphname = d;
kernLeft = o;
kernRight = d;
lastChange = "2022-05-18 16:36:30 +0000";
layers = (
{
anchors = (
{
name = bottom;
pos = (274,0);
},
{
name = center;
pos = (274,250);
},
{
name = top;
pos = (274,500);
},
{
name = topright;
pos = (528,500);
}
);
annotations = (
{
pos = (486.626,32.35);
type = Circle;
width = 105.786;
}
);
guides = (
{
pos = (264,509);
}
);
layerId = "60CFBDE8-BC08-4808-BF41-F011F3E03A54";
shapes = (
{
closed = 1;
nodes = (
(355,-12,o),
(417,112,o),
(434,229,c),
(411,200,l),
(411,73,ls),
(411,20,o),
(430,-7,o),
(468,-7,cs),
(492,-7,o),
(508,2,o),
(508,17,cs),
(508,24,o),
(505,31,o),
(498,39,c),
(491,23,o),
(479,21,o),
(471,21,cs),
(453,21,o),
(441,34,o),
(441,71,cs),
(442,706,ls),
(442,720,o),
(435,728,o),
(423,728,cs),
(414,728,o),
(409,724,o),
(405,720,c),
(408,708,o),
(410,682,o),
(410,628,cs),
(411,414,l),
(389,476,o),
(335,512,o),
(259,512,cs),
(124,512,o),
(53,400,o),
(53,222,cs),
(53,144,o),
(67,-12,o),
(219,-12,cs)
);
},
{
closed = 1;
nodes = (
(97,16,o),
(85,150,o),
(85,224,cs),
(85,401,o),
(153,484,o),
(253,484,cs),
(381,484,o),
(411,375,o),
(411,286,cs),
(411,130,o),
(336,16,o),
(221,16,cs)
);
}
);
width = 544;
},
{
associatedMasterId = "60CFBDE8-BC08-4808-BF41-F011F3E03A54";
background = {
shapes = (
{
closed = 1;
nodes = (
(545,-10,o),
(583,27,o),
(583,70,cs),
(583,84,o),
(579,103,o),
(569,118,c),
(563,110,o),
(550,108,o),
(543,108,cs),
(520,108,o),
(509,126,o),
(509,161,cs),
(509,318,ls),
(509,478,o),
(439,535,o),
(280,535,cs),
(144,535,o),
(54,490,o),
(54,409,cs),
(54,355,o),
(94,314,o),
(165,314,cs),
(198,314,o),
(230,323,o),
(247,340,c),
(219,358,o),
(213,388,o),
(213,415,cs),
(213,467,o),
(235,491,o),
(274,491,cs),
(332,491,o),
(349,436,o),
(349,328,cs),
(349,303,l),
(312,300,o),
(266,296,o),
(212,281,cs),
(125,256,o),
(27,210,o),
(27,111,cs),
(27,30,o),
(84,-9,o),
(172,-9,cs),
(289,-9,o),
(368,89,o),
(384,194,c),
(358,198,l),
(358,180,ls),
(358,35,o),
(404,-10,o),
(478,-10,cs)
);
},
{
closed = 1;
nodes = (
(214,89,o),
(199,118,o),
(199,148,cs),
(199,189,o),
(222,216,o),
(248,232,cs),
(278,250,o),
(315,254,o),
(353,255,c),
(353,160,o),
(295,98,o),
(250,93,cs)
);
}
);
};
layerId = "4A6DE2A9-904A-41B7-A4BA-A7D9B43399C7";
name = "Bold Jul 6 15, 12:29";
shapes = (
{
closed = 1;
nodes = (
(511,684,o),
(478,709,o),
(436,713,cs),
(388,718,o),
(352,691,o),
(338,679,c),
(356,614,o),
(358,543,o),
(357,511,cs),
(357,180,ls),
(354,35,o),
(406,-10,o),
(480,-10,cs),
(547,-10,o),
(585,27,o),
(585,70,cs),
(585,84,o),
(581,103,o),
(571,118,c),
(565,110,o),
(552,108,o),
(545,108,cs),
(522,108,o),
(511,126,o),
(511,161,cs),
(511,633,ls)
);
},
{
closed = 1;
nodes = (
(357,275,l),
(357,120,o),
(331,43,o),
(268,43,cs),
(223,43,o),
(206,115,o),
(206,260,cs),
(206,412,o),
(231,487,o),
(298,487,cs),
(340,487,o),
(369,476,o),
(400,387,c),
(450,444,l),
(405,503,o),
(344,535,o),
(268,535,cs),
(118,535,o),
(29,433,o),
(29,260,cs),
(29,87,o),
(110,-15,o),
(248,-15,cs),
(309,-15,o),
(388,27,o),
(410,196,c)
);
}
);
width = 600;
},
{
associatedMasterId = "60CFBDE8-BC08-4808-BF41-F011F3E03A54";
layerId = "AF31EFD9-4119-468F-A5CA-EB35BFF0231D";
name = "Light Jul 6 15, 14:12";
shapes = (
{
closed = 1;
nodes = (
(350,-9,o),
(436,65,o),
(475,194,c),
(461,206,l),
(461,73,ls),
(461,19,o),
(489,-10,o),
(531,-10,cs),
(559,-10,o),
(585,2,o),
(585,24,cs),
(585,30,o),
(583,37,o),
(576,45,c),
(568,28,o),
(551,18,o),
(532,18,cs),
(505,18,o),
(491,38,o),
(491,71,cs),
(492,686,ls),
(492,700,o),
(485,708,o),
(473,708,cs),
(464,708,o),
(459,704,o),
(455,700,c),
(464,670,o),
(461,562,o),
(461,521,cs),
(461,251,ls),
(459,137,o),
(358,18,o),
(269,18,cs),
(153,18,o),
(139,136,o),
(139,255,cs),
(139,377,o),
(173,481,o),
(292,481,cs),
(435,481,o),
(467,427,o),
(472,366,c),
(485,413,l),
(464,458,o),
(418,509,o),
(289,509,cs),
(155,509,o),
(106,387,o),
(106,257,cs),
(106,127,o),
(120,-18,o),
(268,-9,cs)
);
}
);
width = 600;
},
{
associatedMasterId = "60CFBDE8-BC08-4808-BF41-F011F3E03A54";
background = {
shapes = (
{
closed = 1;
nodes = (
(536,-10,o),
(574,27,o),
(574,70,cs),
(574,84,o),
(570,103,o),
(560,118,c),
(554,110,o),
(541,108,o),
(534,108,cs),
(511,108,o),
(500,126,o),
(500,161,cs),
(500,318,ls),
(500,478,o),
(430,535,o),
(271,535,cs),
(135,535,o),
(45,490,o),
(45,409,cs),
(45,355,o),
(85,314,o),
(156,314,cs),
(189,314,o),
(221,323,o),
(238,340,c),
(210,358,o),
(204,388,o),
(204,415,cs),
(204,467,o),
(226,491,o),
(265,491,cs),
(323,491,o),
(340,436,o),
(340,328,cs),
(340,303,l),
(303,300,o),
(257,296,o),
(203,281,cs),
(116,256,o),
(18,210,o),
(18,111,cs),
(18,30,o),
(75,-9,o),
(163,-9,cs),
(280,-9,o),
(359,89,o),
(375,194,c),
(349,198,l),
(349,180,ls),
(349,35,o),
(395,-10,o),
(469,-10,cs)
);
},
{
closed = 1;
nodes = (
(205,89,o),
(190,118,o),
(190,148,cs),
(190,189,o),
(213,216,o),
(239,232,cs),
(269,250,o),
(306,254,o),
(344,255,c),
(344,160,o),
(286,98,o),
(241,93,cs)
);
}
);
};
layerId = "A87B8E24-6BC1-4D25-80CB-D1804F5C1BD2";
name = "Bold Aug 11 15, 17:12";
shapes = (
{
closed = 1;
nodes = (
(301,-15,o),
(365,54,o),
(381,205,c),
(360,224,l),
(360,196,ls),
(360,71,o),
(395,-10,o),
(484,-10,cs),
(538,-10,o),
(583,24,o),
(583,70,cs),
(583,84,o),
(579,103,o),
(569,118,c),
(563,110,o),
(550,108,o),
(543,108,cs),
(520,108,o),
(509,126,o),
(509,161,cs),
(509,653,ls),
(509,704,o),
(469,734,o),
(417,734,cs),
(372,734,o),
(339,711,o),
(325,699,c),
(349,619,o),
(352,533,o),
(352,488,cs),
(352,485,l),
(332,518,o),
(289,535,o),
(230,535,cs),
(113,535,o),
(30,432,o),
(30,253,cs),
(30,81,o),
(81,-15,o),
(209,-15,cs)
);
},
{
closed = 1;
nodes = (
(216,63,o),
(200,107,o),
(200,251,cs),
(200,377,o),
(218,465,o),
(289,465,cs),
(332,465,o),
(349,427,o),
(349,344,cs),
(349,200,o),
(325,63,o),
(260,63,cs)
);
}
);
width = 591;
},
{
associatedMasterId = "60CFBDE8-BC08-4808-BF41-F011F3E03A54";
background = {
shapes = (
{
closed = 1;
nodes = (
(543,-10,o),
(581,27,o),
(581,70,cs),
(581,84,o),
(577,103,o),
(567,118,c),
(561,110,o),
(548,108,o),
(541,108,cs),
(518,108,o),
(507,126,o),
(507,161,cs),
(507,318,ls),
(507,478,o),
(437,535,o),
(278,535,cs),
(142,535,o),
(52,490,o),
(52,409,cs),
(52,355,o),
(92,314,o),
(163,314,cs),
(196,314,o),
(228,323,o),
(245,340,c),
(217,358,o),
(211,388,o),
(211,415,cs),
(211,467,o),
(233,491,o),
(272,491,cs),
(330,491,o),
(347,436,o),
(347,328,cs),
(347,303,l),
(310,300,o),
(264,296,o),
(210,281,cs),
(123,256,o),
(25,210,o),
(25,111,cs),
(25,30,o),
(82,-9,o),
(170,-9,cs),
(287,-9,o),
(366,89,o),
(382,194,c),
(356,198,l),
(356,180,ls),
(356,35,o),
(402,-10,o),
(476,-10,cs)
);
},
{
closed = 1;
nodes = (
(212,89,o),
(197,118,o),
(197,148,cs),
(197,189,o),
(220,216,o),
(246,232,cs),
(276,250,o),
(313,254,o),
(351,255,c),
(351,160,o),
(293,98,o),
(248,93,cs)
);
}
);
};
layerId = "C0E5CDD9-5288-4FE9-A8D3-5F4427F5BD5F";
name = "Bold Aug 11 15, 17:51";
shapes = (
{
closed = 1;
nodes = (
(308,-15,o),
(372,54,o),
(388,205,c),
(367,224,l),
(367,196,ls),
(367,71,o),
(402,-10,o),
(491,-10,cs),
(545,-10,o),
(590,24,o),
(590,70,cs),
(590,84,o),
(586,103,o),
(576,118,c),
(570,110,o),
(557,108,o),
(550,108,cs),
(527,108,o),
(516,126,o),
(516,161,cs),
(516,653,ls),
(516,704,o),
(476,734,o),
(424,734,cs),
(379,734,o),
(346,711,o),
(332,699,c),
(356,619,o),
(359,533,o),
(359,488,cs),
(359,485,l),
(339,518,o),
(296,535,o),
(237,535,cs),
(116,535,o),
(30,432,o),
(30,253,cs),
(30,81,o),
(83,-15,o),
(216,-15,cs)
);
},
{
closed = 1;
nodes = (
(219,63,o),
(202,107,o),
(202,251,cs),
(202,377,o),
(221,465,o),
(296,465,cs),
(339,465,o),
(356,427,o),
(356,344,cs),
(356,200,o),
(332,63,o),
(267,63,cs)
);
}
);
width = 598;
},
{
associatedMasterId = "60CFBDE8-BC08-4808-BF41-F011F3E03A54";
background = {
shapes = (
{
closed = 1;
nodes = (
(306,-13,o),
(371,46,o),
(389,207,c),
(368,226,l),
(368,198,ls),
(368,73,o),
(405,-8,o),
(489,-8,cs),
(543,-8,o),
(581,26,o),
(581,72,cs),
(581,86,o),
(577,105,o),
(567,120,c),
(561,112,o),
(548,110,o),
(542,110,cs),
(525,110,o),
(517,127,o),
(517,163,cs),
(517,655,ls),
(517,706,o),
(477,736,o),
(425,736,cs),
(380,736,o),
(347,713,o),
(333,701,c),
(356,623,o),
(359,540,o),
(359,494,cs),
(359,487,l),
(340,520,o),
(301,537,o),
(247,537,cs),
(115,537,o),
(28,439,o),
(28,245,cs),
(28,93,o),
(82,-13,o),
(211,-13,cs)
);
},
{
closed = 1;
nodes = (
(216,69,o),
(200,123,o),
(200,243,cs),
(200,377,o),
(220,458,o),
(290,458,cs),
(335,458,o),
(357,423,o),
(357,317,cs),
(357,207,o),
(333,69,o),
(262,69,cs)
);
}
);
};
layerId = "CAED4CAC-4C25-4287-952C-C4876514E93A";
name = "Bold Aug 11 15, 17:51";
shapes = (
{
closed = 1;
nodes = (
(308,-15,o),
(372,54,o),
(388,205,c),
(367,224,l),
(367,196,ls),
(367,71,o),
(402,-10,o),
(491,-10,cs),
(545,-10,o),
(590,24,o),
(590,70,cs),
(590,84,o),
(586,103,o),
(576,118,c),
(570,110,o),
(557,108,o),
(550,108,cs),
(527,108,o),
(516,126,o),
(516,161,cs),
(516,653,ls),
(516,704,o),
(476,734,o),
(424,734,cs),
(379,734,o),
(346,711,o),
(332,699,c),
(356,619,o),
(359,533,o),
(359,488,cs),
(359,485,l),
(339,518,o),
(296,535,o),
(237,535,cs),
(116,535,o),
(30,432,o),
(30,253,cs),
(30,81,o),
(83,-15,o),
(216,-15,cs)
);
},
{
closed = 1;
nodes = (
(219,63,o),
(202,107,o),
(202,251,cs),
(202,377,o),
(221,465,o),
(296,465,cs),
(339,465,o),
(356,427,o),
(356,344,cs),
(356,200,o),
(332,63,o),
(267,63,cs)
);
}
);
width = 598;
},
{
associatedMasterId = "60CFBDE8-BC08-4808-BF41-F011F3E03A54";
guides = (
{
pos = (264,509);
}
);
layerId = "BED593A3-988A-4ED1-BA48-D493781FA409";
name = "Light Sep 16 15, 11:33";
shapes = (
{
closed = 1;
nodes = (
(355,-12,o),
(417,112,o),
(434,229,c),
(411,200,l),
(411,73,ls),
(411,19,o),
(439,-10,o),
(481,-10,cs),
(509,-10,o),
(535,2,o),
(535,24,cs),
(535,30,o),
(533,37,o),
(526,45,c),
(518,28,o),
(501,18,o),
(482,18,cs),
(455,18,o),
(441,38,o),
(441,71,cs),
(442,706,ls),
(442,720,o),
(435,728,o),
(423,728,cs),
(414,728,o),
(409,724,o),
(405,720,c),
(408,708,o),
(410,682,o),
(410,628,cs),
(411,414,l),
(389,474,o),
(335,509,o),
(259,509,cs),
(124,509,o),
(53,398,o),
(53,222,cs),
(53,144,o),
(67,-12,o),
(219,-12,cs)
);
},
{
closed = 1;
nodes = (
(97,16,o),
(85,150,o),
(85,224,cs),
(85,399,o),
(153,481,o),
(262,481,cs),
(387,481,o),
(411,374,o),
(411,286,cs),
(411,130,o),
(336,16,o),
(221,16,cs)
);
}
);
width = 548;
},
{
anchors = (
{
name = bottom;
pos = (274,0);
},
{
name = center;
pos = (274,250);
},
{
name = top;
pos = (274,500);
},
{
name = topright;
pos = (528,500);
}
);
annotations = (
{
pos = (486.626,32.35);
type = Circle;
width = 105.786;
}
);
associatedMasterId = "60CFBDE8-BC08-4808-BF41-F011F3E03A54";
guides = (
{
pos = (264,509);
}
);
layerId = "033DCA19-EA25-441A-9427-010B6413202A";
name = "Light Oct 5 15, 12:46";
shapes = (
{
closed = 1;
nodes = (
(355,-12,o),
(417,112,o),
(434,229,c),
(411,200,l),
(411,73,ls),
(411,19,o),
(439,-10,o),
(481,-10,cs),
(509,-10,o),
(535,2,o),
(535,24,cs),
(535,30,o),
(533,37,o),
(526,45,c),
(518,28,o),
(501,18,o),
(482,18,cs),
(455,18,o),
(441,38,o),
(441,71,cs),
(442,706,ls),
(442,720,o),
(435,728,o),
(423,728,cs),
(414,728,o),
(409,724,o),
(405,720,c),
(408,708,o),
(410,682,o),
(410,628,cs),
(411,414,l),
(389,476,o),
(335,512,o),
(259,512,cs),
(124,512,o),
(53,400,o),
(53,222,cs),
(53,144,o),
(67,-12,o),
(219,-12,cs)
);
},
{
closed = 1;
nodes = (
(97,16,o),
(85,150,o),
(85,224,cs),
(85,401,o),
(153,484,o),
(253,484,cs),
(381,484,o),
(411,375,o),
(411,286,cs),
(411,130,o),
(336,16,o),
(221,16,cs)
);
}
);
width = 548;
},
{
anchors = (
{
name = bottom;
pos = (296,0);
},
{
name = center;
pos = (296,258);
},
{
name = top;
pos = (296,516);
},
{
name = topright;
pos = (572,516);
}
);
layerId = "EBFFFCD3-BAE4-48A5-9442-B72A90AD34A8";
shapes = (
{
closed = 1;
nodes = (
(315,-14,o),
(379,57,o),
(397,209,c),
(376,220,l),
(376,174,ls),
(376,62,o),
(409,-9,o),
(487,-9,cs),
(537,-9,o),
(576,20,o),
(576,61,cs),
(576,73,o),
(572,90,o),
(563,104,c),
(557,95,o),
(544,93,o),
(537,93,cs),
(515,93,o),
(503,110,o),
(503,145,cs),
(504,662,ls),
(504,707,o),
(469,733,o),
(425,733,cs),
(386,733,o),
(358,713,o),
(346,703,c),
(366,635,o),
(369,559,o),
(369,513,cs),
(369,472,l),
(350,510,o),
(309,531,o),
(248,531,cs),
(111,531,o),
(34,426,o),
(34,240,cs),
(34,92,o),
(85,-14,o),
(212,-14,cs)
);
},
{
closed = 1;
nodes = (
(199,60,o),
(181,120,o),
(181,243,cs),
(181,381,o),
(208,463,o),
(283,463,cs),
(355,463,o),
(366,396,o),
(366,324,cs),
(366,193,o),
(333,60,o),
(254,60,cs)
);
}
);
width = 592;
}
);
metricLeft = o;
unicode = 100;
},
{
glyphname = eth;
kernLeft = o;
lastChange = "2022-05-18 16:36:30 +0000";
layers = (
{
background = {
shapes = (
{
closed = 1;
nodes = (
(446,664,l),
(434,684,l),
(241,577,l),
(253,557,l)
);
}
);
};
layerId = "60CFBDE8-BC08-4808-BF41-F011F3E03A54";
shapes = (
{
closed = 1;
nodes = (
(395,-12,o),
(444,117,o),
(444,284,cs),
(444,523,o),
(343,728,o),
(165,728,cs),
(154,728,o),
(140,711,o),
(145,698,c),
(148,698,o),
(159,699,o),
(170,699,cs),
(276,699,o),
(398,550,o),
(406,350,c),
(417,371,l),
(411,454,o),
(337,493,o),
(258,493,cs),
(124,493,o),
(53,380,o),
(53,234,cs),
(53,149,o),
(72,-12,o),
(242,-12,cs)
);
},
{
closed = 1;
nodes = (
(111,16,o),
(85,150,o),
(85,246,cs),
(85,379,o),
(151,465,o),
(258,465,cs),
(380,465,o),
(411,354,o),
(411,266,cs),
(411,132,o),
(362,16,o),
(241,16,cs)
);
},
{
closed = 1;
nodes = (
(216,574,o),
(219,566,o),
(227,560,c),
(429,667,l),
(429,677,o),
(426,685,o),
(418,689,c),
(216,582,l)
);
}
);
width = 497;
},
{
associatedMasterId = "60CFBDE8-BC08-4808-BF41-F011F3E03A54";
layerId = "315DE920-B5E1-42C6-93C9-677B33804AB4";
name = "Light Sep 23 15, 16:47";
shapes = (
{
closed = 1;
nodes = (
(355,-12,o),
(445,124,o),
(445,310,cs),
(445,437,o),
(352,728,o),
(165,728,cs),
(154,728,o),
(143,716,o),
(148,703,c),
(316,703,o),
(403,483,o),
(409,390,c),
(417,390,l),
(411,473,o),
(337,512,o),
(258,512,cs),
(124,512,o),
(53,398,o),
(53,223,cs),
(53,146,o),
(67,-12,o),
(216,-12,cs)
);
},
{
closed = 1;
nodes = (
(97,16,o),
(85,150,o),
(85,225,cs),
(85,401,o),
(151,484,o),
(258,484,cs),
(380,484,o),
(411,375,o),
(411,280,cs),
(411,133,o),
(336,16,o),
(221,16,cs)
);
},
{
closed = 1;
nodes = (
(469,687,l),
(452,716,l),
(218,584,l),
(235,555,l)
);
}
);
width = 600;
},
{
associatedMasterId = "60CFBDE8-BC08-4808-BF41-F011F3E03A54";
layerId = "F58D8149-5735-47A3-A4A1-219775F0BF45";
name = "Bold Sep 23 15, 16:50";
shapes = (
{
closed = 1;
nodes = (
(413,-15,o),
(520,93,o),
(520,321,cs),
(520,539,o),
(422,742,o),
(247,735,cs),
(161,731,o),
(147,681,o),
(140,635,c),
(146,636,o),
(153,637,o),
(162,637,cs),
(236,637,o),
(360,563,o),
(365,467,c),
(388,462,l),
(370,494,o),
(330,535,o),
(245,535,cs),
(109,535,o),
(30,432,o),
(30,244,cs),
(30,81,o),
(89,-15,o),
(246,-15,cs)
);
},
{
closed = 1;
nodes = (
(221,70,o),
(202,113,o),
(202,247,cs),
(202,378,o),
(220,458,o),
(287,458,cs),
(344,458,o),
(357,400,o),
(357,279,cs),
(357,119,o),
(333,70,o),
(276,70,cs)
);
},
{
closed = 1;
nodes = (
(454,675,l),
(430,720,l),
(196,588,l),
(220,543,l)
);
}
);
width = 600;
},
{
associatedMasterId = "60CFBDE8-BC08-4808-BF41-F011F3E03A54";
layerId = "249F24FD-68B2-4D9B-B605-F7E1FD84AC28";
name = "Light Sep 23 15, 16:51";
shapes = (
{
closed = 1;
nodes = (
(380,-12,o),
(444,113,o),
(444,281,cs),
(444,533,o),
(343,728,o),
(165,728,cs),
(154,728,o),
(140,710,o),
(145,697,c),
(148,697,o),
(159,698,o),
(170,698,cs),
(293,698,o),
(398,569,o),
(406,369,c),
(417,390,l),
(411,473,o),
(337,512,o),
(258,512,cs),
(124,512,o),
(53,398,o),
(53,222,cs),
(53,144,o),
(67,-12,o),
(241,-12,cs)
);
},
{
closed = 1;
nodes = (
(110,16,o),
(85,150,o),
(85,225,cs),
(85,401,o),
(151,484,o),
(258,484,cs),
(380,484,o),
(411,375,o),
(411,280,cs),
(411,133,o),
(359,16,o),
(245,16,cs)
);
},
{
closed = 1;
nodes = (
(455,678,l),
(438,707,l),
(245,600,l),
(262,571,l)
);
}
);
width = 510;
},
{
layerId = "EBFFFCD3-BAE4-48A5-9442-B72A90AD34A8";
shapes = (
{
closed = 1;
nodes = (
(433,-14,o),
(515,119,o),
(515,294,cs),
(515,536,o),
(413,734,o),
(232,734,cs),
(160,734,o),
(146,686,o),
(141,646,c),
(146,647,o),
(154,648,o),
(163,648,cs),
(243,648,o),
(367,561,o),
(372,446,c),
(393,425,l),
(377,466,o),
(331,506,o),
(247,506,cs),
(112,506,o),
(34,401,o),
(34,242,cs),
(34,93,o),
(86,-14,o),
(263,-14,cs)
);
},
{
closed = 1;
nodes = (
(201,60,o),
(181,120,o),
(181,247,cs),
(181,357,o),
(207,438,o),
(282,438,cs),
(350,438,o),
(366,370,o),
(366,277,cs),
(366,121,o),
(338,60,o),
(270,60,cs)
);
},
{
closed = 1;
nodes = (
(213,567,o),
(221,553,o),
(238,543,c),
(472,683,l),
(471,704,o),
(462,719,o),
(445,727,c),
(211,586,l)
);
}
);
width = 549;
}
);
unicode = 240;
},
{
glyphname = dcaron;
kernLeft = o;
kernRight = dcaron;
lastChange = "2022-05-18 16:36:30 +0000";
layers = (
{
layerId = "60CFBDE8-BC08-4808-BF41-F011F3E03A54";
shapes = (
{
alignment = -1;
ref = d;
},
{
alignment = -1;
pos = (259,-1);
ref = caroncomb.alt;
}
);
width = 561;
},
{
associatedMasterId = "60CFBDE8-BC08-4808-BF41-F011F3E03A54";
layerId = "24E60A82-32ED-4174-B07A-865F1FB8044B";
name = "Light Sep 21 15, 11:34";
shapes = (
{
closed = 1;
nodes = (
(532,726,o),
(544,726,o),
(555,723,c),
(549,606,l),
(527,606,l),
(521,723,l)
);
},
{
ref = d;
}
);
width = 548;
},
{
layerId = "EBFFFCD3-BAE4-48A5-9442-B72A90AD34A8";
shapes = (
{
alignment = -1;
ref = d;
},
{
alignment = -1;
pos = (262,8);
ref = caroncomb.alt;
}
);
width = 680;
}
);
unicode = 271;
},
{
glyphname = dcroat;
kernLeft = o;
kernRight = d;
lastChange = "2022-05-18 16:36:30 +0000";
layers = (
{
layerId = "60CFBDE8-BC08-4808-BF41-F011F3E03A54";
shapes = (
{
closed = 1;
nodes = (
(285,605,o),
(285,596,o),
(289,588,c),
(518,588,l),
(522,596,o),
(522,605,o),
(518,613,c),
(289,613,l)
);
},
{
ref = d;
}
);
width = 548;
},
{
layerId = "EBFFFCD3-BAE4-48A5-9442-B72A90AD34A8";
shapes = (
{
closed = 1;
nodes = (
(264,610,o),
(264,594,o),
(269,576,c),
(570,576,l),
(575,594,o),
(575,610,o),
(570,627,c),
(269,627,l)
);
},
{
ref = d;
}
);
width = 592;
}
);
unicode = 273;
},
